<mxfile host="65bd71144e">
    <diagram id="3zRorkfTJ9R57lWYHaDc" name="383.Deployment Steps">
        <mxGraphModel dx="775" dy="588" grid="1" gridSize="10" guides="1" tooltips="1" connect="1" arrows="1" fold="1" page="1" pageScale="1" pageWidth="850" pageHeight="1100" math="0" shadow="0">
            <root>
                <mxCell id="0"/>
                <mxCell id="1" parent="0"/>
                <mxCell id="2" value="" style="shape=image;verticalLabelPosition=bottom;labelBackgroundColor=default;verticalAlign=top;aspect=fixed;imageAspect=0;image=data:image/png,iVBORw0KGgoAAAANSUhEUgAAAmsAAAFqCAYAAABF+B3cAAABWWlDQ1BJQ0MgUHJvZmlsZQAAKJF1kE9LAlEUxY9pWs1AEbWqYGgZFmpuWrQwAwtcTJNBtWp8mgb+eT1HIvALSJuWtggiWvQJIlz1AdoFRRG0bR9IkDLdp9Vo0YPL/XE473I4QN+AyXnOAyBfsIQRW9I2t7Y13ysUeDGIYagmK/GIrsfJgu/d+xr3cMl9NytvPV0eVWplb6IZHD0PTiy8/PX3vKFUusRoN2kCjAsLcPmJ9QOLS64QjwkKRXwsOdPhC8nJDl+3PQkjSnxLPMKyZor4mdif7NIzXZzPldlXBpleTRc21uUdmknEEYOGFSzDoL0m6R9/uO2PogiOQwjsIYMsLPoVIYUjhzTxKgpgmIOfOIQATVj2/Ls/R7NmgMUq4FYcbacGXD0A4yeONk15lTOgXuWmMH9adTU8pd35UIdVAfS/2/bbFOCrAy1h2x+ntt2iDt2PwM3+JxtKYXFdU2yJAAAAVmVYSWZNTQAqAAAACAABh2kABAAAAAEAAAAaAAAAAAADkoYABwAAABIAAABEoAIABAAAAAEAAAJroAMABAAAAAEAAAFqAAAAAEFTQ0lJAAAAU2NyZWVuc2hvdNnO3SoAAAHWaVRYdFhNTDpjb20uYWRvYmUueG1wAAAAAAA8eDp4bXBtZXRhIHhtbG5zOng9ImFkb2JlOm5zOm1ldGEvIiB4OnhtcHRrPSJYTVAgQ29yZSA2LjAuMCI+CiAgIDxyZGY6UkRGIHhtbG5zOnJkZj0iaHR0cDovL3d3dy53My5vcmcvMTk5OS8wMi8yMi1yZGYtc3ludGF4LW5zIyI+CiAgICAgIDxyZGY6RGVzY3JpcHRpb24gcmRmOmFib3V0PSIiCiAgICAgICAgICAgIHhtbG5zOmV4aWY9Imh0dHA6Ly9ucy5hZG9iZS5jb20vZXhpZi8xLjAvIj4KICAgICAgICAgPGV4aWY6UGl4ZWxZRGltZW5zaW9uPjM2MjwvZXhpZjpQaXhlbFlEaW1lbnNpb24+CiAgICAgICAgIDxleGlmOlBpeGVsWERpbWVuc2lvbj42MTk8L2V4aWY6UGl4ZWxYRGltZW5zaW9uPgogICAgICAgICA8ZXhpZjpVc2VyQ29tbWVudD5TY3JlZW5zaG90PC9leGlmOlVzZXJDb21tZW50PgogICAgICA8L3JkZjpEZXNjcmlwdGlvbj4KICAgPC9yZGY6UkRGPgo8L3g6eG1wbWV0YT4K3fFQ+gAAQABJREFUeAHsfQdg3MWV/tuqatmSe++9GzeMAZtmeg2dg+RIIYFcyhEg11JIyP0vyZU0QjiSC0lIIJRQTO8YY4yNu42Ne7clWZasttr2/76ZHe2utBISNvZKvLF3f7+d35Q338xqvn3vzYynuGtJXDQoAoqAIqAIKAKKgCKgCGQlAt6slEqFUgQUAUVAEVAEFAFFQBEwCChZ04GgCCgCioAioAgoAopAFiOgZC2LO0dFUwQUAUVAEVAEFAFFQMmajgFFQBFQBBQBRUARUASyGAEla1ncOSqaIqAIKAKKgCKgCCgCStZ0DCgCioAioAgoAoqAIpDFCChZy+LOUdEUAUVAEVAEFAFFQBH4VJK1WJxby3m09xUBRUARUAQUAUVAEch6BPxZL+ExErC6tt6WBJ7m8XjEH/BLTsB3jErXYhQBRUARUAQUAUVAEfhkEGiFrFHzFJcYXuA2aYFkhyFuNFT2kSfeJJGNzor3QCAgl156tvh9frQGbA3/d+zcIatWrJGcHMapni0rOiqjEE3HleutmEnN/oxHMEZ9Ht6ZnvRifHKMxs2YZFxqaPqZz5rWkZpe7xUBRUARUAQUgROLQItkLRqOSKghLFGJNJPQToRx8Xp9kpsbxDU7ralmWgahDASCcvbZCbKGz5T37cVvy8plK9G2AKbqTBN4s2ZrRBYgYH8g4EdEBCMzEpEu3bpIQXGBxGMxqa2rkyOVR8yPiGAexqWHmlNHxLSPs6D7VARFQBFQBBSBj4FARrIWxUQ4ctRIOfXU00DWohmL5URZWloqO3bskG3btkl9TUgCwewyK0K/YuZqTvBOCxiLx4RawBgmd+u7hiQeL55bTU3GxmrkUSFAmmQpkyNOLK695ImaMqs7C/gDMnXmdJk5Y6b07dNP8vJzQcy8IGu1cujQIYzH7bJ61SpoT3dKOBw2/WsbwPqT9Sblsk/1XRFQBBQBRUARyEYEMpK1GGaxnr16ybRp0yTmgSEUk2RawEcTh7kvGMyRgwcPyKMP/1XWb1hvzE9paU/ohyRJa02MZu1rLbE+azcCjqKRKIMh2/xeG0strXveesHoyyiINn4P3HTjTTJ58kQJR0jEbG7SuPz8AikoKJTBgwbL/Hnz5N1335M/PPigiB9mUhRu60+S8ihk8Qe8eNY2CVqXT58qAoqAIqAIKAKfDAIZyVpqVdEoNGucXzmfJeZZq9+wn+ugzSgpKZEvfOGLsmz5cnn88cekvr4utYhW7lMKbSXVsXjUMiFzjTsWtWgZmRAg9j169JApU6Y2PibJWvH++1JWXkbVZmN885vEoOMDT1yuu/YGmTR5gnBc0gfRkTU+Tu1j5npv+TLx+mmihyYV2uIx48bKoEEDmBSB2tWovPnWmxIJZ9Ye23Tu/fiNVVejXhUBRUARUAQUASIAspY6UaZMjHjIiTAeT0xkeMTPPp8PEyU0HIkJNgbtRDQaNv5Bs2CayoOv0P2/uV880JzQvNg0mBowedv8/GQnQVdzqjRN82b+zBypuViSKy2Zw7QDWsIk87SyWQmap0/mTC8ttabUNJ/8PWtuXc72ypBa2ke3KzV1ek2pTzJpqaAAk969+spll14BghSBhotjKirbt2+V0oMHxeNv3XxOEhaLxqVrt64yecpEY8ImcYOuDPd4Bo1dbXWdBHJy4EOZY8bemjVrZMO6deLzJ36PYLxOnDhJ5s2DaR8mfI6/CAjfO0veaQNZ41jmd8G1u/HGReCaiqB7nozjDxyLjf2pkwmnlMKa3Nry3PfJktLmdTTJlPiYKV1LcUl5bWamc3Euj6vFxfOze9Y0LvWzS+fiXB4tT/FrOjbcmNDx55BIfg8dVry675KLS/3cNE6/b0TEBodFKl6pYy01nUvj8rhnLp6f3bOmcamfXToX5/K0vbyP1Kw1FoXJav/+/bJ+/XopLi6WUaNGSdeuXc1jTh70+YqAxE2YMFEuueQSefLJJ43JyuV3V4oKdzERLwlbksy5Jrh07blywoZ4ZkK1A7gpEIAzOdOmFc14RzzTHnBqNRM0J1lrQsucLj3XJ/epeZuOtq50wnB05Tt8M2FEi2cEWqxoNCJRXC3JirTYJ+ntsn0bjYVl+knTQMZyMX7sDwjWSZ+0X917r/FP84OYzZw+Uy697DJ5/vkXkt+hlAJjIGhhkDUvhIphvLYtcHxbkuUzi2kscXNtbl4RR0w6noyx48mOUDe22lY/c9sxzO+ZxdjGtS1/W1JlKi81zt2nt6vlkl361BSpce5ey0tFKHnv8EnG2JHjPrvnip9DJP3q8EmNTY1z94pfKkLJe4dPMkbHH7E4ceOlzWSNKyi3b98ujz76KFZXBqBBy5PRo0fLRRddJL3g3+aJYQLDP06k88+YL++88w582crE6yMhYwNt5zc0RGC+8hr/ory8XLYeZtOQVB+pNiv6fNj/jOldDjMhh6LQ6GFyRSQnfjNZ4TNLzIHPXC7Kqa+vl1AoBL8mrPb0UxZXI27aEGz65ASem5cD/6cC1EVyGZeammqprwsZsxrrpVwkm1w1G0WdDNQmMvjQPi/kayqBIbRhEASbzKTlWwD7vUVhimM53IKCgaj5EvH8HMgJmjpDoTDSw8+qkeiSsEQR55cg+oVEJBRqAMa+hAzMnR7CDcTTKwWF+ehH2wfErqa2VsKhCBaKuGFh28XcsUhMotCIoWWQEyZIECPKGoY8Ofk5xneR5Ke+NgRNGVIROBM8Jp/VwJJkoUxoxdh7JG8NIFs+QNKWxSlFRUUmX6JgM7Y+WPuBbN2y1WjQ2O4333xT1q5bK0eOHBFfMMCOQo0x1NOQIFxcDexks/1I/HxGZrvQhNiyrxrQtnyDUb7kBoOGGNZhxWldbZ0ZBz5uBcPyEzCxpgiwTSm+sQ85rkk0qZluaGhAGbVGfq6oTpI+1zJeobGGXLlYPGHHeJ75btUiX011rWkXx0ezwZRahLlPtjX5KFNc8mnrd5nyZoprvZTk00x5M8Ulc7R+lylvprjWS0k+zZQ3U1wyR+t3mfJmimu9lOTTTHkzxSVztH6XKW+muNZLST7NlDdTXDJH63eZ8maKa72U5NNMeTPFJXO0fpcpb6a41ktJPs2UN1NcMkfrd5nyZoprvZTk00x5M8Ulc7R+lylvprjWS0k+zZQ3U1wyR+t3mfJmimu9lOTTTHkzxRkzaDLbR92RsHHC4ZUTznvvvWdWg951111SkFdoyBbL8GECmjV7ljz+2N8k4A2YiZuTH+e0qVMnyxnzz5AhQ4aYiYvpqR3hqtKXXnpJ1q6F6QpkhKv7OGHRafyiqy7CREWSAzMs6t64caNs+GC9XHXl1TJ+/Hhj+uJEvXXrFnnq6adl585dhgBlngRZY3pw6RpAvAYO6C9nn7NAxo8bh7rzTUI+J5l8972l8uqrr0h19RETT1kuueIKgwkjKCNJzBvwg9q7Zw9i2GILPIlMSUmxnHXW2WmTM8t+6uknsbXIAimBxtJpXPYg/xuvvy6jx4yW2bNPln79+0MTFJVNH34oL7/yklRXVRsyRmJx+ulzZdasWVLUpQtkqzZE+e133qZIaYF1EaeJkybJGfPmy4iRI0EEgiYNV/fu3LVLXn75JVm9clXC14uPLIE9/4LzhWTJhe07tsvSZUtlwXkL4Is2RXp072HGxIcfbpGXUMb+vfssUUG55557rowcMdK0zfQjcUFfnjH/TJk65SRo2+KycOEzhry58ptdDaEDYU15EEe+QVhM0K9/P9m1a6/4OD5gUj18+LDF0VA7jxTkF8q1V1+MtINMlxAH4kbidNkll6E/PPLhh5uMjxvHLldDk6wvOOdcg2v37t1Nn7FvSJZWr14tC59dKJUVh9FGS2zZv5RjzslzTN0Uk9+T1954Xbp16yYXXXChDBg40PQhMXj33Xfl+ReeN+PK/qCxDXP9z7ynnXG6zJ07V3r27InxHDT48LuyZcsWef3112TdhvXmu5UCid4qAoqAIqAIdEIEnAqlXU2zk53HkJSKigpZtGiRnHv2uSiDxAQaAWjXJoEQLFz4rCmXWpkuXbtgFd9nZcSIEWYyM9qxRK1BEAbGDxs2DCtKN8iDD/6f1WJBc0PywwmLgfXyNWjwYLni8iukqGsR6oJDFOqkZmb0mFHyzZHfkEVvvS1/e/IJO2Ej/UcF8Egzyf/dDdfKSSedhIkRGhmEKAki68R9Xn6enHHGGTIbpIiE5pVXXpE6aKOokZo3f75JxzxsVxeQpp//4pfYcNeWw3iSiKuvvkbGjh1riSfi2DZqIKkpmTljhvTu3du2Ec+2bd1qMJk4caKZ9B3m/fqREJwsDz/8sCEYt9zyZWEc6+WLJuqBIAVTp06VX/7qlygp2f78vHy55UtfNhpRTv7UgpKksWyGgQMGyM1/f7Ns2rRJfvd/v5XaGmiQoLyhj+L0GdPNIgESJP7r07ePnAwSOXjIYEOJ2PXEaAbacdL06SDqj4FQvAFy7QHxHY+2jERdDaYe9zZhwni0zW80q88//1zrZA3c/VB5ObJaWZ3mrhtM8V/72tdk9649sgrbdZDAHIC53ppLQaDRufRjOw3b0NSH6o3srB9Q8V1mzpyJe5/B4Z0lS8UD7jp+/DjTVyRZxIaaRIc/y2UeEtTnnntWXnv1NRBbaMcwVrp17QbifDoLNoGkjP0xEqSYxJAEjC+GefPmyTSMtb/85c/YZmS10bIxnt8dEmj20/Dhw02fMp59RRk4Zuh7txb+eHH8sKHX6UeH5Biw31Hm0DjFQMeB/e7od0G/C9n/XbAzhx2xeOcMhhfGLvcg42STSqoakyVuOPFw8qCmIQzSBEMZXb6N2au4e7GU9OhuPgfzg/LFW74kI0ePRPEkXJh4kLbicLmUHyo1k7iHDuNYADAZK/0uu/RSiSANdXFMF4lHJIxFDBE4p9MU16dfb8kvyjef48jHuhnPF33h5p15mpx3wbnIA9MXyoQ3HSRGU+NsLtvILydKR1qaxAK5frn5CzfLnFPniJ8nGiCeW5ZEUS+vbJcHplV+plnqwksuknMWnA0CJvL2O2/BRHoEEzrkAxkheRyFdo4fP9rWYfLHZPDQwTJ2Aohaol7KXFZRJo/97TFTH/MTlwhkjuI1bNgQo4UkWSI2HshknOrxmWbHy6+83GDab2A/MEH4hEG2BuRjubwfOnyozJg1Q0Iw/7k+ueb6a2XM+DHiheaS2DBtVc1hOVi+H/chlBMz11FjR8mNn73JaMYIW8yT7FeWTczZnsHDBpt74sW+MS88J14XXXqR9B3QR+qBSczD/qu35Rg8AA17FsSPYywCjWZ6SIxDNx5x9fuC0Hwtl7o6HBuWOC3Djc08EKjho4YbTO686w654cYbzI8DmlipoGX7q+urzTWC+uJgaqDhZoxHOc4hE9sZCtdJ7z595O8+e6N0BcniM6ZlnoqqSqmERhXWfhPvhUbtkssvl+mzT0IajD20Ed5w5hWJN6AP0I/4PHrcSOBNkW09eEe9UWkALjlYjPPZz+EHzOgRiOXYxX+Uf8P114PgDQdCNm0MmNbXw0QdCYH0eWTPnp2yZMlic2RaOm4tfUrF06XROPu3wOGguDgEFBci4cYFry5onOLCsXBixgGmh6ML/LVP7RqvqYETKf3a6usboG2ZKYOhDYvAR4mmQ2oZHv3ro/K9731Pvn/39+VeOIjTrEoTFK9zTjkFCxhA7EywXxaW7+rgBM8ySOV4T02Ye8Ys1IQsWLBAhg4dasimm9Rteenv9dCMURtCDZbxeUu0g3lIRhtgNmRd1EDRz8oENJXl94fJtLysXJ6B6ZVp6LNGOZj3ys9cafLT3FZTU2Pq4DNqTihfXm6evLMYWrWaWshv1SOpbWA9TLdl8xY5cOCAIcW2ckz8KKcA5mGa3WgWKyuDbyBktabjRCqIejI0cPRjY5g27STzomaMmNH09gKc8L/73e/KPffcI/fdd5/BnmXz+cQJk2AuxV5m8JuiX1WmwLQ0OVZVVRn5UnGmtpQaUaZhPM9ibRrYbsYHEys4mz5P/Uz/uMpDh402Kwj/PcrPslMDP3Ms0CR8++23yzAQVraX/UZ5nE+hy0OtG+P5g4NdS63ZddddJ9RActUqaV5FRbn85Kc/lu9/nzjdDZ+4183ebIYCIg1NvE3lcOU3tj1RvsPBrJQmK2MNkIELcigAcafpfSy2GGG/unJXQfP2z//6z3L33XfLI488In999K/wDYSWsEn7TYH6pggoAoqAItDpEGg+g7ajiW6yyMnBdgmYkN2LJIPkgZMP00yHWYyBhIaT4oH9B2TL1i3SvaS7ia84XCHcasGmI+GJwU9rNsxxH5r0JhHeSM5YB0nJkiVLjDmS/mN9oA25FNq4ATDjOZl4pUmOJj2SxpYCJ+hZs2YbosZyWT7lfPvtt40P3ZEjVSi/r1x55ZWN5bNtQWh6Lr3kUrn3vl8bX7bTTj9N+vfrbyZZak646GL06DGyEqY5mj7pW+dWH5KUHq48LIvhV8bFBVx04QLrZyA5vO8398nGTRsNmfji579ozJeGnuCNWJAo3XvvrwxZHjx4CPa6+wLIGex4eE4Zuf8diQ0XX8yZMwdlWgLAdpJAfrBxg/GnYn3c+Z9tng+TLrFj2mlTp8nitxejjBwmMYHP2L8Mf/7zn43pkTKTIF2GVZi8Zxq+uhZ1BZZeY7IdO2asXHzxxUZukxkD4cmnnpTt23YaAktSnNbZNlHjO1GhQz0XEByqOCRnQs5BgwcBP/pyQfOHscbA+h3pueqqq+QnP/mJVEIr9p//+VM568yzTT8wHfEjDvf/7/2GbHIcDRo0UIYMGdLYTySEq1avQp+GhH5rxPQt1M+FNb179TY401Q6dOhQs0qa5aYGpqdsTzzxhKxYsco84o8C4mS+C4hhGpqt6QawceMmYy53z5iB7fbDzMr6SstK5YUXXoDJP4B22+8ccdagCCgCioAi0LkROCqy5qAhKeCkw8CJkpoKasgOg4T16FFifKpcWq4KpB/PXXfe5aLMBEuNE7UJHpTDNCReNliCxsmVExMn461bt8pvf/s7kLAcxMUMIXvooYfk29/+tklDGZiO2jw3iTdWlnLD+gb0H2BIDaNZBydXassehfaCcjB2B5zp77//flN+bk6uqYN7dA0dNky6YMf8yspK43D+hc9/oVHjQ43JBRdcIOuxEOKyS+3k7GThs2effVbKyw/Br82SKycW515iuf/AXlkHnyROzOH6sLy/4n0ZM2ZM4yIOEom34St4EPuUcXKnKXr37t0yfBjMZ4kJnPG855Wb0rrA+qmB+uY3/xFRllDzmSM9Xo/fnA5Av7T8Apib4XDvAnHla9u2bYbckQizDvrenXvueWZBiEtrNGAgpnux2IB+fIZ5pHCLnTt2ymYsmLB7ofGBJaouf0vXVSA+q1euMIsLuPKYPnFBrGql/C4Qa44hkqAPPtho5CW5bQyojmOOCwu4wpOQTT9pummbwQ+i8EryOm/ePBPfmBc3Jg2ucAQwdRD/poH9SHL5+uuvI7/VTr722qtGm0fiSo0f/2GIGR+4zZs3G00gST01fvSZJCoTxk+ApnOiOU6LW+c8B/++g/tKE4tA2oZZU9n0syKgCCgCikDHQeCozaAkPDR3cQLnBMkJihMZicPhw5UgI7nCsxxd4NRizE6JCKY1kxJmJUf4+IjaOmoUmk7gNGtxUnOB9ZJ48JxSaocYGMdyaVJyKzpd+tQrZUklmnxGYvPOu+9g64calGGJDOXat2+fWbHKudWRLjqCc0sNEqo1K9cY0sj8VkPnBRHsL9dee51xwneTO+sgwVq8eLElaoxICyRXXqN5c9H0xTuMlYdmwYOLBF579u4FQeF0bgNJR9NALLjFBM2uLjjM+NnJ5a58xjbySq0jTZVuXzOXnnjQ9Mm2MjHNpFyEwK1NUgP7mT5WZBypfc409BU05kDcmzpTM7Zyz9ZysQZYsezECuIH//AH+dfvfkf++Mc/mra4drAI3g8ZCk0ZSBkDSWpLgbJ3K+5q2kIi7GRKLY/EilpRtp8vtp+vpmPI1UHtKBffMBhYAQVJ2BIQW/PDhJGJ0KUQZBaBGs/3li0D7kHjMoBGJFIgL+K4cOSO2+8wizi4cEeDIqAIKAKKQOdHoF2aNTdxuSsnLJq/aOJzcSQynJi5NQE1MvxMjZULvKcP1l4QDU6KDCQ3jHdlMO4IJq3U/bAYx8B0JHJmVaIp1mrbSNg4EZo0mOA42bry3NU8THmDd5bRAKZEmXxc1cfyOE9SBuYn4WEcJ2wzWePKRRg+yM420hn9ySeflm9+A752XBBAh3LknzF9RqMvG+shNlxJSiJIkmNkS87ZRhRqVjiZs40MPmhl+JkrIOHxZuJQKOrF84SzPSNbaiefNRIV1MV05VhZuWf3HsQnTbBslyUptl9oPrWEjCWkBgrMNCTmSbLVWAeeGFkoPvkEkrPc1D5BNyKR+Z+QuwkIeGxDenxxt2JsT1JlfQlp8kWIwIxMzR7H4vDhSc0in3GPMqsh5aeWgzlVATKGsSDD4cgrt8ngdh3sC+KTFky74o0+g0zv8jIdsaPmkePD9jXaC3JdUMhtbgiADcSF/pxEg3hSq1uBHx50CyjpXmJ+7DR+j/Ccfn4XXXSerFi5HHkcYWsiW6JsvSgCioAioAh0fATaTdY4GZEU0ax24YUXNm5FwcnEBWoHuI0C09VD28PP9O1h4MTE7Tk4IVEjxcmLzuNmQjQzuC2FjvlWK5Y+WbOeSdi64I0BbxjtHU2hLJ9bKdDURvMrAydWLnzgM2qIMgU/NH77D+wzeUiiHJmgvxw1Irt2cb+2gHl+Cny+uLUI20+NEGiN2dD1CHydGOh7xr3R1sFMNWki/NOgDXPBEkvMsmgKTbjLeWZl04nfJXZXJCcxPdrANjU01BtTH/FkvcSQsv4a/nbBxg1wxfRBen3YowwbA5NotBzYP+71yRAG1y88Jurqq64G4fUaTRq1nZSNmkhujJxq6qW8JEuhhnRtX6Z2kCDlY9uRstIyECNufosxhCZxTHD/t+3bt6dpMEMhajDZZgZrUuY4aRpYP82dv/jFLxof0e+O287wBwfNsOaHCgSgtjUCTVkQWsMQNole+MxC45/WrbibjBk7Rs6Gvx2JGwPlLSgsMP6I1tevsXi9UQQUAUVAEeiECLSZrNEfiM7RQ4cONeSHG6RyMuLEz8mUgVdqgH7/+98bcsDnFTCFUjtBZ3U+J8mZOnUKzIBvy8H9Bw0hKcgrkGuwBxlXODINX9t27pDnn8ORQRkCJ7Cv3vZVee2118z2H9zs1DrQ2zMfmYWk5EP4Q7EsytFS2Lt3vyFQdBpnYHpO0nTWd87sQwYPadw/i2SNmi/SKBK6WqzmNGY5fKZm6ZGH/yJDh9wJXy86gFuNIcsl8eLETF+1CE4x8GP7DKeFYZ2fZKCplLv8c3NV119c9MC+5PmcbC/JwxXY4NccIYYtTkhIacp+GitdWydrn6TktmzCw938R4O0cM8yEmNuxEz/LR6BRoI+ftJ4I7trH3MyfsP6DWlm+EzSsnxujEtybogaErEcjqE5c04xmyyT8BKHYcOGyrx58wxmLItmXjr9c6PmpoFmUB7L9uUvfxkbSC8HGYsYMyZ9D0nUGDgGqFVbs2Y1ysSKYghz8+c/D1l2gtQvhzm8Er6Jb8uggYNk7ilzGzWkZuwcPZdvKrJ+VgQUAUVAEchCBNpM1ih7Ux+wVIduPufkZle+rZBCmnowmeRhWwaaqGbOnIXJyq5GpCnrtttuk5UrVhpyRz8crp4M4zmJFSesJTgdwYe9zTIFTqTcEJe76nfpUmAmZcY58sM8nBh5wgLl4LNMgWSKG6a+9eZbhoiGG5LbJXD13+XYR8tpogxBg+mKspF0HcEkyh3oU4kW4ytBThcteksWnMuTCkjqktomntKweTMd6m0c86bKnEnGo41j+SQBPFVgxswZBheWSU0Q++D995eZUw8mTJhgHPINScECA5qoSXbps5bqF3e08nyc/BxHwdygXH7p5QlTd8yYF6dOm2rMiSSbIexB1rSfqXnbvXuXwZt90VJg+Qwkfq+8+oqceeaZpo9ZHk2rXKiycuVKs7p1Gs4ndWMUPyuk6shhY9LP9IOA/csySM7Gjh1vK8E7+4T+ZqZvgC/9Hbdu2W40zayLP2amQlN80UUXyz64C/AHEIm19Vm034nKyiqjNaQMGhQBRUARUAQ6NwJJJpHSTihV2h14zBH3SyMxI6lrnDgxYXH7jEceebiRmHASo1n0zLPOBKlZgI1Ie5v0jvjQ32316pVpRCiTQCQc9KsiaeTExxcDr9w3jKv/GuXIVEAibj12veeJANQmMZiyQMxI+BoJaQITasgY/wc4tnNfNud3Z/PBjIUFB8tXLIfs6dDyCCOeq0p50PzjGuh3R7PnQ3/6k9EIkdww0Ex9Cva0O+ecc6Q/FkOQFDAQB2qK2Jckq0cVjjI76ybR4nFbPFqKfoLsE16dHxn7qylZYpo/ob2U/6PwjkNTyjR+aM6o+SRJRTebwP7i1jDcV4/aW/rAET/Wx75fuHChwa1p/Ta3fad8RmbUw/L4MjKjPprqn3zyb9DE5hlaf97559k0JPp4cUUutyjhBr+NQuGOR7PRhUCDIqAIKAKKQOdHILNmLTG7mQmF2+M3IRfchoDTRBhmJq7A5LYFb7z5BrRNWCGYsvKTiWzWuLz+ymtmteB52N6BZ2DSpBSjvxpIDR3AMX9BQ0Zz0Bp5+JG/onTUwci0yvnZa8yWlG3IkCEwJyIK28qb8lAOHeefeeZZlPMBtGY8UomTHhgDZDGmJ1ydIzzWADTqvd587Q2pq66Btu4Cs7UICU7AhwUFCSywNE/qGupgEtspjz72qOzhWZTQivA5ZWFg0nrsFzZ58mQz0TLOi7q9mNhXYKuJrZu2mhMQHBGw+HCFIQkJnMyNtsWWQ4xTiRK3NCFRlJg16RIzalX8rJTtjwNP5EdtBjI+81FDhn8xmF1zsC/X0iXv4QDxerng/Aukb9++ICc8t5WnSVBbiPQAk6bDNavWyp8e+iMc9xtM+1gj20FfdniIgSSwHuAJn/hmrlqQhf+MLxb7N4ZVkyAdHmDEFw9iYOAKV57YYAkI+5WBpaYHrp8gvDuwzceP//MnOK9zATa7HWJM8a5fWaQ3hrZ6uXLV+uNxD7j9u+HTBq0iA4qBLMQEizWgweV48VImyktCh/bRpMm2PXD/A9hD72JjsqTPHjsWI9SUzU2dSRSpWV0IYrds6XKDcwwnQlB6ti/RRJTpgan+DaHWsnuvniiGxJELUywR2/ThZnnooT9BG8uzTFE/wCwvq5Da/vXm6C6zpQnqAtUz/cNW1GKMPvv8syDS7xmtJ9umQRFQBBQBRaBzI+Ap7trdzS2NLeUvepoPzaa1ZDRNAyYhmmTKsEknNVs0ETq/raYaJZeVhIb/qA3jZrHjxo4zpk8+P4JtIPbu2yvLsGXBwYOlmPwwgYIIceLsiu0U7sYpB9Rm2cndazQ+f/nLQzAvjZNx48YYx3JuE7Jt23ZD9khk2AZQBjNLkzj06YtNTBEc+aqpqZZDB8vNRquMd4SLBGkM5KMPG8/c9ENeag23bduK8xjXmhWUdtWpJRapZI3TNH2/vg1/qi5FmOQRQPmMJuaef79H9u/bb+KavpEI9Ond1xAQOtGzzFoszCgrLzVMhZ+psaOGxx6ZxYI9cvDAfuMbaAgvsOrVu1diUQaSoX8YdkOjRixsILGEvxxWto4cOcr4f/Xr38f0CReCbAchWoH93ErRB6kaQ+Y15A75iBPlqauvk30H0FcgtSSjJg02D/YDPwbTBoyNstKD+BQ35KN7sd0E2TwHq6HZkSckJIPNm/yMnGRZDIYEUavJDYe7m/Mxhw8fbn3s8LihrgH+d9tlHfpoO8YBSRplcP3KIri/XyHJFwLHIsfFLvjlOUd/G8s+A6ECEy0sKpQpk6fKiJR6DmAhwCZoHVfDx4yrUB0Z5A+X8ThO7Ms4q9V9Y7wghr/AGbHbdmyXyTBrDh0yzOxbx338iPMOEH+aqBkoK0MMZeZg0cyE8RPN/m08L5YkklvTbISGetWqlea74PZtM5n0TRFQBBQBRaBTI5CRrLHFxkcLE7OZJZtAwMmMwWt8r9xs2iRRKx9ZNsmeH47iZoKMcK81+FbB6d6RPVACnMkYleJuzcnakneWyJ9xADYnOpqXaIIKh0lyfCAenKTTJ31O2EzHWRQKFbTNXqlNcm1x4nLSpMmSTt8kNVypSnMTJ/TUFX+pk6UlQ1ZjcuUVV8rcU+dAC2NJlxcngy/CyQAPQ167+aurKf1qtC3URBGRBCHypvjsMc6avSzehmwAfxJSR0qIKzKnFezIRFokgDDHSCUi2Y+mT9BubgvhRZubhii0dgk+YXA0uCRwJsE1GkzK7+pHYhJGah+pkqO8MfRzMsB02Th+XH3umpKqaRSKILmlyZb9zP5m4A4k3KiYZJF1JkkayaVbzIF+BDl0eLFBzn+QFM00LHFlW9kn3JCYnN+OBS8IGrdQYR22XvMQOcNYddqUrHGM/OxnPzendUTQN4SGGlvuSUe5OW6TcrIVLM0SasppPrOPIQvxj2JMcQW1HbPpY9wk1jdFQBFQBBSBTolAZjMomprUrDitTGr7j26iYNnJ8jH1QIpMJabuRZVaOyd+Bu59xgmPmjRqu5qSNJeHkzO3e3AhofwBsXAxySsnT8rG46RcIDFJymtj0ydZO8GWYOEEz+MkMeQEyzTUyi18BisqU+p35aZeSQCwGX6TkMSebeBh8pmQcrI0lbFJYSkfuZGwqyyBJf2wjC8bPzcHJklqUouhPLadTr40TGnfTQQSjMwLRliGLcelbfWKpEwdBGlhcNzQ9pmtz+FhEiB18jNkaGy3fZr+zpJt25mHMnNhQ2ogWcoYPqIJSbzRzQltWlKuZIk2rqmc1FyDIEq6LMlceqcIKAKKgCLQmRFwM3YHaWNyMqamIR60ZIbEqHHCp90sjTHYptEnqWloHpNMkUZXMHHzsyEkiSRJGmUjwqGoOW6JWiab12pG3lmCw9rhZ/RRZC1Z84m6S2vxiRKi3fXavkc2x9rSSvgIBpWW9th+SB0rUASasdO2GjpmP7StbZpKEVAEFAFF4OMg0Aay1hql+ThVtjUPJy03cVEGaONAwmhaojO+1TDBROSSNBaLiGZxjQ/TbpoSrrSHqR8SjIDFZi46LiNGDsPWGNOh6YMmB7LS1Mrjn7jwIrMpMrWClu6PB/aZCE2muOYyNse+eRob8/HbkbmOj19eSxIm413b3TX5pK13NIvTX42EjaZ2SyQzj5y2lflJtrdtEmgqRUARUAQUgROHQFbPApzs0gJNhU2i0p6foA/0L+Ih5sHE0kiaz6hhewa73x86VAGpSDKzUPAThNenoVqjWdM+/zR0tbZREVAEFIFPHIE2aNY+cRkyVwBuQ2dsrgJdvmy5cfZ2e1nt3sVjoCD60SgrMtfa7lhqUQqwMS+PtVr+Ps5qpEyQnQ7377//fsK3CmbUjGa6dlenGbIUAW4JUnXkiNk8t9F3EKb3aowLMPUslVrFUgQUAUVAEegICLS4GvREC09LJwkOX3V16ec7clWmWwXI1XMnLlhmxpWUtXW1mJOT7JHatfyCfIhG+U6kjCcOnU9Tzez7SDhkVqmaDXsxbj2egORiE92Pu2r604SftlURUAQUAUWgZQSymqyliu3MiOZQ9BSV2okla5TQETTQsxSyltSkZbWlORVivT8KBNj3MWzya6g5twrhuDC+lUrWjwJWzaoIKAKKgCIABLLWDJrCe2xHJcyIdurLJk1VUha78MGNq2S8i9Fr50WAfY8NYkwDE0O18zZWW6YIKAKKgCJwXBFQtc9xhVsrUwQUAUVAEVAEFAFFoH0IKFlrH16aWhFQBBQBRUARUAQUgeOKgJK14wq3VqYIKAKKgCKgCCgCikD7EFCy1j68NLUioAgoAoqAIqAIKALHFQEla8cVbq1MEVAEFAFFQBFQBBSB9iGgZK19eGlqRUARUAQUAUVAEVAEjisCStaOK9xamSKgCCgCioAioAgoAu1DQMla+/DS1IqAIqAIKAKKgCKgCBxXBJSsHVe4tTJFQBFQBBQBRUARUATah4CStfbhpakVAUVAEVAEFAFFQBE4rggoWTuucGtlioAioAgoAoqAIqAItA8BJWvtw0tTKwKKgCKgCCgCioAicFwRULJ2XOHWyhQBRUARUAQUAUVAEWgfAkrW2oeXplYEFAFFQBFQBBQBReC4IqBk7bjCrZUpAoqAIqAIKAKKgCLQPgSUrLUPL02tCCgCioAioAgoAorAcUVAydpxhVsrUwQUAUVAEVAEFAFFoH0IKFlrH16aWhFQBBQBRUARUAQUgeOKgJK14wq3VqYIKAKKgCKgCCgCikD7EFCy1j68NPUxQ8CDktwrtdDUuFjKgzju+Tk1LuWx3ioCioAioAgoAp0UAX8nbZc2K+sRIPlKBv5qsDQsNT4Za4md/rZIIqZ3ioAioAgoAp8WBJSsfVp6OsvaGffEjV5NUrkZ4iQ9Ah+paXPBJU6Nc8/0qggoAoqAIqAIdE4ElKx1zn7N+lbFDSnzgLBZ4kUaZrgarpaSxcWLR7HEcxurZC3rO1YFVAQUAUVAETjmCChZO+aQaoFtQcAf94F/BcQreeLz5OE+R/yeQvF4AhKPR/Cql3jsiNR5y1AcDaQkaniR0cXVHNoWjDWNIqAIKAKKQOdAQMla5+jHrGkFrZY+vDl9WRSSxbxR8TMuBmImXSQQ7yk53vES8PcHUStEXBBaNL94vT3F4+1i2hKXCDJWSEN0n4SiOyQaOyiRaJmEPLj31sA6GkrQN9ZEMteUwDHeaeJMkfqmCCgCioAioAh0SAQ8xV2764zWIbsuO4X2gjjFPF7QJBowqQUT8Ue6S553kuT4+kvQ2wvXoeL39QUxgyYNVM1RO6+nINEoDknSPOaPSDReK5F4jYSj5VLbsETqo+9JyHtAop46vBqQDnWpti2BnV4UAUVAEVAEOhsCqlnrbD16wtuTIGrQpPkkIP5YT8n3T5K8wBQJQHMW8HaHubMHtGgFIGnBhLQkZ7BwemAaJUEzL6cpCxjTqFeggfN0RZ6weCJIF10podgBWEQrQOvqEa9BEVAEFAFFQBHonAgoWeuc/XoCW0U9WdyYNoMgV7m+CVLknyc5/uEwdUKT5qWPWm6jfPG4I2egaHFq09KDJWEwkXpyxOsDwYOGzuvrJr4w8oU3GM1bzGjX0vPpJ0VAEVAEFAFFoLMgoGbQztKTWdKOuAf+afBNy4mNkW45c6QgcKr4fL3hUeYHicNvA5hIadqMIcbqzkDHPCB48ZjRp5nnri2Io0mV6UkB+S/KnFiQEI9XSm14rVQ3LJUj0eekwVuOXE4b5wrQqyKgCCgCioAi0PERULLW8fvwhLXAC/LkXPupTYviX160j+T7zpCCIEyf/nHGN41kq3mAnxlWfppgiFoUJTiyldC2YdGBx+R18UydqJEkjuQtHpLK+lekPHwvCFspymBeG9SPzSGhV0VAEVAEFIGOjICaQTty751g2akL4+pP6skYgvFi6Zlzq+QEQNK8XY0GTOJhPGnuUeYBEcPeHCafpWbQoiXKwXpSxIOMgaj5GgmcSWriqW3zmrzcWNcrJblnQ9NWIYcbXpQICFvUcwSSZSKIrgy9KgKKgCKgCCgCHQcBJWsdp6+yT1LDwagPA6WK50qBdxYWEkyANq07ZHUEjVTM3ac0wWjTYiB1YWjhvNCQYV+1xGN3DUdDEo4UIZYLEViGe+KupGp4AuJXGJyFMg5LbfQDaYjtNKQtVcuGZBoUAUVAEVAEFIEOiYCStQ7ZbdkhtKVMWEyADW1zpKd0CZyJvdMGQDhozLBYgIbRlv3ISKUiMrrvUBk7qhApoZ9zfMxDEueVCCJeXbRHqsPYU83xMzY97QMNsHEsYBgrhfFq8YSxerSBur5KlBliag2KgCKgCCgCikCHRkDJWofuvhMvPA8UyIkPlZKcM0DW5kIgGEeNnxmZV8vDy+MJwh8tLrvLt0i3Qz2lR88QyBpMpnHmiUpdLCrrPtgnNeGeKC8nraHOg41G0DgWJxiTKFaEFvgnStBThA13B4C05cgReTctn35QBBQBRUARUAQ6IgItz6YdsTUq83FAgCoup+aKSU50kHQJngKidr6pO258yRydalmcGBYGMJTV1klpaY706BGFSTMGf7PEyk+YVXft49pPbvNhfdtMhpQ36tRI+EygWRXmUL9voBR6SyQHe7lF68uk1rsVj1m2lSlzSSmF6q0ioAgoAoqAIpBlCHz0rJplAqs42YOABxqvfO9cbHo7Do5jboPbtslnvc2YFjTKy41vmZ/D0WesnF6YQb1mxSfTtDEYjR785zw40iowCiTyPOzpxlMR/KB7duuPNpakyRQBRUARUAQUgaxBQMla1nRFxxMkEO8l+cEJEsAxUtxDjZqu9gUSsqCEwh6prglLdXWD1NbSP41HUFEXlmFhQqsVUG9GGZAbJK0gMAkrVPtA+5aD2MTxVa3m14eKgCKgCCgCikD2IaBkLfv6pMNIlOPpL7n+0VgMgAPYcbRUu8kaNGdxHDHVEI7K4cpaELaQ1NRZsmb80Vowf7YMEMlagrCBBOb4RuBM0kE4RB4nH2DRAs8r1aAIKAKKgCKgCHQ0BNRnraP1WBbJm+cbLz5vN0PULElqB/d3Jk6sGg3441JY4JHcvBzx55D0QQsWS+y11q72pgxn7tGGY63y/Sfh4PdSCccPolRq7Nqr/WuXAJpYEVAEFAFFQBE45gi0Y3Y95nVrgR0KAR4QxQCygxu/dMXR6oNAf5wmi0SpHZorLkTAi+QpipWfsVjA5I6aLT8aq2GFHzvQ8Jnnn4XVoWPEEy2CrIxpHuLUupmXbYHZQoS+c4izMSR42FzECzmx+pQrUI2pFdITEy6M4PH19h4GYSS3Bly2zt7xGC5bB+OYknnsSxL1x3D1YnmtF2m9Xiy0QH12g+BUORDVGFw8r6gzsdjCahDdooqmpuSmnxsLa8fNiSe8Hi9xBLqmL6zovE/93FqDUtMm87Bdn1TbPqlyW2tlR3qm+HSk3lJZjz8CnDU0KAJtQMANFUz20Hr54/3ED381j9mwFtnNKtA2FJMhSSwWkfpQnUSjURAU0p5jE7ilhxcrQ4O+PtgLrgTUqCFjwfZYKraPNZNA4Rgtr12SgNnfrnvw+lCGPZ3UtpVpSaZIlJjXkSASOpZEKoYr9zbhClde6IvHK57w5AdLtUAKE/m9wNIbh68e08VweL3RLvIkBh7LlVoH63L1UgPJFwO3J/ZLvBZpQ1xFy3SU09Zk71nOxw8kNnGQQv6z5bEs3h+/QBnqaupRLaTAKwTTeSwKTBOf2yIJ0zKwrJrqWtx9sm0I1TVILJL5x4IR5Ji+fbJtOaaiJgqrh6+qBkVAEWgZgaP7y91yufqk0yFATQYnN6vNCIAEebxF+OyG0MebIDjpBwM5UtSlK7bdgHbu4xXTIto8QN4POX3QBFry0lJSkDPs8VZc2FeG9j5VRvQ5TUb3mS+j8BrRex5ep8OkijZHSNggJLRgVi9oNTwUnP8sHrwD8aRmjiQ2mmPIFymViWM8iRT89ZgPNBCaP7+UFIyS4b1tfX27TkRcN5sOaSwwzOeCJWLsD0vGqMMDGWgIyLy5V8jkMedI1Jy4xedMa/vJAxLaltC9pEQGDRzYLGkMWtCcYI4MHTJUovA1tFqppEaLn21celYXdyz8BhsawvKFL3xeunQpkvraernm2msAM9vFttrQkhzuOa8Bv19mzZwln/kM8Jo8BcQeRBmvTMHJn/osNY73OTlBrELGQhvckzzyxRANR+ScBWfLkKFDQChbx9+Vyau7N4W08S2WsXw7fpqWl1qHe+aubawuISPGu6k3iX/T/K2Vm5+fL1+65UsSBk6p6bzQnloS3jpmybpc/e5qn1A2i4uNZx2p9STz650ikL0IpDj5ZK+QKll2IOD+BNLc5vOVwFzHzWqdVsc9bZ+s+LOJI6UapLLqsBR3h6ESZCDgPXbD0uiaPIWgbN1wnkHmidhKjAkHc8IpsxbI8D6Xig/qsbxoEEdYxSQCzVgw6JNHX/2hbN/7vkRw3qn544+J3R5Fz8kEVCkM+uaHYRimXDAtxIAkgdydMvNc2bFzo+wv2wJCiHoMWfOjrTH41YE0eHNk7uxzZMywy6Qg2gNpohL2VsriVc/I4rV/AdbUGkF2pDUTTaIdZoI0hJAt4EPUH8uXEf1mS1mgXlZseRGx7Bf2kW17PMazWhP3eEYZWabTNOEhSF4E5GWyXHX1NXLLLV9EDMpOBKa96abPSs9eveSf/+mfseLW9lUEBMoXMHQ0MXG7PNAbAqdYLDFRppTlyuQ1XQamhYkZkzWDy2s+4I1UeNy4cbLw2WckAllHjBgBrSzGZMDViTRGc2bJc2rbXBnsvzvuvFOqKqvk/ffflyuvuFJmzJgpv7nvPvH6LD6UqbVA/EnOeY1GYvLVb/6jrF27VhY+84yMHDVSBg8eLK+9/hrGUFwGDhwkhyoqJL5zB1rmSL2TM1mLk9uIj3QOeydLpra43D7gfMmFl8gTTzyONtjvJdvJLXAsvk5e2xcmH5qYOgZS22TblpLWZCAxS8rP72scbT/1tNOk7FC5bNq40YmDq5PfXl0fJ9tivze5uTkyYcIE/PhBWWZTbFtEBJr2aSedJLV1tSj3A0RynLIN7Be+XPk2vcMqebVEefLUKRIKhWTjBx/gBybHu/ubZfM5uVwpelUEshGBYzcrZmPrVKZjhgCNk/gzaf8+gjjQZ41/5PHnEK8EGaCWDX9M2xM48RbmFUmfXrkS91bAwopfwZjY0/+ctqfE1LT8w54PzVp3Cfr7Sg3/yDede5CcU7NRQvni8vKip2SJ/z0pyusnV516h2zft1LeWvkoyqmSA3W7JS+vRHr3HAxiFpd9Bz+QcPQIcnMC80uvXkOkuGiYHKneLfv2bzYawx59BsmkETfgZIV3pLb+YamsLkVy1AZRfJSnwScnz7lKJgy5WDat3yqrtv4c5s9c6dmzjxw8tDtBdCJS0nWEdCvuA01DXPbu/0AiqJdauhhIpc+XA/xGYRuVIinbexhdEoRBlW0lycPGxcES6dN7EMoKyt59m7H6FmkQgoEANJpFWImLo7kwMbpAJRX7hZqnG67/O/nDHx9EXZbAjBw5SiZNmiy7du1EHOpACON4r+KSblJYWCgHDx4AcQFBIwtFoLzRcFgKuxRK9+7dZfee3YkJ15ZnEuGNBICyRkB4A8EEAYTmrqSkGAtP8mT//v0mqaszZjRpLjd8KEEUSVb8II+hEM3dtqPz8/OkpoZmzvTQtWtXmTB+gnzu5s9JTVW1vPPOYunbt2+j3EztiFEwGATGPqmvx/m1lkWZwhxRyy8okAaQgd/97reGFJC09u7TR8ZPmChvLXpLQvUNBl/KHIEptFePHnLo0KEEcUjHge0L1QGvogLp1bMn8DwodXX14sOPAAZjSkUaRyhNZOKNck6dOlX+9uQTJp0fONbXNKBvioWaUlMWNqH2BwOmHSTY/Lbm5edi+x2/VB/BcW3AkL6S+fkFUlV1RPx+fE70PTHtXtLdpCkrwzhG8EKWGNKMGz9etm7dLFs2f5gYSyTbXnwnesuRI1WGFAdQLwe+IXsgTf369pfKSjsWTWGJN0uezF8bGTlyJPJWyuYPNyEfxxNKABR9evc2JK70YJnkgOwxUINZ3L3YjOl9+/aZH0MeyDZs6DCT9kOUwfqpHebXY9CAQVJx+DD6osJoRVP71hSob4pAFiGgZC2LOiObReEfdfpfcQomSfN7C3Hnhg8mHE7cmGzbGuKYAExqEL9wfZ0cLN8FjRRWcOZ4QXi64Q89V26mT2RtLTuZzub3krB5YAaldipDoBz0E8NUgEkXf7xD5VIbxlFXOF+0Mr5XdpeuFl9+Dcyip8nZc78JTVieIVoVFaXy+NvfwR/8AzJnxmdk2qgLpaG+GueUdpfNZS/K5k0b5aL518F/rJ9MHnyZjB4+XP7y9I+lqm4H5z3UFpHuXSbI5KFnS9nucnlh2b+CrFbhmU92Yw4zEzLI2KzRfy9zJl8BeCEpmlB7pFKeWXyP7K/ZJF3zBslFp98qPYumSbRhv8SnFCOfT8o86wyZ6lU4Vi4+41+kIDcfVYalocErz7z1Y5CflTJxxLkyd8bfyZ+f+YGUHlnTiAzmWEzSAXnjjTdk2rRp8t6y9+SDDzZgAs8HebtBfn3fvXLeueeZSZdmqgsuvEDOOvNMTMokkB7Zs2cPJu4t8tRTT8tXbr1VysvKZMqUKTARBnBSRU+5+wffl/0H9qOM82Xfvr2ycsVK01aaVz9703Xyvw88YHr+mmuvlZOgWampqcEefNWGBLzy6iuyYuXKRlndDYnehIkTZcb0GXL/A78xY4eyff1r35Af3vNDk4yyUdPE8RsC8WKZfXr1kW21WxGPo89AJM0s7grFlaa56dOny9Chw+Shhx4yZk4+ptaP5CEK8nX7N2+X39z/azlj/lny4RYQAnTT1VddLd26Fcu//su/yU//8yemxPHjxssF518gxcXFICmV8j8//x+pqyWR5LfKhgjqmzP3ZLnyyqukEkSCJG3pu0tBdrvIgw8+KHdBG/jU00/Jjh07UH9MBg8ZKhNBOleuWiG3fuU2GdB/gHz/e3fLH/7woGzeslkuueQSmTdvnsGwAKTyqaeflkVvvWVq/NrXvy7bUc6sWViEA6L3wosvyF703eWXX2GIN8npT3/6E2ypUw2y6peb//5mGTJ0qNTX4fsKEtkL2tX7//d+lD8f5uSZMgWm5JNOmiH/9V8/NW2/7dbbOIgNEXp36bvyyMOPoD1eaBkHyle+fKvU4XvPcbYO2khqSFO/7yS4l156qcxH2QSa4+AnkIWE/9av3GpcJkj+Vq1aJX9++M+GqJ1z7gKZd9o8Q8w41v7nf/5bTj99npxzzgIzVon/f/3Pf8G8P0i+gjKOVFVJAUjp8y88L2+++ab9vrmO0KsikGUIuNk2y8RScT4tCHCaKsjvKv37eKUhUgXHfhJC/vKluY6vYxFI0qzBsq2lxbE6lcyImgYS0bz8Ypk/50uyc+8yeWnJI9BiBeTCs++QM2fcJk++8mMZOWSq7Ni1XxYu+p707tEHGoFBsqN0qTz6ZqlcMvc7snnnYnl/02MgavssSUXp1JL0GzTWaIQ2bF6ESYlaOpBGgOKFlo/m1H59Jsnck66TDTuekNfffVzyC4Ny6fx/lLPnfF1+/9QdMuukC0H4hsgTr35H9pavkLkTbpKpE88EmQSGsaCcNxOTYvVBeey530pD9BDI452yYPaX5P+e/AfZCRL6ztrfSnVoZyMsJDQu1IBI3P2Du+X2f7xdvv6Nb5gJlsTtALRchvjQTAUyNx9k4M5v34kJMyq5Bbnyv7/+X2gWrSZsQP/+0IZE5e67v49meeSyyy+XBZg8f/3r+6QnNEzVJHjsHlBJH7RiPXv1NBPvBZdcDGLXQ+741rcwkcdk2PAhIEQPyKJFwKmVQO1SHJo9D5bkUrtXAG0fNW4kY0ajAxmogRkNYhcMBOXGG2+EOfdfJJiLBR1IR9M05XSBmqUVK1bIggXnQuMFzRr8D6+/4TpZt26trF2zVvIL8s342LVzrwThs5aXky9vvvU6tD8emTblJPnlr34BkmlNwUOHDpUf/ugHRntIEnXDdTegTfcZLF19+YV5cv3118u//tu/SVXFYcnBdjY//ME9sm37dkPOiqEhy8vNM8mpO8zNgVYVWrxNj26S73z/3+Qfv/EtpL8b2iMBUTlN5s/8YnMAAEAASURBVJ4yV/7lO/8iYSxw8EHTdvd375adMMVu27IdpuTxsvS9pXLXP90lubkgN//1S/kQPzB++KMfQvsagnw3yhzkf+KJJ+QbIHYkmLd/63ZT9zRo8H50z4+MNvHB3z9otLQkh2+98abkQlP33e9+X376kx/Lug1roCkNyFdv+4bMnz9fFr39pnzta1+XH//Hf8ievftA1jxy661fRRrqgi3u7Kec3KA888zT0KrmymGYj19++WXTpju+dYf86U9/lLXrUC4I2a23/oOct+A8I+PUKVPlzn++A98gP0hdCcr2y6OP/9WQ/JraGnnl5ZdArkXOxQ+N++//DUyrm0z5Y8aOVaLmBqBesxYB82cya6VTwT4VCNSFaqSs/AAmiDpM2ZyCQDQMpUlOmh8PCOZ3ZbBcd9+W0vjVwMpKTHqceLuX9IZ/Vi8pyOspZ82+UmZNOx9/4OEJBxNT3BOS/TCJDh5SIued8lkpKhgoy5Yvx+QSk937tmCSjUrFkVJok7ajMBRo5CChoOnOmmW4ItaQQ6NTwq1J45XBg0bDlHVE3lr6N6lrKJeyqt2yfvNi6VLQWwpze0ufHoNl1+5tsufgOlDbGlm8YiHq2g2C1CBFRcXSq/sYaEXy5ZRpF8n82VdLXqAL8naRwq5dgPkeeXfFi1LfAG1ehkBCtn/fflkOn64f3XMPHPq7yFNPPmlS0izIPUpOg6/SY48/Rq5ltED1WKX5IiZFEiQGkiRqbMxEjPLeW77MaEciaK8hUMhIfmhMimQYKCeQ45fzzj/faDy8wCgnL2i0XosXLzIaLVNwC2+GbCYIJyd9ZzY0pq9Enl59esl1114nt/7DV2T1mtVyF4hmEKSHC1w48ftRpwuUq+YINHsglWPGjZGuxV2MtuZq+PNxae8pIDPL0ddRsAD6hlnzLPoUWj3WHwFxpLmbJPDZZ5+VSAPMvDCTboa5sDdMeRxfLtCcPHvmbJCKV+RQ6SFDXrmA4ve//z+YmhuQzBJOl55XR3B8tA2iLJol+Y+aw5nQdt37m18bEk0iTDJNLdKFF1woxJ8aT5JvmkAjDVE5AG0nfezYB36cs7ty1Upo6vpL126FMmfOKejH5w0poxZu3bp1RoPqwTjwwcePuFPLyP6ido/m6+kzZsh1198oV199vTFVzpw5Q0aNGm1MwAf2H4DGLWA0dk9DU0itcfpkZE29xJGYelBH/wH9ZMiQITD1TgOhvVGuuvIaIw81n/QtrYcp+kufv0VGjx1jtLwHDxwEcYOGHrKxL/j9ormcfnU33XiTwSc3N1fWrFqdCqneKwJZiUD69yMrRVShOjcC0FoF86WkuIcxiViSZqYl80f2qNqOP9IoBEVwRiQZakcw6h4ons0eG/ilHyyAqRQTOsy/AV8xtgMpltJDe+XD7e9jbgvJa4sel+Wrn4dZbYIsOP1zctGZ12HixAa/ZgsQ0k8sOPBDDpI1UzYmD/wvOwRNG8y/fXoNhNaGvkQ0BnHyw+QLs21OsBATax1MO+WYQWHGjNfLkdpSpMAJDf6uqAPHdTXUQiNZK1EshAiFqqChrEHR9FXjAgnI7cvF9F0gARxufwQLOTZvXQVzKLa+oDwok+bRTIHIcXXjwoVPGzPcA799AKKDCoCIcfLzYkKnn5oxUcKMRbMctVn0x2oMZpJEkxHPEIH/Ggk5TnA1GjfGce0B89JXkRMrzb8FMLnWwbHcBfq+HSqHn5fpTxfb/Jp8jgma3d4kcPIfNxb+Vdu2SWVFFUxzfzX+cF/8wpekV+9ehnxGkSYZsFoZZJGE9XyYME899VTj30aft+EjRpr0y0FAqdFrLVBrF45gEQbxS5A6El622wWaVrvCdFoF85wPeBFjYl0KUmUIC1AzpnAzrC2eNOsabSDS858LzMfyaepzgSbVyqpKmCi7YRz7MU7QF6wjgSnv2T82eOAS0GCeUTNG+UP1IfOZyenvVlZaZpMiH/PafzH4deYZc+qWzZtl9+5dsn3bVnnrrTfh+/hHaAXzrb8e28eOR6D5nPktEoxzL/PYtIODhJhXQMu2BRq8nTu2ow+3yhKYVzku82BC/xW0mDsQ/5Vbviz//u//T/IK8/HdSLSH5Zv64vLGm69Dlj/IueedJz//2c+xsARkD9pWh4OtVd8VgexCALORBkXgRCIQl9pQrVTBDys33/5CpxbEZwhNUsPxsSQECYLDGCaFahCDw+A+mGyE+499dIibvJz88MJPmvJDpRKCabasZoMseu9xqcVCgQGDR2C/r8PQBBXBX2eGrP1gkSxe/xeZOfxzMmv26VJU+KIcrt0mUThsBwO5mHSCmDDCLM6EGNq4/8AG2Xdgj4wbcbrsqVtrzKWcrLp0KQZZCWFBwG6ZMrCfTJk4T95f+4aUFJXI2GEXyJFwqZTCZ62saj80DtOlaMNAqajcJGPHnY3FCGOkqmyH1FQegrYBJC9WKe+tekhKKzZJt95DpSiYB21aLbQdXaS4GxYylG7HXEjNTXowkxcIBB32v/3tuzChJokFU1JrtWHDBqPpWLd2nZ2wQapOnjXbmNfSS0v5ZOdoaFLDxoTHRQXkcgXFBYaUNMDBnqsqhw8fiUl/nyGAAZjpqKl5990lKQWRBDo0bTT9ski2SGoC0NwYM2VKDg6risMV0h8aI6ahVuh3v/2dXH3N1fL//v0/5Gc//5lpbxAExQaQR8hGs+dnb7pJxo4ZIz/44d2yBT551M6UlPQQOtub4YoMiaal1Nj2W+K9YsVyueyyK+SlF18CufeCPEXl9NNONyY/Pg8DM/oO8jsSrg/Dmb6LaUdqLWEQZz+IGv3KqPl7Gr6DbCfJ16SJk+T9Fe83kufUfOjAtI/mA+qsqqwBwSqX/gMHyKYNWO2JzioqLpJRY0ZjENgxQdlIt2IwWdMfsQjEau261XLocJXRVOaDwFEzu3fvHvTrcGOapEwRLNQZO3acaR/JXnIxAwk8NewghjCjc4zs2rXT5Ht/5fsSqsWiDYzHXBDpkuIS/O3Ig6YuR55d+BxMpi/J3FNPk0svvlQegP+jCzTH+3wBo9mln+SHMIP2G9hXfnj3j2Q9xnEdfPE0KALZioCStWztmSyUy0MtE/5jfZ/URjdKMWWEdgWzhdEOUVuS4c995pZw4jczHPangu9QXm4hJuU6bCjLP9gshZOA/WOduYDmsSQ/3BqD0wbL5uHykegeOdKwRKoji+CzY09JaJ6zaQx1FHD/98KHzgNfH2gVDh/aJUvX/EZmTfo7GdbrVJi3wph8SmTJpgfkvdWvydD+M7Ci8zNyaN8B6VECAlS2VqprDwKbqBwCqZo24ioZOXi4PPosnMqjB7ijB2SFtiWvVF58/xdy9inXyNlTbpMzJt6OSahecgoisnzNi7Jo6QOyud+LMmfKV2XysM9JQU4eTFR58tzy70E7cliWrX1czp3fS24497+lpvYQCBjICgqP+WokCgfuN1f8DObPW+Ty878HR3Fsj9JtgGzb/5LsemG9TBozX06d/ffyp8e+LQdq1hsQqOGAZEZbQ62NCy6e2hBD4vCACxmeh2nsjtvvkLMXnANfqJ3w05oqffv1NcSNKBqNCyZ0k8f4I7Jr0Dd4LVnyjnwLPki7du82TuuXX3a5vPzKK+i9uDwIB3n6JwEmaL72CZ3YOdlSs+cGmeMW1Pqwru3w6+rXr5+cMncOnPMroQk73xAbkkySAMpAjSVNeGedeZbc/PnPy2KsAqUpbMCAASaeMtDJfseOnUbDZ9vvMSbD9evXGz+ofXsOQKaDcs0118Ix/Q1DgogZzbqO8FTDdMotRcaPHysbN3DbiWSwWAK/hNzuCTWKO7bvNKTjczf/vbz99iKQw7Fy8sknC+tmvqeeelKuvfZ6Q9oCcM7/zGeulHux4CPgDWCsR4ymkwsGVq1ZBbPrQuM7xrG6dcsWrNicIAMHDZKH/vwQCCi2s0Z+/igy5mh0NeVh7/NqzY/AG5+jMM/+6t5fyU033CSPPvaoWfF65llnWS0cxzHIW2lpqcyaMRsar134gbEXpGkhfBxvk5deetGQZ2qxuOL2jdffkOVL35Ovf/Vr8hJIFcnmefAHJAllcNiYexD/8vJymTptmmzbuhUrTbeZPHfd+U9C02moISSXXHQJzNDLZCnMud/8xjeNSf4AViSPgNaTebhQiZpe+lZu3LQJWr7tMKHeAI3fblm8+G0ZMmiYuQ+Hm/9YMQLpmyKQJQh4irt25/dTgyLwEQjwz7YNNNTlxAfJ4IL/xCTRE3/gSW1oFoPaImWCd+lbupJcxWM1MqH/SGipyuGbBD8mKNM82MfMBxPiS69uk7rYoDaX2ZysBaQu/LaU1v4N23Ysxt5ldYlVny1JlIz34I/86EGzpbxiDzRSuzGDYfsELFLoUTxCBg4YZiZ/ar32l64HGtgoFr5go0dOgemxyJh1Nm55F6TLEr3c3BKQCGi7juyD4/02EA5LQkmFQHMNbrGGuAwbOEl6dx9iTkAoP7xftu3YgIWhMGNhocDgAeNhKh0AYhCBs/k6qazdB00htl7AatHcYBcZP2KO8d/Zsm0dFkMUSh20lYcqtoMrcnFEdxk5YhIm5wLElcvWnUsBchgEuZsMGQIysWklyJk1OToixm0j/HDg3pNhhSRNftxSYeWKVdgGgqbaXLM6lCbRNWvXGIdwmu22wol9yrTJshE+QvTpYsjD6ruh2H9s2fIVyBeQfv37GR8waoJIolZgVaPx/cI4KoZJkKtOWd+7SyEzyAq1WKXlZWbV55rVq+FLVitTpk6SNavXwF/KazR158LvrBZakrdApG6BSew73/03tNcSRyME3rg32FyYNEeNGmW25HgHxPHDTR9CS9kfuOQaAsm0xIMEguSFz7hq8QD8+BjH7Sr2QFPErSkY6I/FbSYOQKNFljNn9hxj+ly8+B1ok4YZE55NC81UURcZAyK2FGY8k9iUkKyPvoDccmIzTInvLl0CP7CBMP9twTgUGYzVjLNPnmOI1NsgHDQ1Wo0UZIKWavDgIfLc88+CtMfMogcu6OiJ/qSsr776qtFekhBPm3qSLF+2rJGUcq+zXbt2mYUEQAi455i94jZh0QG/1uyreafPM2SOvm39sNUJCVAtnPdJNM+cfxY+bzTEkG0ahb3mZs0+2fzYeeOtN2Tb5q3GD4++bVzdOWnSJIPVYvgiDh82QqgxI+lOBvwsRBvOPvssaH9LZTV9y9D+IWgfF05wgQHNqxvRb9SEFhd3kzPmnynUrq7fsB5k7B2Qa/6NEVmAlaK70TZqgANYCDJv3jwZNGiwlKKvnnsOvoQYn6lavaQMeqcIZAcCStayox+yXwr+DW2k9dBZ4fimIfn/Dd+tIfjzyl/kpGxpiT6yTSRXArI2us9QGTzsMDabxX4VAa/k44+pH8ToxVe3SH18COrFX9s2hKZkjVvWHq5/Qg7VPyd1PhASblTbwvYdTYs325REsH8Tfc5AruDNA6LnhxYC2jkQEfq/UMnj83PLAZIvaCPCmNihacQ8jokEb7xBG6EggHmIGimueARWpj2ItBQXV4tdPMxn+AjtD01KsNiYes0MBRZLq5DRSiF/HPXarVRAlGmKgr8bbjCRsg/wwtWbIIVxbAVCqy4kxjM8DVCLYSqC1gQygXBRltRAGSkmJ+FMgSZQOpPbEIcPHORBGRwLfmhmqG2hVoO+QCRRlMkRH26627hvGBpMUx8DNZjc2sHIj3fKQPOXbQ7bRXlsOTS3ufpJpDiUSC6o1SPh4CKBiy642BCLh/+CjYXhe5cerMwujr5kPqweJC4kYqkTt5Ob9bCD2B6Od/aVQRuEjndODpeX235wcQHlJF7EhM9YHs2YcQwM1wYnh7syL1cD+zEWKLvTDrrnxJWB4yG1j5yMri6mYdoIymLfBM0edpSXBBR939iHSMc+RX9TPgYjI67mRxiubHMMfcWRwr4yZmQ47LNNlM+daGHbxP31YL7koEXgRteuHcSKMnGzYDNWgCfL5XNXN/M4LRuxoCbQyUosIxzzCMzv+oPl2rGEdkGmJLYkfWi/KcNiyfETdd/hZmPDFK1vikBWIdD0L1hWCafCZA8CdiK28nCPNHiaYSuICvjGDDTO4vbPOwlA+wJz0JwT8IOgeXLh35Usg5PD0YQY9xXDPmlRqUJJbSdqtk7U7YNpBASLpIiO/5i2cI/Jx49JzRA0UhxMgZzceUe+RIIEQhjDy0xiyMUTC7xBECSQJswPCHayJIokuHxnW70BTNAsn3kT8awTEbiAFCawIekypyCwHvOMsuJ8BrIHs18cy3cvEg/kJXlkWgQ7zbFcEMKgjTMPUt4MqXBcLCXe3SYnQsbApNbo4+VSoDbIk5rOTb6WFNl0xhxnyGIyn7ujDIEWnqWWCz5j8KLP0lexDURhQaEpglqen/8CmwyDUDQPmWU2JSXIisvj5E4lReyfJsnSSBPzcnGGC6nysjyDb/KxS9Z4tXmTCZg+NXBjWwYnm3uWKqOLIwnidhbpAeMW5DE1v8vr4oyMKZnY5rR6E8TOpgeZSmkvcWxar0vHIu2zZOEur6s7+SQdR8YTS2xTnJrE9D8j3DhML8cRcYeXJdDpiKYVpx8UgaxDoOk3OOsEVIGyBQH8UoUoJCec82Oeeph4NognOA4fseqRz/hrluqYdob6UL2UVRzADv05mOCgzYIZ9FiEULRMaqLLpMGzH7JhgszMS1AVpU9/yLQJFz022raPBI1JTVqSNN5RC0ZkLOXyx3hvEiGG/2zmODRyFIC0DDMkCyFVwruNI3EjcvE4VhWadCjDJLNpmZ7swH7iOwkda2I6lAPcKQukwou9BFkRbG+wHqZmPl7tM9wkgnvmPnesq2kzsKGJ8c677oSfWh60QnH48GFHfoMH29e5QjoZOX5tc/WmasCOX+0fXZOT76NTagpFoGMhoGStY/XXCZOW5MVO/CQXmPbx+VDkZcmPzIYptB+0PgUwjdIDq/2BO9f3KO6Nn9BHEloqECD4Ytma2lae0TwYwgLZMHHjt7TUhBfDmX8LZKsVH5hXy7KRxDQNID0mmq1NTvaMMwQpEZekT6nyppdny0FcenRjhZau2TpMeSZdhsSISkrSmD1xQ5LGPDTZsqpUvUFqWbx3z1zbUp8niutgF07SHAM0CVdX1xjpSdQ0fDIIKCn6ZHDVUhWBlhDQv2YtIaPxH4lAg2+bVDW8BHPoFqTFRNnEVPORBSQShLDnV2VVBTR18HuinbBlRtJikdxqg3SF/jXUeMViFXIkAidrLCqweiRql1qmay0WrA8UAUVAEVAEFIETjICStRPcAR25+ji2tagNb5T66E6QoyqQpY8znOKSn9dFenTvhdWMdmNROi63PyQZHv25asMrsZJ0J7RsVmtk35Np2l++5lAEFAFFQBFQBE4MAh9ndj0xkmqtWYhAVBpkp9RHNmN1Fs+CtJSofYLC1wj7fx0o3Yt9k7CrPsPH4lTWOEkZovFa7K22VKI+7qTvyBqvH6tgSqRBEVAEFAFFQBE4YQgoWTth0HeCiuHYHvXtMxvOVjY8gr2KsFt+u0NcCvMKpVePvljJlWuolTuGpl1F0fzpycFy/HKpql8iNbGXjdUzoVhrV1GaWBFQBBQBRUARyCYEdIFBNvVGB5OFqyW5+3nYt1cOwwwqDX2ke97NMIZCi2VWPLasaaOhk+sf6edWgU01S8sqJBSvMXtd9SopMuViq1kkam4SdcsYqEuz/1hdRMLRXXI4hIPMG16WUADnSGJfNA2KgCKgCCgCikBHR0Bns47egydUfrr0W9IVjlfJ4chTUtAwBTvqT4eWi9tI8NBuJmhOuHhMld1igjvw50u/3j6pN3thcG0k8kU4NDMrfnmAuC2TpYPy4fileHSHHAw9INXhNRL278N56cirVk+ir0ERUAQUAUWggyOQeTbs4I1S8Y8PAuRC9mVZUUQqsDr0RQlFNmLBQRm0XQ14ZSBqzMcd1bndAgjZnkN7pK6WqzjzoKrDdpfxAhxzVAs/OLvxZ7PWJLZpsBuFwkcNdVWEnoU5dh3O8zxMfR0q0KHdDDeNUAQUAUVAEeiQCPjycvO/2yElV6GzAgFL0yxl45FMUWxE6413w3E0AdCwXJAmati4bUZ6cFo1krVwrMGc+di1IBf58mT7jjJZgd3nPZ7eeGVS/totOkgGI1hMUB/+UMpDf5SIbw+OlOKBzNzh3xLJ9Fr1kyKgCCgCioAi0PEQ0LNBO16fZY3E1F1ZLVZiQ1jDkHDGX6xI8r1jpMA3Rbr45+IA8REZLJLUuNG7jawK1A3EyyMhkDU/yBu3dIWGzZyzmUEzh4UE8XglDmlfL9UNy6FRe11q/VsbTZ/mzExz7FLLPnNZA6IKoggoAoqAIqAIfAQCStY+AiB93H4EeG4mNWZeLBAIesZKN9+ZOOWgPw5z7oGDl4txuHYPU2jSn41mSxywjGOrsFwBz/CECxRoyoQZlYcy2wwweSJdXcMSqQw/LfWxzUi9F/q8Ojxurr2zmfRdEVAEFAFFQBHo2AgoWevY/Zd10lO5xuABySLF4hmCXimWQKy35OBYqlzvIMkNzJZ832g8hI+aScUcdrFCs3MrscozBo1bLF6NrUEqsKfbehxz9YjUeXaDz6WecalaNKKoQRFQBBQBRaDzIZDJIajztVJbdJwRoFaM23pY0haTStxHJBKpkgbvQWjEKiXqL5WAry9WjeaDpuUa3zSPBz5uDEgLHRpuItIQ24ctOfbgdVBCsQM4kmq3hHz78Ry+aSSGcVBCEEIq4zQoAoqAIqAIKAKdEQEla52xV094m+KWOxkyRfNkFGd0grBJDehXuYSi+yQaPiQB/1Dxe7rAzFkI0pYHq2cXpGV6bN0BHzbhSQSRD6Qh8iFKKDVliK8OZZPMkQiyAvI04/lm7vVNEVAEFAFFQBHobAioGbSz9WhWtIdaMRKphK+ZVYGlSMbn9E0L4gm25zCb18LHjVt1xPHyWK2aeGvho1aLlZ0wkRq/NS+29fBhBSiy4mgCnk7AGjIsQUCsBkVAEVAEFAFFoHMgoJq1ztGPWdaKps7+TW2UfM5XDDoxkDaPXVQQZZQ7H8pozUj4YCJl9kQRUadFS3xWogZsNCgCioAioAh0agSUrHXq7s32xjnNW4qc5pgqa95MidVbRUARUAQUAUXgU4tAhtnyU4uFNjwrEFCilhXdoEIoAoqAIqAIZA0CStaypitUEEVAEVAEFAFFQBFQBJojoGStOSYaowgoAoqAIqAIKAKKQNYgoGQta7pCBVEEFAFFQBFQBBQBRaA5AkrWmmOiMYqAIqAIKAKKgCKgCGQNAkrWsqYrPt2C8FiqpiFTXNM0+lkRUAQUAUVAEejsCHgzTYgah+2+2kgeNN2xwSputuywXzeHaaa41C+kS6dxqQgcm/5ILVFxVkw5HnQcKAY6DuxfxhPxXVDNmsVe3xUBRUARUAQUAUVAEchKBDwl3Xo03V4+KwVVoTo7As4M6o6q4me+dHh29p7X9ikCioAioAi0joCeYNA6Pvr0uCHgSJkqe48b5FqRIqAIKAKKQIdAQMlah+imji2k8z3LZOdny9xzr1GuOdLGJx6JpX5kFEJL5din+q4IKAKKgCKgCHQuBNLImps0MzUxdYLUdEmEFJckFql3qbi4eI6bZvGGjFkTqCfN7MkHfNlnrgy9KgKKgCKgCCgCnzYE0sjap63x2t7jj0CS6MdQuQ9ULCBeD4dhQPzxIlx5H8ErJHHPEYlKHe7TQ7KM9Hj9pAgoAoqAIqAIdEYE0shaM61HCy3WdJmBUVyIC0kYh5XTjOGzD9qxOK4xELN4ngTiJZIrwyTgH4ZH+SBsOdC4FUiOr694vIUmrScekkj0gNTFd0hDbL9EowclFiuTcABXqcUrAvMp68vk4+a0cSYBEzUG9lFTsnci45xgTqYTKYuTwcmUOp7dM5XPmuEdHqlYZYpzz90zxU/x45g4XuNAx9/R/b3PJvx0NajrDb0eEwR8IGVxj7eRqoknCoJWKDnxsZLj6SUBvHJ8o8Tn7SFeX3dQrQAIW0KzZogaV4PCXGrexWjWwtHDEo3XgLyVSm39Iqn1bpCwdz9S1eMVEV/cK1FP3JCwVILBrfJStm9r1j5OoKnpmyXQCEVAEVAEFAFFIAsQ8GfrLz4nl8PoeP0S0Xrb/kuEfdMUrxhpVhyEC4TNE/eJL9ZNcr0TpcA/WYIgaD5PNwn6BkAhBg2aBJHaA8JG7RjSs0Bzz6slbD7JA6kLoJ5uEvMW42lY4hEQvLgfd2WgaiBy0oD0PmZqIs9Ht4Xy69g6fr/0m44XxV6x5/dWx4FioOOACLQ8DhrNoE3/iDKTxikG7RkHJi0ZF17emBf0KQ9EbbgU+edLnn8MiFohOFwuCFeexDwBjjAktS9bD33VUs2aYXz2ISYH0bkgaAXgdyeJ1xuUuohHqiMbJRprkJg/xI5iEWkh0/hNS/AJfbD1Uh5LP4+2Gi3v6BBU/BS/9iCg46U9aDVPq/g1x6Q9MS3hZ8yg9qFldK7QluOoiUhOqK7g5nFaHrHkL0YXWsYqE6aZ8maKy5Q3U1ymvJniMuXNFGfzunHi2uj1RGD2zJWc2AjJ90+TosCp4ocvms/bFUn8hpr5aCaNNyVmroT0a4xjDaZVjjgiGYXJ1AMCF43uAWFbJUdC70m1vCZhLEZIJ3rp5bhPzfsjEwZHE5fEKolNMo5yuHgni/vMZy4umS6ZN5kuGZdMlylvprhk3raWl0x3bMprXWaVz/yIafY3NhP2meIUP8XP/nB1f0v0+8u/OO7vbsf9fhjNGjs1tUPZsExxjMcTe0l7zxSXlqCVD5nyZoprpYi0R5nyZopLy9TKh0x5M8W1UkTao0x5M8WlZWrlQ6a8meJaKSLtUaa8meKYCUZPTCrONwwUClElUuA5TQpzpsL0OUH8/sEwh5KY2cCS4lxskKZBSzzMcPGatPYB/wR5TVkR8cOk2iU4H4RwunStGyp7Y/8n9d5KpMCXkXQOJlh4z2UoMRmVaYwffVx6+fzUVOnXtA5+tunS5bXpzCPzlkyXjONd0/Jaj0vmbWt5yXSfrHxWsuRYS7YrGZeUPnmXTJeMS94l8ybTJeOS6dp6l8zb1vKS6TLV0f7yMpWSjGt/eSpfEr3U+S2JSxLT1JTuPpnOxaRek3mT6ZJxqSnbdp/M29bykuky1dD+8jKVkoxrf3kqXxK91sZfUkWWmr6Fe4LaNGicnSw/Tbgk20o/seSY8MQKpNh3o5TkXimFwVnQqPUGU0kStWS+Fu6oTWj6ypiUZI+4+1BHseTmXyrdfFdKfmSQBKPF8JPLBVHjQgUNHQkB/Vvy6ftbon2ufc6/UToOPhoDXQ3akWazLJSVVI1LBDzYliPfM126531BAt6+4vcEEUu/NOq60jUyJjLjW5L4JR9nyss4WzM1e/xUF14rVQ3PwjS6WcLxfdLgK02ksSVl+mNgn+i7IqAIKAKKgCKQ3Qg0LjDIbjFVumxFAAdCwTSJDW09xdI1Z77k+keDRtEUmUKymtoBUxrDVDH8s6tCUx60epskdYYIovzcwCSUUgWCmCu14QhWiVbiMxcoZP7F0mrx+lARUAQUAUVAEcgiBJSsZVFndExRvDh5YLB0Dc6RwsA8uP7DUyzhZ5ZC11ppWhz7ruWZVZ3xOLfgaBqsdq5prBgiBtKGPda4Gxu3/8gPzDSkkXu5xcNeqfGua55NYxQBRUARUAQUgQ6GgJK1DtZhJ15cUrAEDcNGtP5IP5C0k6Vr4DIcG5XXSNRS5eSKTrtQwOrb4iB0AW+dFOVGZFC/btIVp0yFjXasCNtyxEHcolJVXSXllTVSXp4jNaEgNsWFWdWTi/JDxgDq9lWz9dB3jto8H/ZwGyK+nO7YfLePhMO/xCrRfYg3u78l3ttGIVPl13tFQBFQBBQBReBEIqBk7USi39HrxorLHDlJcn3jxePrAr5kHf+bNosrOLn5hgfasGi8TgZ188rY8b2ksAAkyxOWSCwmPl+RxCI8RiqKExBi0qV7kfSNdhFvtECqDodl5YYP5WBVSHz+QdgAhMPWEjQaUcWcgJCoFYTO68uRnOB46Ro7Uw7FH0ad9eZhHOTSbb3bVEb9rAgoAoqAIqAIZCsCvrzc/O9mq3AqV3Yj4I/3lOLA+djwdgQ2vO1qNFuZJLabaWD/NeyFNnnIUJkwrqv4cxugCwsZcoaMsmnzLinI6yGBIL3QrCk1Bm2bB/u25eX5ZWDffjiuyiullQeRHOeJgqA1LlxAvPFio2+cWbEMDzg859KD2uga0D+QNZBCpqFvnAZFQBFQBBQBRaAjIdCurTs6UsNU1k8egZz4AMkLjMOeZ71AjKDtyrC1i5MiEq+W6SPHy6gRXeBmVi4N+ByJQeOGo6lIn/aXHpFFyz6QSDiAzzheytAqH67QvGHbW/FV/H/2vgPAquL8/ry2vS+79LL0joIUARVR7F1RY41GTX75p2gSYxK7JjGJiYkaoyZqNPaCvYsNEVB6L0tvCwtsb6//z5n7LvtYFluMFGfg7X3v3infnJk7c+73fTMXvfvk4eBenUjlRPL0T3QteSkDyRq1e4bEcTVqKhc7pHo68G0KNM/y324bnrnC2aNFwCJgEbAIWAT2YQQsWduHG2dfFy3NvJA9j1q1VEO49mQGBcnVoE4F6Nw5wjcQ0IeMRMovzRd7n4crSbeTqIWDuahuKsSy5VXwRLK4qa38zETkpDXjh5Gj0UZ07+bBsJICkrwQz4uo0Qy6i/lVv4PkZVys4MlBpu9g478mLJ13kO7rqFr5LAIWAYuARcAisCsClqztiof9tQcEpMFyOotjfPTSnyzL04WeY1z/SY2aXgNlNrQVeWKQG7+7t1lWSjV690tDmNqxkCfKuCJUXDhQnY+Zs5swZW4YdaE8kqoAVmysxOZNNFvylVVer/NC+DgJHZcyIMIywvzXqWsU7XO5ECFeyTL4UneaQd0gAsetcp0P42f7xyDT2xv+GF8c75Wf2+5Bqb2U2xzjTj3dNzNIWeh+hAF/NWfAuhifOZOy+bzycs47R/2WHx5d5hhEMFkGy3GCm2fybyeepILK4Me8nstk4MZLJN/t0DK/3SLsekKmZmo34/x4+Z3rO0iUFaX1fFQPyS//v7jkYrSY5NJ5c05Jv94NiT9DYbtrXewvi0ASAnorj/txT7v3svv7f3W0ffZ/hey3N9/mWe7bi4Gt+RdAwBgbzTYZ7DKcofW6Jx/3NpPJUhO8IShcSOBQHWf1pVzIoiRXfUqKuMKzkdowvc2ABMYTQrAuF+/P3oSNlbXUskXQrSDCgbUGxVkx5OerW3LCZ3mRcBG1bumG3MkHLR6nRi4QxCGDuyHV28Q8qUXbg/yGgPC9pAFfZ77VoA3jtbY1iBKLVCVuBUOIKCJlikZFYlg066uPjLJOSBAZLrDQ+06d9O41vb9019tKvxPZMh/G4w9DcAwhUjr3o3wV3N88sgxPjOXwKILnbAGseLsSQue3zielNfkrv12Dl7hST8mrIoKUxZvITySaH5FpES/+SCTU0fmu04Zu6kh5zCdCqYLEh3Lqulfymvhu+kQ2n3FwJ9EYtaTRCIkjNanuOUFmg0XgyyKgh0X3gVHbCTmfL5vLl4/vEETeiey4TU30zbUd+MuDaFPshoBdYLAbJPbEHhEwE7hIggfpnm7cW+1YvqCdRMoQHem0FPRXs6uOHm6Um4oB/bK5WpREzTxukoCFfJg+axPqgiEUZWXi8IMGIDOzCY1N9Th0GP3M0mXCdFaJLlm+DQuWLUf7ws5c4cksvWFw8ShfM5WK2qoYqhqCXLiQMMOachnHBMkjWuFFOLYBwcg6RH1beGV37Vqz3BpgJT11R3x1Vpu8/sjPKUFmWns0NpBMknB6qHZyuEOivgaTRJHugec8JJWxCEv3ciEEyY9Mxd07jDDm3MamGgOPU66TyCUmBiJJnrioCSYvuwTt2nRHfUMt5QsyrYiM4rg56Oh+57fmr65Eux5JzmJsgxS+qqswpydyM0soXzoag/VONiJvrKQh6MrZZOjU2ongZGfeHkH5unc8FD27DUBZ+UaSULWzrhODnYI4fcZJtee/mtT81H726Nkd3bp2Q1ZWNmpqakmaw4a8KaWybPnx8oQrXYzbvviYh34LOx9Jn3ttzyU7V1xx1cJeYix5muuwe2rF/7w4u6f67898XpnJ1906fZFSFTf580XStIzjYi7S3Rp2X0YeN+/W0rR2Ljm+rguHtLRU9O3bDx07dEJTMIiGunoq2Hd9mGqZTmn3lP+ezrt5uEfhMGzYMJx15pnswzWoqKhwL33l4xct2y1gZz0SWOi82yat5eWec49uPva4byBgydq+0Q77gRS84zXtkXh4qJlJ9/QhWRvPm9/PudkZ/BL0xYnHs1EuDehcUIC2HbQaU1oxUiWSl5Urt2DdDi8yA16MH94faZk18KcEOaC2o7auguRGZM1jtvRoasjDpm11CDcGuSK0DclAPS+lkjiRzIXSULZjByfynASxSJ6WNeJywuUnEtuMUGQjIt61rEFrZE11c4IIiM+XhqPHXITRh5yHPt3HoG+P0ehRMghbtizlnm9VRrY4SYBykvYumQBqgtBEleHPR4/u/VG5o5oKwjDf7JCDM0+4hrKEsH79Uu42QiIg86gRmWRD0CYwcvJTPtTsRTno9z8Fh444BstL5yEUrWFcxXfwZCqmk/w61zxBOhO2Mm+uG3+YECXb7dCmD04c/z2MGHQ6+vcch/79RyEnz4+160uZn7SaTMlmdeRy8jCmYZODS2I8CAbDGDngfPTvPQTzl33KFncIn+oibaCTkeSSBlLpTAa7/ZHs6ekZ+P3vb8PoQ7nBMona+PHjccrJp+CTTz8lUW0wWTn1dOou2fRRcHEfNHAQtlfsIKEnafP5cc01v8K0adMUw5QtYie8WvuYjPgnNzsHN95wI9N9bLSrkjn548Zzj+4E6P7+rKPykaxuUFqnrZqP7jUd3fheo/10riSX56bdNY3bXs34uNdbj+9cFTZuSBLRPdXqUUkMprwfhHF9fSO+//3vY8f27aiqqjQku7Uy3cyU3v3oXJIIBhfVW7K47SbkFMeVr7W83TyCjWFce+216NO3L/I5Dp1/7nlYsmwJKiormMfuhM1N58qWfHTKNKUbuXTNbQddM/KRBMZ4b4nst+/QATdcdwPu++d92L59G0Ih+tgyXsuQfE7f9/Rpma7lb6VriYVzzokpWZP7UMv0Suumb3l08/b5+BDkAt8yA/v7f46ARlAbLAJfAAENVBrgNPFy7aevA2mAuo8z6GkcIr3gXwXnnHQaxfn85Q3Rv0wTJE1c5AFrNzfSP60Qw/sXIZBRg0h8BzwpNPN5q3hdWiMNCsydhKakWwA7yrtgS9VqhJtods3YznI5IHJgzM4JkNCQDKGDU2zLvzK7kth5vXy5O1esahBtNbAsJ2hD3jgmjLsCfQpPxpLFb2D9pqXctDcXwwafhxMO/zUmvfcr1DVWUwPENBEOgNzXrU1hd9TV7yChoGxe+r5F/ejZ+WiMHXUMarY/hq01UxEONeLNNx/A9tr13CuOZsgU+uGFqDHyZSAvt4Dpa9DQyMmNPniFBZ0QDNWhpnYHyWsECxdPwdoNi1FXV00el4JAgG91EBliiBHQCD/ugJqb0xYpgRRUV9M/MFJrzjt1a/5b0vYQnDj2RkSCdZjx8QeoDpWhLcmbNlPxEH+9HcJLzWBebheWE0FVdQUikSaSH9aN1Y6FYsjMKUB2ZiHKt2/lGyxSGI2+g0wjscLhGArz2iMlNQ2VVVtZ9zrW2ekbfn/ATFySxp3sZPbMzsnCH/5wOx7+94OYPXcOyXiM7R+glq0nfvPr3+CGG29AQ0M9zeIikru2o8eniciHUEMIEyYcg1Wr+H5Ymp+8bIsnn3ySbcqySQZDTRH4A7uTdRcZzd/q23Us56GH/40QNb/CNjmopzhysxdSbpWt/hpiWwaYd2skIDm9RI+RgKssyayg3z6mVX5eTojKXxtDR4hjamoAUb4+La4+k4ivCdPE9TvpHZLu3HPuZOqWEY+yTRP4KB9XXpWrdFHi6QtQC6zvjLszaHLnPeaSJbWRScu7T/n42X8VRE5ikUTbpvhN33z7rbewtZxb7LCSwj4cilLDFaA7A/vVLvVgmbzfFKTJFIapRn1uTplyQNkUwiyTGRqZoiyvNVmcVE73EH49+/Rgv43gd7/9rSm3uLgtNfiZjMCY7i3Prw5mvPepCU8OXoObNKxOnsJU55R4TxiofnHKl8Vy1q1bhyWLlvAhJA0BtqP6rvq12jrYGEKAmBgtcKIdPEy7x8C28bK91e5uG2vRldpI/SW5X6nf+PggzEHXtK3bzspb7aaHQGn9/QlslV7ypKSpHzj9LpC4FiV+Pr/zoBVqCvKeTmGcXXHao8z2wteKgCVrXyucB3pmLt2hVimeTi0XBxsSs+ZblwMHIRBpcyet9AxpyEQm1NU0qdGPgxN7ut+D4mI/x5MGar9o34zLvKmBRxgyvQ7U4Hm8NejUKRfrFtXTzMYn1hIOtjJHUvsjTUwKzasx6nN2GX2V1gQOZjz6PRk08+VzQJMddfcg/zGZKmMRH7q074c+RcdhzoonMGX2gyyfAxutpxXBRTj1sL9iaL8T8PEnb+PkCWciLTgK6WkeminbMu8wFi2fjg/n3o1hQ07A6H4/gLcxBeeOvxlz1jyPqQsfwnFjL8PsZa9j5sI3cO4JN6KhOkBTawfkZRWTGITx7sxH0KfHCHQr7k261IAZ89/C9MUPoFvfoTj0oPF46pV7Meaw0ehUcBJSWWUvF2FEfTV4d9oTWLX1dRx20E+oBRyLFG8qzbZ1eGvGv7G24i0zybsDfIzbpRwx8AeEazte+PB2bK1aYPYUXr6BkyWhSfOnoCCrKyaM+g1l62nAqqnfhI8+eRbrt71JkhzAiAE/wCEDJ/AtFLmIkLgGw9zu2LuJvm5qZy+OGnYJt1i5kNc9qK4rw5RPJ2FF+fPIz+yOC068lb6Kj2H+GsrFScq0NxvpUGrTNm3cgJkzZzmEiqRFYdmSpViwYAHOOP0M3Hv/fbj4oouxfPkyHHHEOJLJXGo7t+C5559DVWUlfvB/P8CA/v3xs5/9AnPnzMGrr72M8ePH477770f3km4YPHgIUtPSMHDAAGp9qvDgww9gyMCDMGbsWLZjGt577z18TG1agJPTuWefgz/d/ke0a98el176PU7kJDoUtn2HjvjLn2/HqjWrcPgRR+DY444zBHXjpo145JGHacpv2klwVDeRhpNOOBnPPjcJGRl8Awd76ymnnIJFixdhzdo1GDlyFI4/9jgzAW/evBmPPvYf+jk1oVPHTrjowouQmZHJPBvx3KTnsGzpMsqfguOPOwFr163FSSeehKXLluGFF18w6YWXJuaMjAxcdtkVKCwsNGTqjddfw4zpMzDhmAnsz1688/bbPHrQq1dvHDLsEDzz7NO4+mfX4NNPP8GIESNJrNIwf/58vPLaK0zPu5v1GHfkOBx55Hg+CARQWlrK+jyDWpqohzG9JvDezKtz5874xz/uIZ6H8cHkDWpdm9Ce+yNeeMGFyGFbqV6TnnsOCxcuYj0COPWU07Ft2zaMGzfOyDxz5ky89PJLqgbzDOA73zkPffv0pQx8owlNifdTS1VXX4cjxh2B8ZTFT82p2uE55ikin8whpOmqqao25FEcVOb17dT2qTxHQ2SK2fmnoKAQ57G8Zexbw4ePIIny4uOPp+L9Dz4wcVJSUnD2xLPZdwYaYjtv3jy88urLLDfIdjgBK0pX4NhjjkU6sX/j9dcxceJEdOnSBb+59jeM9wrWrFmDESOH48QTTjJtVVdXh2eeeRobN20y98zZ55yFZSuW41RqklesWIFnJj2Dk9lvwuEw5RlusHvssUfRtl07HH3U0cjJycFU9tXJ77xt6p2eno7vXvxdtON1+dq++dab6NWzFx57/FF06dzF9DO1ve6PjMwMPPvMM/h46nRD0AryC3HBjy5kf2nDtBHTvk88+QTHwwhO4303gniov8yaNQsvq300ODcP+jsxtF/+twhYsva/xfcAzF30hxMpidpnBWf1IrUjLTQZ9RxU9WSWQt8vadwc82gy4ds1Vy1caFtYwEUCaZz4G9FRK0M93HeNBCslxWPIRSOfNnd5i8EuWWjS595t1IAxIb+3NspIMyCi6Scx7MljBpav+phPpXyK5D9pTFavX4AdFevRo9vBmDXnU2Snt0O7/AGYueYfWDZ9Kgb3noBBg47Ghu0TsGzDVBTnHIQeXfti7qJpWLrlDRKXDH7ySQoKEeWg6fMVoKggDR/O+SvJZA7GHXouJoy5BFPm/wWfLngcE0ZfhEP6HYtZqybRp6wYGentjaZp6Ypp2Ja5ke9TbYeR/c8jwarD5srlGDHkLAzsNZYE7V7U19by9zicctgP8cDbC9DQtJl1kvYpwI2HC1FUWILFax9BVc0aPmlTkyMNKZ+4U0l8A/E2OPXYK5EazcfLH19DEhnBkaPOxwlHXYZ/v7iMPm5FJKPjsXL9NMxZ/DpKuvbAmP5XoiG+iZrGVMpwBIb1OpP1+hvKy8swcvDxOPGI81D1+irURtdjY90MbtGywWjoTGuwL0SCUWI3GK+/8XpCcyHSoUaUJsOL6dOn4+LvfpcTRgx9+vTB2DFjcP2N16OW9Rw7eix+/P9+jBtotnz4Pw9zcUo+HnzoATO5S7PXsWNHo40oKi7Gd847DzfddCOef34SRpEk3XPXvXjhhedxxx1/QX5eHq677npM/2S6mTy7d+9u8N5EAnXLLTex68QxYtgIQxJXrVyJAQMHYPxRR+Gmm280RG44Sc6NN96EX/36VztJg+ogbdgAksNnSShE9tQH+9Isp3zXrV+HE48/AbfcejO1TxH07d8Pbdu2w+bNm/CLn/8Ct5MUbtq8kaQ0j9qh20y8urpaQ/Zef+MN/O73vxVIxMXRxul7lFqVn/7kSrzDSXzW7FnUVKXh1ltupaY2ZIjorbf8FstJCspY/g//74e4/obrDKEZQ0yD9Om68647jTbqgvMvwJXM58+3345DSBaOGn+UKa8pFMTxxxyPn/DajWyDDjT3nUG/rBtvuN7UJ0KNjc6J3Egz+vOf/Rx3332XuZaZlYXf3fo7/JEkWGbSE088kZrPJ/Db399KspaJf/z9H1i8ZDGW00f1p1f/EmvXriW+N1C7GUGf3n1NHx48aAiOO+543HrrLSQwjSTjR+GqK6/Crb+9hVg7WjDhQFTQpWtX9qtBOPPMM/DSCy9Qk5ViNFsioKYtnIhsL5ng03Hsscdiw4YN+OMfbzOjxI9++CMj1zPPPovTTzudWKbiBsqj+Jd/7wqSu/Nx7733mfY9/vjjccNNN6C6sspool4jYcucmGkIpjSGgwcPJhE7zcgZDAfRtXNXlvMnPlhche105TiGZUvr9/vbfsf844akX3TRRbjrrruI++9M+rv/fg/eJtG+8+47ef94cPPNt2LxIpL+VWsMBnOpkb7n3r/znvHh+5d9H0OGHIRHH30UuezbF1xwAX55zS/x9FNPIi8/j9rqazGHDzQKchX4z6P/wYKF842G8+CDhhJLDy787iWG2F7HPiK89PBwyimnkhw/y3H9s8f/BLT28DUioJnXBovAl0ZAk/+eg66KBMiHQ/HUzRxVvZ6GOaXw5qepM7FqUHPYHvOjdo1DqxlENEBJA8c/zoeHKDVFnx1Uvj6JNK1GTlznQU/gMgnpo2QqUiFuzDWShP/od6dP+fa1mDLjWWypWIWps1+ieXQTenUbhrJt67GubDmtpI1YUDoV5RUrmYo6FQ7CJj2PXo8fW8pXY+XGuVixbja3LtlG7VA55iz8AGs3LcSmLStJULkFCTVVCjLByF9w/YYVmDP3fabPRtRfgY9mPo/KmnXo3HEAmhriyMvpQt++gTRr+Dm5pPN8TwrvVEJaNb/MNMwqSJOGcbdT3qa+NH9EuOCjoCMJXTt8MH0SCeoslG1djI8/fd2YVdq36Y+unQ5imwYxY84b2FG7GjNm01S8eRHz4rpgbxoG9RlOc6MfmSkd0I1xw2HqXqmN69CWpuK6Srz41kOMv5w9QlioTVS+FgXQ/Ehtg2ticXHXJBGJ0MRIbZeIj8xI9953L8lYNTHwYPLkd+knVY/evXuRpDYYrYL8g9R4wkx1k/lI+XwyYwbmzZ9nyly2bKkpc/K77xCfODZu3ISlS5eiQ7v25rcIEL+wDPUBL893xPcuvQwPP/KwSX/2OefS93A9DqK2TpqYFJLdHj16GM2GZNeEq4/MhAqO+Uo+iqy3Mk0EP+t1GDVRuXm5WLp4CdasXo2Dhw41Vzt16YRRo7h4gxoS+T0NGzrM5Ld161Y8Ta2M8NDHpwIZlHe3km7U6HQ1ZkJpRAaTrEjrM46ayLq6Bjz44IO47trrce1vrsOkSZOoGWpkHb08NlCr9yg139xwmjI/++wzhhjnFuTgKJLS6cRO/oAjh4+kWbwK7dq25UKgVDNpzyCZ3rBpA7VhqYa4ql2kgx8yhJpMnmvbrq3R2EkrJU3ooSMPNe28lmbCV157jS3lNW34ySef0AWg0JjEM6mheurpJ1knPmqx/5SyDhU7qkw91I6DBg402iL1mTZFRcb0b7SAxEEm2549e+LMM84kGb3BkPvhI9Qvg4aYlnQrMWZM4aWgv0KwsqISb7z5uilTv4XBaaedxgeAXGp+DzWEU5rIEcRg/Yb1GHLQQSSATt96loSuupp9kkRJ+dZTAxih6VbaRDWPyO+TTz+BMLVVXo59a1avwYsvvmhwiUTDJp40pArGKsE00m5O+fBDtrEXpXxACLNfiyipfnV8cF20cCE1mr3QoVN7FLZpg7cnTzZ58xkHk/hAEmRbauiVPNIESjMr+crKtqKSmuis7CwMPWQYtrA/LZgnoqb+5MWceXMM0T7hhBP4sLCJGsGRRrtXxraTVljaw0SXM/LaP98MApo5bbAIfGkEXINo6wnlVSbzo95GILLhdDP5rGVkpJpJspEDWZhbPvjN4MYJgiNmawOAVlFW02k5ygUFGWnpzK1CVI958t0GNBEE6UsVp8ZFU2urwWQqaXb1Pdo1rvKTGTSC6poKDlpxFNDnanvdasqqwY6vvOKTf3ZmLsrqVhlSwyj0UduGxtB2pGemIhytRX1TGdJS+IYFX4jbYdCsy61FPD75qdDpHgX8aFqQIcwx/4UjNYxL+UncgtFq+MLUupHgichGaB52UFRtHadl6qBoeg5j0IDBOGjQeCymKXHp6qn0f6P/izeLWsZsmkFHUukoM7UfVXXbqC2RY7PQkfaRr99qrCHujZxsSziQ6+mYFeR5s80JsfLRJy4ckt/WVubLlXPUMjYEiTkXRqQE8llGIXGvo+mzirhz6xRfkCR1G9qgI4luKjJT+Sox7mnXp2QMTaZaQUsTct12avdqmR/9grRAJNFYHk4imhxExGSe6t+vv/E3o1A7gyaa/IJ8M7nI/0gr+srKpClUv+JETiK2uawMxSQP8UULzTl3EjY/9IewmwmUhMRv6uwQ1Caa6ZSnCYyj/mT8AZ0zzmmeF7GViemhhx/CNpImP32zOlJ7tJWTl0yJIoIKz9C0VFvLlb5JQUTIdTon0CauiL9Jwbz//Jc/45JLLqXm8FJMnToF//rnP9n3CtBQ34BunbsZzYbMdsto7pSJTvlpZWETSVZqHrXMzKM5xDkBZ7MeIWo8pRnkSmRGUF5z58wlcQrQ/LoYM7lgYxA1PVOmfMjXuzkaEpEKkQEnkGw0NhhilZaWgWzmKXKmowoURm9RwyNfNPlMirTG5e+ldnWgMF8Uv7GxkQtt+Dq6BIlR3IULF5jYWZfzAABAAElEQVSHkCDLjESCxCST95nPEBkR2czMLFO2fL/i9L2Kmkqqb3qMOVUmwMysTPYtp/9MJkkJse1cB3q1owjwMyRbS6h5uvmWm/GnP95uNHEiGoMHH0RTY+lOkpuotKmHtGBqT/2r5AKJ1JRUFBUVk0DmUOvZ1uBvrjPOq6+8jFjYGYdklnbkddLqrxtkfmxDMrVj+w5zSm2iPFbThHvIsOFmRKimybaGfWdnOtZNRFR+hH7FZ0o9hMisrqCHFmErH7Riao3Nd0PenXK3btnKh5c6YsJGYXqZ59l1nLqxbFeGNoVtsJoPCO5vQa0HVpm21Sfa0s9PcXRd4emn+a5ltnnipzln/3wzCFiy9s3gfACVkiA+RsO152rp6TDCmbqqhjd8vgYQDTLS7HhQyMF4W50HK1eX8RVS1GR4uNJvD4EWEKxcu4kLEvzoKqUH84hr7zFO1o10Ig9S65LGgWWPgTLE+fJ47eGm7UA4+u8hqpxxgdJVCzC67xaMGnwJtlUtJ0nYanx4Dht+Dp/w22Pxso846PGJlQNeu+IeaFvUAzsq11Ej0BYF+d2weMNazlkyqZox0gxqkRB/pXKAoyeatGP8ww8dr+Unl5jjVDN3paquKsS4gZ1i65r8waR1ystti+FDfkAz1mq8O/0/nMhYNy500HYg6Wk78PLkP6OyocyQkuKCEpRVzKe81GNpdCUWTSRNpWuncPXn4RjcfyXmlb5GM2Q9MrMzmIZva6WvmxQ/3UpGYt2nUwwx7tC9F+uUxclkM83XQL/eI2ia7o416zZyEstGx3a9SUgqSFibUFlbDl96FV766Hcor6G5NpBN37f22LxtJSdkmmEzckgEuB0H+4+fpFL1k4P7B1M+wPXU+Lz73juceLiYgROGJibJfdaZE/EkzTfSEKZRU1PSrbvxSaPAaAo3GeL00UdTnInJ4PXV/2gSTQ6S4Xvf+x41bxsxY9p0ykrNKydKaTqkCfr005kkPHL8pgaP18xUzSyUj2RXehEVLfrQOWlFRBik9VBRW7eWGzOstpg47dTTce653zGkTBP3IzRNZdA8Jw2hWXDBiVnmOgWRGjWpgnqOyhLxlcZEWrLHnnyM2Dv3RRNXUqdlMB+WPXTowdRC9sY6mhgvIgH994P/JolLMyY4yaWtUjSpS7PVtVsJ86o3RHry5HdILtZRg0jneJrGRZLZnZzyWbYc/hVEJk1f43etuqyitunBfz+EdJZhAuOqvUXQ3XjOBeevMKrgat6uNGGKMJjFIbwkM7H8BuV3Nn36NC7+Wco6pdE3k6SV5k2NN8JDmGpsENGRlk5BeNxMU/bll10Ombdv+e3Nps3MRf5xNIFA1xLu3ci8ghxXVLXCNoV8KAlxscQWYzZ+/oVJaKwPGtKohRFy8RAxVJBfne6z1oIeCMr4QNGWWtst5XwIoqwR9qF+ffubfhXw0t1CfZ19yENc3bBLX3TgVWPvDLqu+0Tm9FySSQVXey+tbC5dAqRNJyCmjoovfNygtPKTPPHEk/A0H0jZKsSQYwTdEtRndf2td95COTVvqlsT/fPSM+VO4uZgj98kAq33rm9SAlvWfoGANlLVXSoaIiNHE9byp/NydFVAg5vGAfc+1k3P0YeaBuludFbpmZKkg1YafktF6SZ6XFVS0xbLphZOg5RyUdBgIVOpn6+iCmBNRTk6F3eBL0MaOBIlxePIHGqUSSHdPHnunDmMFCQBHBAlT5SrAxrCs1Efm8E0zQOhSkkOHhFAapgaIxV4d9EdyCGpOP/YB3HB8Y/i/OMeRe+OF2HumntRuv5j1kHEr4HvHs3CeUfejYmH/QtnHvUXrnYrxKJ1z3Py46TZuJHlZ+Dkw36GQwdcTuIqrQ0lF0FjwVGusqT0JC0cuAlNk58aNmqpeJpycG84xqv3BIlLlpnwU1jfTE8bnDTm+8jj+1gLM9rhgvF34vxj/oL+nY/HJ4ueM07yE4+6BacdegvP/xmnjL2KZdJPh2ZG0x5sB61E/XDpfdiwYwUOG3opLj3uCVx87BM477hJOG7cVdQcldN0OwlD+47HOcc/hLOOuhejB1+IDWVLuSJ3FlZsepuazloulvgpzphwF8499n5O7B2Zr8h4DT6Z9SLfVLGa6f6I00fdgvOO/gNOP+pXnKxTkcOFC5ecdB8GdT+Jq065ypEaUQVNIiIPL7/8Mn559a/oVN7PkMAePXri6quvwXwuMJg7ew7b2iFK8uXpR0fpPGrczpl4rlmxuZZEQi0e4uTah07pmuiVb2qA27zoHydXmVrVQ3VeQeTGDSI/mqB0zZhOeUETX39OqPJHmj5jGtp17GC0LJrEnnzicZx11lnoP6Cv0boMGjwIN994szGHijQoKK8QV9nV0Uw78ZyzOXnmmL23Srp14yS9nibT9vjVNdfw2NY4yyu+SMYiaggly0n06crNzUZx+2Jc/ctfGgKTTAoS1TBluVqlzRs3YeWqVbj80stRwO0qhNEVV1zB7VAONWavs886G7fd9nvcfc9ddEDvSZPrENbTIRpavNG5S2fWsQjnn3cB3iVBq+O+ZFos8HP60A0Y2M84tg8fPgxXXnUVJ3Bn9arwUpDGRciaiZ7CzZ87n6bAMEnoqSgozEdxuyKTrqSEZkiSFWn+FFRvo23kUUSmkeRylepw+RWsQ775nH7G6RAB0WKJn/70Shw09CBq+rLoT3cI/eJ+kejfJjs6zQcwheT9PPooyt9ODxTSBspMWc2FCuOOGG/aXnI7GDr9IZV+duee/R2jBZO26nuXXIZHHn4YddX1ZvGJ+mb3Ht2Mz9fJJ52ES6kNpTcEcWD65oGPQiT6GE+rbsr9Pi6OOeecc9C9W3fkUON4+GGHkTgPxUdTp5j0ZsWlEUYZmR5rCBIBMZXSX5mUdUVB5Ek468Fhx/ZKLsyZyYUwlxqfzeK2RfjuRd81ZTOmYhvzp9I5fZO/mV79W/eWYmjRSi4XgYignn/+eYoK+YBeRtO//Ci1mOeEE4/HJRdfYh44TAT75xtFwO6z9o3Cvf8WJiIjkiaTmciStnbI8Y/jWKInZnPF3PTNNVR8LgmnWaFL+yJG0X5jSu+jOTEVVeWVqAkGsHV7PVK49UZOOhcRcODzezO5A34+GmpzsGG9F7NKNyODr6kaPpjaHT/3OGOQxsnP1Z0r13Dw5YpLLR5whsSk0jnwxVlWKLKM/mDT+XbSxSQHmkw0sagOyR9nQFRqmQ22V2yivxa1KGn060rZgdpgKVdm/gdzS9/jTKTXMmVgSL8jUL0tiPnr6MBbnMJVlbPxzrR/0uS3mnX0o7aeJJFbYsR8FSjd+Al/cxVaWpiO+XPpz1JJMhHCxq3zqGUqJ4bUoIUb+AS/AjuqN3B3DmqVuBq0oWkjNpXN5VN4HeuxBas2zEFGdpwLLTagJryaMTahgRv+bq1cgfVlS7Bu0wxuhRJBZl4UFfWr8d6MB1HbtJ0DtIgK68gqS4vQRDPokmUfoLJ+BdKyuBrXX431FZ9i9rxXafLcgk1bl2JHQynSc7i4IrMes5e8iI9mPUFSWUtZ6qnp/AT+tGrkFXqxetOnmLP0BW5JspxtuRa1jVVYtXEWfKl1yC8k2a5dTL+6x2mSXc2yuYUDNzxes3EO61ZJcTRZsuUM/B5qlJZiW/k2kqMTzKekpDvefXcy3iJZkN+Ztm84jJPcI488gsMOPxwncoLZQZPg448/ZvKQpmNL2RaczBV1chSv2FFBc1kWVnL1oiZmmT03bdzMfiTfHE1YPiymWVCTlraDSKF5U75IMntm0NlbDtt9evcxk2L//gNwEB225Ye1es1qo5GQaVKO5yeecCIJQS7uuefvZuWmJkJXa5RKjdkC+h5pYj715FMNEbr9z3/ialQRB364KlWO6uOOOJIkayVefOElI98nXJk5hP5wZ501kX5xB+F5+jPJ8V5BmuQ1q9fttnhH10TG59M/SWTjTKYdTZ+36TOm46OPptLv6BDMnjPbrECUtmfevLnG70sLDrSS8YknnjBO/6O52GD27NmGPIvkyF9O5lO3riINjz76iJm0dd9V0FxYScd6taXYgPz3VpN8azNjrSCUr9qZp59pVo6+QtOhfKe0YEP5rFq5eidpE/mQP54WjsyeO9s4xp8z8RyMHDHSaKYWksRqFa/qoP33tBo2i1r6R6mBDFPD7vQj3n78Ij/G6dxf7wS2zXHHHIdevXublZOPPPKwaQP1DS1QcAi7x5h4hbf620TipgUBWsUp/7h0avCkvdLqV2Fw9NETIP+t52hm1V5+Iu8bN24wDwp60KIErJM0wzHTpvI7FUalXOV5Dn0djz76aCPjXXfdSbcEasb5IKGHqlWrS3mPOA+UGp2U7wb69Skv9Sf5US5ZvMjkqwdg9eEd1ELKhLp8xTIujuqMidRCawXtE3yYqOS9sbJ0pamjVnnK3Kk04tbSIOoBSf1AGmL5N55xxhk4+OBhZlXwej5MrFqxEtXU8ErbqxWo0tpqlahzzzaPmep3NvzvEfAU5LVRv7DBIvCZCIiOOXOqnu08SIkXo1PaHVxB2InpaNLgOYeyqTu5NzLjxkPo2SGAgf2pITL7rXELBE7S8cZ8fDqf5oWabWalZH4Gn+ryMtHE/cia6Ge1vW4HTZxR5GdkY/RBfIsAX0MFD32kZMpkDpGm9njn49ncJJYb4mprjkTpbiWkWdO/2uDrqAi9gUbMMVoth6S5sdyjK6/7m7HoMI8Y30/KyU+jWzRKrVcKyQVlD9D/7LxTf46G8hw89Q61VxmsW5T+Pl7WjX5apAGiITQ78emX/1Rvw5WiIgkqgxgpf6OZoCqN8clAaSHloExfN+p4+MTM69S6eej/RjZlXrfpoQlZTtRerrqMkTQyotFUyhfQRGCaeIx+giILjCc1nVZQmvIY1xxFTCSDtIxh5k+/QkkZ0bYbNNP6FJ/pwrymt1OoLjI9e1kvszWHmpf1iMvfkForFSPzrj7yKTL+b5QjxjjyD5NWL0Z/Q29A5mu2iHnPK88ZmZWZEYxHfuNXdx+1AAlJmESfiYyPmHqXNly9gasOtQfa5k00yZJcyW9KZkhnklR0thWJl0iL8tZvRwMhPJSLU45wdPfNUlpNhoqrCVFtpbKl7TB7kzGdJHWD8nbSUEuq/a9Yb3e/MkNY3Ig8qk4qS/lory1pnxRcmWSaVLuKOEZp6pOJMDmNfJIkl8oRyZScklvElF93BqVxfyu+2VOOcorktla24rqEUlt93MOVhj/88Q9RV0UzKNNpM+YANU2MZcqQ3DL1Sh6ZI7VK18VXEYxvlImp+rJOFMi0CeVSvSSHM3IIEwdv1V31NUSE8WUidvcxU1YyfQbYxqqP9g7Td+WreMYsTDwjwox5GxKShIfSu7hpPzE5+7NYB+dEOa5mVVjIB/GXv7wGP/rpjygw47FNJZfqJWwVjK8Wbw+ZwrXVjkip5FF9hYUbdE5lK73I3E4MFY9laZWs07+cvFW+g5n6lZOP0gof+UfquoL86VSmrjnBObbEU5pSlaO8dE14KRNh7QadE24KpqxEn5KmTu3sxjVpGUft7baHK6NJbP98Ywg0t943VqQtaH9EwBloNQhxxOMgEEUtX+NEDRH9uLSRqxmszCCiAcQduDhYcMJfv7UCPUqykZpBLZgZ/DnBptVhzPC+WLGqDV/evhkV3NB0K30iNKho4E3ztuXGsp3RryefXFO2k/yI1ChrjpZ8VdKs+atI5rRCMFUnzaXd/nDQaorxzQWUM+4jYSDpMYtTd4uoE8rDHQT51Zj1+D5Tc45UlFuNuKVoIG4M1tJkykmDb16Ik3SZixqkEzmJtHj8YeIksy0nOlI88LchtSItzF+ERXhyuDf1ivlJCEVmiIGHG9DKx49sjDyOiwSoTTRUg4NmnL9jLFNnFPRX7w01i2tpSjW1EHGSaVekzETTWX6MZpQnSM6QojwcQqQ5Qu/2dALJQ4rwrnPam7Ec3JQRZSeW5Hc8q7I4hIgU8ooklrxmVgyo7o06Y0JMvoIsM+aVfyL7kORKyO/E4CmK5xISTYzNk4nKogycSMyEyWsiakrvTuBuHpqc/HRKd4NZdaxqq4KJoHL0281fp52Jzam/rrtbE4ic7Ck4ZTly+1M00Trfk+O7ZTmkizXn5K/gnnfJijHTJiZT95qThsIwuLK6citOckj+LbnSeK+551or202r/ER8lJ3e8yp5dP+RZTB9cyGGtBBXnRP5cS85i1fc3JyjW0fzi1m4E7/pv4moph6J+uq7glvHRBSzF5uIruqTkurg1hyPv5m3u7GrK4+bVkelE1eSzMl5u9+Vxq2jaqr+JUlELBUSYu2sq+oljaDaSos13PQqp2XQOac/KGcnGK0ZC1A5yTLo6i6Y8beLT3K9RNQUXLz4zfx2z7k4u+W4F92y3N86Jp8zZYlMU1SDWdL9o3guRtr7zoa9h4DVrO097Pe7kvmMxklbhIQTNv+2w09ovjyFq6rk9MzJlP+ahy1+0yBGYqNpvGf7CAYObIdQfBt/kzTRZ43eWkxLrQ6VRzVVAb4rlJoSmjMKcjNphgpwQtZL3rkEXiRCJMM4dMWweQ0wu5Srm8Bymd5jypAESYFlR6Ll2NR4E/cA4wpObyVXSGoQbpYwKXaLr6yjyIwJGhCdQdEnjRG1Z/GYnz5YueRgfjRFZWakRsCozBRPZYi8OGk4rjMIA5XLSdHMAJwUeV5ntRmvkz9TmLhOuuTaiP8otvIUKVNQnaPGZKJEMktTG+cm3YmE8naDLjoRfMxDWjJD9njKx1HakPCd6RKlubNV0nnJq9WmjnxMt3OiEl7K38HXYOVUiOcUeI3tt5NgmroKK/PFxHD/uJND86TEWGbW4mpHvoZKe/W1ksxNvt8dW6tvy0o4E3/Ls//9b7eJtcKyulqvMhM5cvrJf5/7/pOD7t/MzAzj0ya/ORssAvsaApas7Wstsh/Jkx0bjKKMa4x2DYawiTQkEwSnMvIdi8e3Y1jPrnQS5qMu/bii1HLR0MEpXORPkwM1OSIu5nwCBDO5pzBPkQnSAL6BYEu5B3OWVFGrRz81QwZFHUkuzHeH0Oi83opQ1fgSdkTuonM/t8ggORFZi+5CIBLl2INFwCJgEbAIWAT2YQTsI8Q+3Dj7umj13hWoDX/MLRvWO/qUVoia6uCRDwXyMHdVOV8VxA0Vg92pfyIJMzRN2jiRPJpW5PtmiJbIlq7yd1Qv8OYGr762dBr34dPF2w1Rk6pf6xVMB6ZD/y4kkXLEotzCIPI2KWCNWVig/OQmZoNFwCJgEbAIWAT2NwSk3rDBIvCVENAGro3RZUij31pKvBM1XTRLtkrYHMMpHbywfFMpd/RPQUmnLG5k2oamThI1YwqkidVsy2EMZvwjnZtMZ7moq0mh2XMNNnDlk5cvZJePnEMAZUJzP0qn+PyQHDZGFiMYX02NWsLMyGiKafnaV2pqm8giYBGwCFgE9iIClqztRfD3/6IjCMZWoTHcBaneHtx6o+sequQSKjnTp9M8CcxcsR656z3oVFSI3Gz6gKXzk8UXw0tVRv8RLauv5DL99Rvr+e5LbkTJl4b7vFzMIId2Q7ncPFWkvoun0aRKe6l2/28IzaWRdSs1dLqscmVutcEiYBGwCFgELAL7HwKWrO1/bbbPSKyVhlHvGtTRvugNNiDXewnfNJC1m3wydDrBJVhcoODtgFq+PmXJRu5kz+04vFpRKOd148dGkyWXuYf5iXkKzfJ35SDeZbiX0cDJtJpYMMDNd7W3GdcGUju3nbuOL0FV9FUuOKQ3HGU05lZq/ByHfEcS+9ciYBGwCFgELAL7CwKWrO0vLbUPyqk1odqJv8m7lgsGqhEI90Ru6mkkSE2UVisqqdEiSXKpWjPd4mXu6O/8drYYiNJE2jJoB4HmtM5VRzums/roF82chqhxhWNsOzfafQ2VwTcRDmxh2c5Sc1FAYx61ujUHRPvXImARsAhYBPYrBFrOhfuV8FbYvYuA8Qaj5opbfiLEF6zvCD3Kvc+Wk6TxGcDsvcbdLUjYvvZg8uQKUWYsKigdWyxWhcqmR1ERfpOvblpFevY/KPdrr4jN0CJgEbAIWAQsAp+PgJ3RPh8jG2OPCDibbjhLAbS9Kl8VE3yLbxXYQE1brbNnk/bc+JqDNqWVZk3vDtWmnLFYDapCb6EmOgshz1azTYfMpTZYBCwCFgGLgEXgQEDAkrUDoRX3Wh1E1rTSU3osbhjrqUdN6EO+i3MBCVsZNV4NPCu919cbpFMze6xJp0f/tUh0IyrDk/ly+dXU5PHN8SzVbqf29WJuc7MIWAQsAhaBvYeA3RR372G/35es/dGk40psqm/qoxdmp8WKkOEdjHT/cGTyE9ArqUigvrYgMyv94poi67hFx3LUhV9DvXeBkcbZIteu/fzasLYZWQQsAhYBi8BeR8CStb3eBAeaAFTWanUnnfv9yEQahiLPfwwJWwdqw7ghrpcfrhjVFhwie2ahgOvXZsybxhOO57UogHnxnMydCjKo6iXn4cgSVIdfRW1kAYKe9cyFJle9e9MGi4BFwCJgEbAIHIAIWLJ2ADbq3q2S3hfZrEWTgTQ91gEB7pGW4mnHYyek+A9Bpq87mZdewu5Y4rmxBl8HlSBqhry5eWjvNL64nB5xUe6fFoksQ3n4Eb5jdDXC1K7pXZV8Oyivf/2+cXsXR1u6RcAiYBGwCFgEHATs1h22J3ytCLgmUZdqadlB0LOdL2Ov5bdyBGJlJFp18MYquH8azaOeTH5E2rhQgMRN5M682Nq8oipMQraDr7Mq455rFQjFyhGKrETQqwUMfA2VCJohhiztf7CQ4WsFxmZmEbAIWAQsAhaBr4iAJWtfETibbE8IOM79Imv6aI+zGBcaxL213AeNhI2b1voilYiFtvONBz3h9xbwzQTZxkTq9aQxhaMn81CbphWltaHFJGprEfFs4/Yg5VzEsN3s3SaipjcWiK9Zrdqe2sKetwhYBCwCFoEDAQFrBj0QWnEfqoM0a1oBarbz4GueonorAfdi445rSQsRouYl7J54Kq/xhe78eDzaHFcaNm6O6+EKUm2a661H2FPF3xFRM16TyZRvJIjxl3bMFRE01k9rAiUYNlgELAIWAYvAAYqAJWsHaMPuH9Wij9rOPTakH3P815Jld4he8hn73SJgEbAIWAQsAt8uBKwZ9NvV3vtQbROasp1KMfmr6ZwNFgGLgEXAImARsAgkI2DJWjIa9vs3iMBOlpYos3Wq1jLWNyigLcoiYBGwCFgELAL7BAKWrO0TzWCFEAKt6dUsWbN9wyJgEbAIWAS+7QhYsvZt7wH7UP21y5oNFgGLgEXAImARsAjsisDuHt27Xre/LAIWAYuARcAiYBGwCFgE9iIClqztRfBt0RYBi4BFwCJgEbAIWAQ+DwFL1j4PIXvdImARsAhYBCwCFgGLwF5EwJK1vQi+LdoiYBGwCFgELAIWAYvA5yFgydrnIWSvWwQsAhYBi4BFwCJgEdiLCPjNe7ATArjvwrbnuI1E0j4SFpfm96R/Hi5fvi8LaBdsrQfV84M27HA/7jWe+oxg2+iLt5HFymKlW8n2A4uB7QfOpLI/3Au7adaSJ2OnGrsSF3vORcDiIiRa6y/NCH2VbyJs7u5qeqfoFw+tyWLPtd5GFheLi+4s2w8sBrYfOHPMPn8vFOa3cWdGR2L71yJgEbAIWAQsAhYBi4BFYJ9BwG6Ku880xbdNEPcZoaWZ01X2umbQbxsutr4WAYuARcAiYBHYFQFL1nbFw/76xhCQuVNmTpEzHuMibfqtLimixuueII9RfmywCFgELAIWAYvAtxcBS9a+vW3/P6q5iFaytsz9HeXZAK8F4I/lIyXWDgFfCbyeTPrNpPLoR4qnI7y+YuNHE481IhJdj4b4RsRi6xCJVyMCfrw7mH2IFM558buHxM5ZlpBc5v+oajZbi4BFwCJgEbAI7AUELFnbC6AfyEXGPNKSxUil4okPSVVMBK0X/J4ipPjaI93fEz5fJwS8+YbAeUjURL38nmzE+N1LDZuH3p7x+EBkxGpJ1nYgGq9DMLod9ZGpJG5rEPRsozIuRKIWIZyWqB3IfcrWzSJgEbAIfNsRsGTt294Dvub6e7gGWv9EnzykXd54FjLQF6mBgSRnbeDzFiDV2xlebx61aSmM45hCTXxPAB4p4hKpPZ4MpHhJ5Kh9iyIIv7eY10IIRlJJ5HykaRWMSjLnIWGLu75uSm+DRcAiYBGwCFgEDhwELFk7cNpyn6iJNGrG54xkyotUGj07Isd3OAL+vtSm5ZCgpSPgKaBWjOQqLn800jR9Vypq5Iyvms7Jh00aNxE6mkn9yGbafGrf0tBAUodoDMG4HyHmEfdUm/T2j0XAImARsAhYBA5EBDx2644DsVn3bp2kUUuJdUSGbyDSSdQyfb2oScsi+QqQyvn5z2sonajZzkBi5ovLpLlrkEdajPFFAKV985Gsealna4isokl0Duois9Dk+YRatiZeVQwbLAIWAYuARcAicGAhYMnagdWee6U2CV0aDZpxeGNpyIgOR2bqcGQEhsHvL4HfaMx2Fc2s8SRBM6s9pWGTr5riGY2bq2FTGhI1c84tRdd0zs/SwghHK1DZ+AwqPc+LwvGKvN8c/Z5S22ARsAhYBCwCFoH9HQFrBt3fW3Cvyi9/M9Euab2oT6PpM9dzFjIzxiCVCwl83lyek7bMMXPuKmpYyRIhcX2naVSndS6hezPmUp2T5sw5H2O+9IijT1shCjIuRqwhhPr4FEQ9NTSLBhP6OKtpE2o2WAQsAhYBi8D+jYAla/t3++1l6R22ZbRZ8QBS432oURuFVH83+pfJXKmtOhKEq4Wk8cSKT+cFhcwn3kTapwUHInFhbuvBNaFcbRCKpjGlSJf7UZkOuXNK5ypSmlizUw5FPFRJH7b1CMe3cr1BTYsS7U+LgEXAImARsAjsnwhYsrZ/tts+JDW1anT0D4CEKTAG6YHBJFmplE/n6fy/B0k91KLFed3jiXHBAZci+P30PwvRrFmLXsU90a8kH3WNjfhowVrytBTSM5I1vbxNb9w1GrgY83Zy17WMwMG8VIX6cDrLladbAz+7+8DtQRx72iJgEbAIWAQsAvssApas7bNNsz8Ipv3USLbiHbiI4GDkpJ5JIuXnGcfnTJTJa75LK7Zr8KEGuenp6N25A9oWUQvnr0V1UwhNwRwU5sfg828E0qM0p8YQjiW2AxFRU0iYQJ0fzm+QIKanjONChnbwhTtwb7YPuPBgxc4o9otFwCJgEbAIWAT2VwQsWdtfW26vyu2QJlGylFgRMr2HIi/lNLOpbZwmTC81XzESK/mxOa+PUkx3BWgMealRDBhQiDb5KfRrq+I1reQEcgIe5Oe2QygYRiycyVWjUWQxbkWjm1eCrCXMoCaR+SPvNZpGaXpN4xYhfk87pIXaYFv0AYQ9NIlKIWdkUfrdiWNzPvabRcAiYBGwCFgE9j0ELFnb99pkv5FIJCgNg0mQ+nMPtTakQXrzAE2fhqglVUOrPrnSM06/tBRfFIcOaQNk1SESqzfLE7xe7skWp29aMB+fLqrGjtoqpAWyURusIemjWdMQPYduuSbQpNydryKJjBmn35vfV0AWOQwZwdWojE0iPwsxjkv0dktpT1gELAIWAYuARWCfRsDx1N6nRbTC7asI+OP5SPMNoKmSbyTgBrigj5g0agp6XZT7Md5lXCzg9wUxsl8fZGRyUQDy+FaDAi4k4LtB+U/+aKWryrG+Yhv3UPOiooFELp7K/KQJU4zP1og5MZxYel2Vz5eHDP8gU4586rTQ4fPykNw2WAQsAhYBi4BFYF9DwJK1fa1F9iN5AnwZe0ZgEF8j1YFkTe8ENbun7ayBNGz68A99yEJon5ePjh0CaArV49NZi7Fs+Wa+NzSD173UsoVRVtHIvApoRs3gJ535pDkESwsLPi9o0YEIIuPpo/Rp/t5I9bSlbFpR2vqq1M/L1l63CFgELAIWAYvA3kbAkrW93QL7cflZPhI17qem10Fpv7XoZxGieAO6diggKavA1NnrUVbTAYvW1KNsIxcR8DVSvmgcDaEGbrvRZHLRC+GdhQrM2myq+zlmTBNHhI2kkR8PFyH4+C7SDN9Qbsrbjpk4PnP7MdxWdIuARcAiYBH4liJgydq3tOG/bLVdvZSzLlPLBjK4rxqJmjF/cj81vYGA/1wdmNGoJQrxkDylcLVnXmEOVqwvR2VTEdMHuHKzA9ZsbKDSi9q0FKAwN42eZXwLAjVxevWUs6FuC0kNKWtxjj9F5eJMo+1ARO7kvab3iuYEjqJerTc1eM52Irun1BlnzapLB1UHmW5VZ/dc8jelcIPHeN3pquJzKxJqCV2sYtyWJOqNGFnc+LsenbiKr49885TTrpuSuCncW9W57p79uo/N5uRdv33d5dj8LAL7CgJS/u/tsC/IsLcxsOV/NgLuDPDZsexVi4BBQGRMlEwLAgqQkjIoQTC4nxmJkkM5XOrRfJROy8sVmqtKI1hY2sj0GTzjOP3XNNUjRq2atgBp34YLD1yqIrOmIS+m4K/0R9L6uZVHGn3q/NEi/trTqMytQnaWFqevnGgXJeHRebm8I59D2JRH8kcv2VJdSTCl1eMlHwmbgoibJ6aNgZW7G4yRlj+II/3xzCu6WJqhbcY/j0SYR7O6lbF2NSwrX6X53wVDOmW2TvronA0WgQMNAfdxxHHX4K2b6Obu8Zusr9fLEYBbFCk4zhzfZOm2rP0BAUvW9odW2gdk1ADiDCWcuvnFF88jOSmg9sqfoA8uCdGxxYcJgmQdSzaV8komiYijQ1KeTZEwKqpI1WI+5OXxZe4ekT69xUClKZ//JpBE8eXxPm8eiVEe5Rep2j049Uqcj2mD3WIUpJZwO5IS5KaVIN3bnmsnMhmhWXIntouIfrEO/FmQ2wU5mZ1IQP0kn71R0n4460K1YYuggblHh9HIz+pIVihCx8BFGMrHQU84x5GRUsAFHLnmskOGnRiK5cRsnmQSkXY7GCh3O9v6Cb+PSz/y8pCbm4vcnBxkZKSzbURaW4/vnpUsbhwd3Y973T3qvHAaNnQYAgGn3m46N85nHSVLUFu7MJPiomJ06kiseU4hGROfz4exYw7jQpPWF7y72H1WWfvaNVdm1T0a3ZXGf1lZvwjmLdvQLf/LlvVF4pt+kWjH5PjaPLtl+CzZv4yMegiJssz27dtj/Pjx6Ne3r+lXcpFNzsf93vIoudxzLWV0f+9JVjed+q7q2K5dOyOH0kWZqLV6u3l+kaPSu2Uovouve07lhnkfudf2JKeuK417XekiIWezcZ1P/mcy+wb/uDLpWNKtBMXFbU37SQSdc69LxgMhtD6SHQg1s3X4WhFQhyePMXeAtGB+L/3MvDk8GzA3LC/wrubA2qqZUpo1LhgwCwV0F2micW6gKLVPZdvqkNMmBenpjEeipnMiWc0vcP9qVRE5k3ySU4QtRjLkZfEtg3OKf1lBvz8N557yY2RREygRYxQlGGnEjNmvYv6qdzj5U6vI8462yfmriOYbOcMxR56D6pp6THrlfgzpOx5tC/ri0ZeWs8hGDh5E0aQl2SWJOHzYhVhXPgWTpz1LHhhmHiId0kM6b36Ic1I+Ydz5qK2twdsfP0I4HEk9fAdr3BA7lZwou2Wlkn5rVa5pn+RzraRrqG/CZZd9D0cddZRDgJguxR/AvPnz8Lc7/2oGQhFIrwBICmZgpNRexjf76/Gy5FJwEXKjK73kOfvsc1C6eiXCVdXupV2OytOInTgrgiLs27Urxrhx4/Hkk4+jX//+yMnOwbr164gNG4px3PLS0tLxgx/8AHPnz0V9Xd3OvFvi5f525d0Z0S3XyNvybOu/JbMbJHvLOrjX3GNyma7cqqeDL68K50SdkuXMysxAXn4eNm7cxH6t/pLoFwnM3TZwy2l5dOVSnp8VV+2p4ObvHt38kuV3zyXHaYmHG6fVI4vq1rU7tmzZjHBI9wL/sVqxGLXOLfqb5Eoux81P8ojomOs8JvcfVxa3/7nXUlNT8Mfb/ojnJj3H8YfbBClv9T2fcnPqb/5K663/vEXlpqC9JE1EFm6IlVuAhHEGCHPdLaclzvotWVLT0nDjDTciLZWLqRi5qroaf/rjHxAMBR05HBHcKppjclHuBVkA9PCzk8QrEvMz9SHBEo4lJd2xdu3axH3UFmPHHobnnnvW/FZhLTHdWQ7HGtVDfTM9PQPjjhiHl19+BWlpuz+EenmPatxysdkpH3NvLbgYu9dcGXTeSORUw7SFe82N6/bPGOeTQw8djbKtW9h/tpjLLu6mDomx0k23vx4tWdtfW25vyG3MdBoA/GbjWQ1YIlcy80lX1vrtKFMe32RgLuqPPiJjvNENsQugriGCSNTHwaYBRVl5KOOAFecGt3vM8AvW3SNzIkmf35NHysZVoQnzZMvklCYRvMhOy0dufCC2bavBlu1L4PWlonvXgThy6NVYUz4LDY3cUiRGPzQ9uXJE0MAd5eCksgJ0vJv8/mvkoiGSWeIU5Z5vkTyDV5y/Q8EIUlNTuWVJGrVDIXhjuUxL8sd95kTT9NE3wczxFe3bdkfn9AloSgkjM+UlLsCoAnkaY/DpVhEYpAlLCfiZX5D5ODXRoCoTrkJaCn31KGcozPISI5iejmMRmn6Zzh3UNDiKDEm+f/3rX1yt+4lpUz9fA3bWWRNxyXcvxQMPPuDkSwabTBIinFxT0lLNJOvlO10jYS420YDNEAgwLvNtGTRRaUBvagiZiVGSSx5NzEb+SBT+lObhKRoW5h6D24b16/mdZiNql1QXVVXHKMs1kw7zjaSyTzEPU05S4dKkKC9fwEd5lT5qJjmfX3sEsq/ydzziyK5kXr/aWSaqRP5JciZlu1NLEaVJ3880kl35SQvhYqH4qWmONnFP+cUoswiHWk+YpJBMJIcwZe/brytOPOEk3HrLrUjL0CSfVP9EZH8KH6J4vmXQZK76mDZiHxAhdGVSXGEfagqzzTwGv5SEvOpnIfZZ5av2Vj2da+z/wp3BbT99V/MKZxd/4e32T11vGZqaGvF/JNf3/OPvWLNqjSnHaSe/wdDL9nH7RrCxiW3W3Dfca8JG/U+aV3MrUIZAqoO3sAiyXgo+1llp1J9S2W+3cJJ/4cXnzXiTkpLC9oqxXwZ53ygu+2+ib8hdI8z2FEkJEwsBrHpFE5qmiLDlP4NLov6SSb9b3gO6F3Xt8MMOx5ayLfj7PXeb4U6/i4qLSMQ3GrwcN4xd0dLYoeCXbIl7WG1aV1vP/hIw97b6foBt5ed1talku/yyy/Hb396Cer7GT2Rw8yaSfd6b0SjbifnFWb84664g3HRvRMK6v9TWujc5xvNm27p1q2kLye/GVxo9MKlVJEtYeTI/BRHT1EQ7mBNJf4S1+psJbBc/2094y8ogzZ+GEZE04dqyn7r9oCkUMv3MkUVxvaavusV41fcok/rA/hyae/z+XAsr+zeAgG5i3XzONOL35PC7q1VzivfwRnZuT+e3+9f1v+IdyFOJO4ZxXZJUUVsGhIoQywyjR49cbFtQwQGTNy1vsNYGKzffzzuK1KhsadUCvnYsWR5irQfd4pI+ykHC6w1gVfl7eHfmA0jxpuNo70QM736Z+R6OpeGUCedj3rz5KN32HgfMAM488kas3jQTcxa9haH9xqK2ppIDcCkHLk7cZF6qcSCWgrGDf4i+PUby/al51AYtR0o8iwTSjEZGKJfSiNx64jkY2v9EhCIkxtwgeEDvCZix4BWO0PUozOmEYw75NVatXoUh/UaR/GVjI8ubOudPqAiVoX+XI3BQj1NQXlmFXiUj2GxhLF71LjccfhENsQ0Y2utclHTrhbc+eAih2BaDifvUqgksTNN0LCrzDJuFJHD69Gn46U+uZLwYevfsZZ7+t2/fbgZsaSNGHzoGU6ZOQfce3ZGdnY0OHTpi0KBBnOwjeOqpJ7CtfJupX3MZDrno3KkLzj7rHGNyLS0txVtvvcnXjQWpNcpHl85dMG/uXNbdZybrw484AjM+mUEi5DcmI03kbhAh0EB99ISjMfyQ4Ya4vv/++yw/MQm4EXkUiT32hONRumIFzaRjkUNT78pVKzH1o49M2dlZOejVq7dJe/TRE/D+e+9hzpw5GDX6UBNfE9Z8ahrf43kRLk1oqu9xxx6HNkVFaGxowJSPpmDRooWcoNhXTj4WvXv3Rn19PV57/TVqNtZQCg+6dSvBSSeexMk1FcuXLcObb79pMB980BAcNf4oTlh+zJo5Ex9P+5jtJ+REwON880d/5nkqunbtisuvuJwajpdMewwePATjjxxvJl+DJfPTpJ5MqjX5HTl+PFay3xw66lAU0Ue0dGUpPv54KkKc8DSpyxx32qmnITMrCxs3bMDSZUtNOy5auMhgsG7dOpoMj6JGMxsPkrx36ULieNJJSKeGaCnr8dZbbxgSkkntn+Ts0qULKior8eqrr6CsrMz0maTm2Pn1nInnon279jjrzImYO3cO3v/gAxwxbhzWrltLYnoiKpnHk088gZ69euKUU05lvwhg0cKFpu5lW8qwcsVKjBk7Gps3b8YEtltRcTGWL1+ON4h5mP0wMzMT555zCk1lxSavV1592bSD2q2I7XbOOd/hPT0XK1euZHt2wPHHHY+CwkITV7JLYxNsCuKwww+D8D3j9DMMZk88+QRGjRmF8vKtOJwaJ/XDF1960fTTI8cdaeSYP2+eacdkDaHa00NSr74bDocNmQpQi/3hhx8YTER4nLHW/GSPodaQfa19+w44+aSTjatCeXm5wXVHZQXHNz8uvPBCzJ4z27St+vVc3j/TZ0xDFtvq7LPONm174UXfNe29uWwzOnXqhGm8t9UXFbp3705TcD8sX7Ecun+GDT0YQ4cONddeYj/bumUr6xVHG/abCO+/Q0YcgmMmHGNw0H2ZnpGBu/9+l9FkDx92CI4gHtK0fTJjBqZRDjEv/XOD7p/8/AKTR6fOnRFlO02bMZ39/lNG8eDQMaONxkx9eP6C+fiI96juafVT9f9TTj6FhDQFS5csobsGt4AygQ/NJKm6dwcPHmywffPNN7lN1DJD2JLLTyTYbw7ufLnfCGwF3ZsIiHaoy4hWOE+sX10akT6puj3IzSjik7JDVdoWx1BSnMUbsvy/ImquXHrKcmTmcQ+aNTeue4zwqbB/+5Nx+ribcOqRN2NAj7O5zcg0VOzYQi1WLooK+yE/p5chMz5vKgrz+qJNYTeEqI4vzO+BwoJeiBiiqaKlBQtjaI8zcfDAMdhYPhPvzbkD2YUVnEAKGcFQxETRMoAqeFGY3Rk92o3EtEWPYW3Z+xjY9xhkphbBywi5GW3QJe8gDB82BPNXv4CPlt6Fok5ZOGrsVQg30fcvtyvft9qXk04nfLzwb1i69nUcPGA0Dj/4++RtKUhJb0JOAdvST60PD6SnifKdgyaP6qoaks46VNZUGf8yTSKN1DaIFGgyc0l0HvfOO/roo81TtPzHrrv2Ok7y6/HXv/6FZGsOLubkUMN8dh0k2Sp8gr7ooovNxPa3O/9mCr6FmiJNXiIRo0aN4hO/85Svi+PHj+ffuCEJuiaNlxuCJBpnnH4m+nKi+fNf/oz7//VPTDjmGC6AkVZKfbY5ROg8ecTYw0k+f4pp06bh0Uf/Y3zfvnvJpZxkGpBPf72f/vRK9CZhu+eev5tJ4qyJE3EkJ5777rsXd9IcLF+5H/2/H3FyiXKSyMQ11/zKmIrvYJ1lTutFQhuk9uli1k+k666778Qknr/qyqsMudGkdOEFF+LhRx7G3/52hyFD3Uh6pFFRvg/9+yH8gxqmnj17ogP9qRy6Ly2PDytIMqdw0tpC7cazzz5jyMqY0WNIRM416e6++y6T3w3X37iTGBFSE8KUd+zYsbjhuuuxcOECPPqYU/cf/t//Qx3rnpebi5tuvImE6y3ceddfSVxK8etf/ZoEcSAa6huMFuhXrOvHUz9iWQ/yXCPOP/98PPzwv/FX1kPase4lPQxhvPWW31IDswV/ISZTSV5/dtXPONHzYUnPJs3z9c6GmTz5HdalCm9Pfhsfk0Bo4r/44otxwfkXGDmff2ESOnftgl/8/Go8w3qrHRpIjH/x85+jbdtiEqkmQ5i///0f4IUXnjeaqlEjR2LkyFGGUEurtHnzJnN+JsnAMROOZZ3rSLxWoImausUk19t37OB9XIgbrr8BH7GO6sPvvTuZffp68wDRRPIrcvejH/3YmA8ff+Jxo5m84oorDIF9+umnSPjm4fe//T2+f8X3TR7PPPM0Tjv9NEMuRE7cIMIRbAzy3qjBSSQdKlfX1cYiaroPHMLmpND9IwL2m19fi/c+eB9/u+tvhpj99Y6/0bc012B+6qmn4orLr8C7772Lxx5/FMOHD2c/u8iU8fQzT5mjyL2Ii9KIiOmhTP3sD7f9wbTxvx74J4bwHr/9T7fzoaUXnuDDlh5OfvHzX7Cu1PTynhpy0EHU/sawhCTp7r/fjXvv/4chsCLwNbSKyB9V2vhH2L/vvfceI8dEkkVp0dy+rFrJpCr51U/uvutO/Jv9vqiwDRqbGswDwzG8h/VAcC/vuxISSt1P0sS3a9sWV//il+Zeu/NvfzX3gOJK06d7+LzzLjBE9J5/3IOnif9VV12F/nSZcEzRzeOG2xb7y3H/lXx/QfiAlFMT4K6T4FeqpoeTNldQNnKyBV83JeoWiTagS6difq82NOYr5bsz0ZeT0RlInNkkK8vHDXyL0LZdPjleIwlYR2TntOUAKhU9zWKyVZqoqgN1aCRRVLbzH5XVUWrzNCyxftLmSVPXu9sIlG9fifdnPEct10d4Z8pjfDqt4nWq5/nPCYlvkRT06noI11lkYvXGRVi8fDrfxtCG+9QNoCZOODHEI5gy80XMmPMa5i6ajLkLXuNAV4KMLC76MG9s8ODDaU9hwbIP8eH0p7Bi1Sz07NwPGemF1AC+hycn/Z2DIv3FWkycImqnn3Y6rrvuOvz6N7/G7X+4Hf369cOk5ydBT/4KklImDtespUEwGqEWkwTsA2pEFi5eZAbGdye/azQM6TQ17TpBi6J78BAH4jJqQmTO1JO7Jt927ds5ppVdEyQmL8fHytGkGVEMxsXFbXAKtUH/+c8jxqTTyLdfPP7EYw5Za5EP4TZyiiitohalobEBjz3xqNHq9Ord02hhNKk/8/TT5qk8nQssTjj+eNx//73Eq9FMbs9NehZ9evcheehstD7S0nzyKbUBxFImomefeQadqbUQyZk7bzaKqa1KTU/FzFkzjVbEmTQ8RhOnCfmlF1/C6jVrzJO/NBR5ebkkeyFOUvdjI01VyURXaWtqqg05kTyaPEVoRCRra2t5/0Tw+hs0xROe/ixfadkNTXD9mf71wL+wbOlSQ1Ie/vfDpo26detKX8Wj8dbbb1GWVaZ9Z86cZbQZSi4NiT6vvvYq1q1bb4iFTJFG08nJU+Hll181WpmBLFdhDbWIHTq0Rz1XfMusN/7Io9iOjsbWREj6U1tXy7aL8gGh1mhz49QiyXdN5LOhodFob6TNevLpJ/kwsJHlx6l9ex8LFiwwfUlZKf09JA8ifXXVtXjppZeoieuFRpIi9dWCgkIj79w58/AU85EGeRm1SHX1dSQwy1FFDdVp7PsvvPCCqYcwLC1diddY54lnnsUHBPZx5vMfEnyVIS2tzGuS55//ut/034WLFyItPc0QRmnjpI164403MGjgIGOedKussWH0aD5A0ex5yy034WdX/pxjTIExgWdmZRrinEzuZLaW1vEpEsIli5dw7AhT4zuXRPZRHHH4EXzIk3nbw356HzYR66rKavyL95faVA8/wlWa7mqSQz0s6P5TXUSgdP+9/PLLJJfSsIbxJrWjKlt+oY3EfgY1Y+pn+XwwU/vpmjTKuqlDoSZkURs9csRI3HzrTabfTKC27dlnn0VWTja1cEXU0r1Hbd+onVOG+rzKlRZ8Msmwxgn9rmEfeIVypKVmYODAgbjttt8bQt1EIn7P3+8xCzBy83NwMjWrIu+b1A/Yv/UwMJ/9gFZU5Bfk8WGpJ94h+W9T1IZaNj+epV+etM5NDU1GfrcN9rcjZxYbLAJfFgENY/r8l8FMpD5UB6voR8GVh8ZNLYQcPuGnBSJo4MTj/a80eIlZyoj5+TJrYjMiMdn8Ze9j+pIXqfjyoEPbnjj5qKvRr/doLOZA6URyENDTjvzVtG1HVIyNk4g0Y81XA0j1ZyArox0WrJhBXw76nQXqUVm9gXUu56BH4iPiZ4KIGwfSWBb60Hzp4QrUMUOP4CDEOKFU9Os+kpPKR4xP0wlJ7bqtC+HPDLHcILbtkJo/HdmZbXhdPlYh1NSu4/51QQ7iEWrINqFf1zT61WVTA1jGOKSTFNPRbyaK50GT7+TJkzkJzjeTszQc//eD/zPmrCWLl5oJ0ZBQarak+XIlVw46L/OozsnPRZocTaDJWjDFU9DgvJGkSCYL4S4/qIU0axVwQmigT43qqMHXDS4xTO52pq0YoaAwn+Sl0QzsiqeJqIJaEk1MewobaOIzfmWMKx+1DdQGtmvX1kyuIhYyUQn3dC5UkBarmpOdaQcKIP/A0lUr0Y6rz0pKSvDJUzOMZtglIvIjKiws5CSWifPPu5AlJHoD85s+fbrRnjxNMvhLageCwSZjynyPE5pMU/fe9w8S5RtQVVVlzH4ywYoUCSMFZmFwNj/4J41EWBhKK+TKJ+wWzJ+PNpz8hYWbVmlEiFeWlpq21W9pu1Rf1UNmsFdo8vP5OC2wIJmglyxdgrasp0OQqU1ZvNj0G024Hr8Hj9MM+OMf/0RZGcL95ptv0bSVZxzmzz77XCOT669VWVVp4rX2R33HhKQ2ryYpleZJeJIjGM3SOvorqr4UiHLwFXWqC2WRfGqXGhJWJx+PIeJ+Eky5U9xHsv3jH/0Exx57LE2S06iVedaQQBdPHx80InwA6dixIz786EO2EfNkH/WxH5SuXIERI0YYciNCvJ6mYPmZukHETVrnrGy9jYXPWCRSRm7mQT8IYz6VJis5qFxp+2770++5pRF99Ij5tdR4Xn31z3Hi8SeyPbfzPnQWNCmd/LikARNxTNE9w3Ik4xyaPc899zsma5km1Yfk56j7r762DjK7izBtK99u4jj3VBLIPCvstm3fxvxE4BxfOvU/4zzL64SBDwJ1xD2Fvq9h0/8Y0zyQpaSkGU2iHgAMKaacMjUfzwcc+bA5fmSgW8Ai0xclhO6TUGMI3djnZPI04wNF0qNunHir/4ig1dIHT+Z0t19rbFHebflwIKLu+rRKe72Y+evez6VmXHHOnni2GcvcfjWf94MeNlreD5JnfwmWrO0vLbVPyKkJQ9M7SYlZWPBfCEVtlEZg6VioXKdvSBgZ3LqDXlK8qegHxBuutEzl/BfmVrERExIym21BmgfZxMVdDprYdNM3+CpRHV+DFIpXxYHDR0KUlpZNkiGndU6SfPoLU/shVwkPz0XCfEk9y9MA6mDkDIJmYIrUobpxC7p17o9Pl76DcKyWT4AdSU45mZr4SuMMoB4SnN7dxiA7oy3qKmvQIftgjmJcZt8YQXFBHw5EQzhIVnGgykC3Lr0xd/EGNJHUtmvfj+SoCdW15cyKDtacfHKzO2DHlkUkI3rC7crr1ExF6ykYtSQsTrxSE52P7SBzqBsaqJmqpL+bSIJ8hd6nWeUwrhxbumSZGdg1Wcb4pO9LldbQxdhN/cWOKk5P6poEnAkExrdrBn1WAoGUJB8UJz/HEVrtuHvQxJhBk4qIi7QxIoLZNE9m0+/KsJvdkxitlpmQ6KMoh375atXSLCZtiTQHMpcGMuhUzzZuL80YJ0CZWRidwUOfus4kcFWGyGnyWL9xvekXmvi0SEB5yUfruuuvNcRFzStCqslcztsyIf3kBAFf0AAAQABJREFUyh9Rg5JvTEZN9IeaSs3GzE9mGm1REU2tP6GpVv1x4cIFJm+XzyRXR/KpDeQoL1Og+qacwkW81qxZnRzVfJePoeOLVcV03DqH6UUsP6E/oDRBMrsuo++ZHNPDTVxB2K3EEDw3I2n2DPni0e/1Y+G8BfjZL36GPJKRiZwgNTnX1tVgRekK3HHHHaYPRWIRk1eA/UWkJJk8uvm2dhSWwtqQMZ+0OJSVPk4ys6vOHg4PnekTt3btWpNc8d00BuhEpnKur9hRidv+8HvT50bRX+8GEuJrr7s2EUP3Kr/yIzLWrrgdli9dbkihtE7FRW1RTfOetHkKbjuYNObMl/9jyC7vUZWZRq2rfBOl6buecmmF6A03XM86No9VMrmrP8lfTKseDbEh1l27daO/HO95Bt2X2TSVbt8mf1I+5vK3fLuqSSZ3C7oBFZwqOd9b+Wv6M8d7kfqdgRUXcZNMZ1Hj+PHHU+kfN5tjH/1LORZqzLj99j+RcFGjyYUqClqEosUputnNwi8SJ2mwe/ToiYULFu4c5tW/6ujfmUYMRLLdIFcS+R1WMe9a3u9yV1B7mEUnfGjszPuxomIHGplWWuqbbr7JED2RNS0kEhHVAoUv2vfccvelYzMa+5JUVpZ9EAHeGAlCoQ4fjm3aTcbPue93jc9JUUG3sm7ebRXU0ng50fGmiqKJPhV8w0GsecsFE/nz/pib2x2FOJyxjHCsDPWRuaiN0cF1jyOTXOc58nMm1rdINIiDO52J80bfgbPH3IOJY+8hoSnAps1LOACtw9ZtpRjcewxOGHYjjh79R2oYonTwX0oDKJ20OabpKVg0M05tW9zDp9x4E+Yue4GO9GNwyuG34Yg+v8TJY/5CLVeReXiN600H+ogA+7IxcvBEbChfjAdevgz/fPMi3PvGxXjkzf/P3ncA2FVVa69bp/eSTDKZFNIICSSQACGE0EUUsCv2/n7hieWpKKACCuIDpAiC+vQ9BZ/wnj4VqUpNaAECpJFGes9ker/1/76175m5M5lJoc3cydrJnXvuObus/e199v7OWmvv8y+YWLfLnGnvhmE1D3kGZcFRF8t5s38oH5xzjcyecjE0bc9IV9teXZEVjOejjEvl7ON+IB874xaZNHqevPr6P6S1c4fMm/ol+dS5N8C0WqPbsTijCDUwKJ6aCDypeoGDIScqOoqTDHFRw7nvPldKoM3ipHIKTDAbN2zAYM6Jx/UA72mWePccuxz5m/8Y6LdFPymaWLiAgBPRbjhqUwNDM8ikKZOVhNHRmDJxcuBEqQQRZVEbwrBrxx55GpMdV0hmwQSVk5sl55z9LhCOcKokjaZ/vLI/CmLBJ3hqDo8/fo5qAOnozx7pCDelT+rkvXjxYjVBhbEKkHWeN+9kxWTjhk3yz388Ih+Ef07NmLEgZVlKAufNnw8T63pMHvVy+qmng3jm6LYQ74Vj+AlzT4Q/zRi58MILQWRCmNjqscBgFWQpkeNmH4e8PqRkdS80HZuhFaFmTyd2QpbCl+YsLuTIxeRFLeT9998vF8JBniZbksrZc2ar9mEltGKsg1dnAkD8P//Zz8M0W4G65MCENl8nwbVr16m2giasCpiVafIeP2G8zEddSF6pxfLIECdJ/qPv4ue/8HmUmQVNcYOsQnmFIG0rQUTHjx8vs+CgzgUUudCOfPRjH5GJmJj5EEFinS4T5SLurFdFeZlO1PytfYUcIVXvv//979jy5SPqXE9CT3PrzGOOUbmYg6fB4wMSg65yRNpwdkC++c1vwjQ9Rk2ea9etwQKKAm1nyqH9CfFZ3l//+heY1C+QEaMqgU+WjKiqgM8ZTKM4D86pcSgOP+yLSO40SCmc9RwL5zUERx4Z1+HnzlJblYD5+69wOfgAxoVCJRYbNq3XflKE7WjoL9adFxKR9NAVgQsh6BtK2SZMOkL9uJ5+9mmipXlyUUd+Qb7eq3T+XwlN6C6YYiEJhYApuFSJF/s48UKzIu+UximFs7ZNmrysimLEuuI8te/UZB83ezbu25PlgYf+jjLzJCcvR82zC59+Ui666Ct4KMD9hftx3Pix8slPf1rvX2r8iA1X1HIB0fnnny9HzZgOX2D3gHbCnONVq0xt76c/+xnJw/3Jlebnn/8+1Zzu3l0rDz78kC7woMmT9yPdNI6HfyL75S6MH3wI+yi2BiJx5cPJ6WecLqeedhpkcw/aXhtk2nfPqJxpkpu8g4AAB35nZoomNuIpGk9sATjJ602OAZL+XKmB8mCF48CA2xcECX/ojwVTIl8ZNaKiTMJr4c/Ei28wcNuOSHwH9kmD+c6/EWQIBFBL650hZcCwBeKE95N2NMjOtuclP7taiqo54LdJfefL8swLi2X9lhfFn5WUhS/8Tk49sVEmTJ2MvBtk8bI/y8btIIMgbTvrFinZCEKLt71+iXQm96I+nbJqA0wr4etl1tELZHLlWJgz75d8DCS76lZBGGwloX5mkBCDaDz8GgayR8Sf24HBMQzJotIZrcUih4elvKQGNYD2SFpkyZq/yPhx4zAZFsnqTX+QZ5bci/bg5IMaJTpl3faHZeyUSfjdKc8u/40sWfo4BuaEtMpmacJWKTGfI8M0M3AwR1LZDh8pPhmjUJzBP+C/Aj5o58EJurgE5cDXiX5C119/I7QkAXnppZfkzl/dqSYJrnisB/lgoAw0k9Lnym0T4ogVi2K+9O2iE/eVV16FyaoY+b4GLdQVmLDjOtjeeOONMFt9VVeKUqNAR2ZqCujLtWXrVsiVBGFq1m+SqN/85te6mOHO2+9U37K77rpLXl7yEgZwdqyeAHhVQ0NtAM2N3PiXWqBbbr1ZI3H1KzEg+dRJC+T9tttvl4+DXN12y21a3otYpUktDQPj3nXX70AG/k01eTQz3g3Hc26hwAUKn/nMZ9VRnpMdV5A+8o+HlRhOO3Ka3HzTraoJXAu/KZo/Scp4/kZgS3LEcmjmIvlgOxA3ttUGEGaumv3spz8rt99xGybxP8m7zj5Hbr0F2z8gIhchfO+y7ypWjthCUGaAQBMdV8fRR4qrWNesWY3FDLcD26BqOri44YrLvq8rCEnC74ZPFCdz5kvNG7XJnLD5b+u2rWo++9kNP1MiQJPkrcCRmqxLv3upLuLgQg6GP95zD/r8WqzgO0/99i6+5GLk0BNYX/oWffzjn4Jj+u+w0nMZfOM299Qb10k8mM9Pr/t3JQ905qd/WRu206FMXAlKfywNaGcugKDMAYwDXGn89W98U7WcXAhx/b9fBzmxwAZ9dFNKM0dsX4eP2i/h/3fZpZdr3+O9QAf3jRtAnLNy1GTM9mBbcWyiJpGrZkl+2D58+qLc9P2ilojxGvHw0UszBQH5oPHQww+qGfxG4Md4JOj/9bv/wkPhdvnSF76kPn+dIOMMbEdqorhQ4Nvf+rYSbMp2G9pu25ZtSvY6EJcPHNf++Cf6gECT+89uYt5oLZS3aOFCLHL5pvzomh9B+9mi9ea1hvoGvV8pAwM167znnNYfVcIttAF9gWZWrsakC0EAJofTTj1VHyauu+Y6lw7+n1dAI/jkE08Cj4Bcd+116Dt+2QLT9a9+/R96jNx0imB709T7wyt/KJfAjE7TJVftctEMyfzdf7hb3g8fxVtuuVXz5srWX2Kcyc3LljWvrdI+cs3V1+oDCscjrhSm3CR3HAu4yEDvI9SPY9TvcY/yIRo/Mzb4ykrK3V2csVUwwd8ZBNhNXE/nQB1OjMAeYDfhCXwMfnEGxoTCmx3fBxeYVypP3EE5Idz88wowijXpjZ7EHmWPLdwo7VEuNjjIO0zLZ56uS/MF8y2RR6S+6wFp970E7RVf6+SupcvYkzuu4b8PWqmAPw+EiDon6NowqPu4G2YAvlT4Rwd+P946EAzlwoSGJLE2+F0gdpJ7p8E8gAwZP6Gb++J5yAfSxZSxbAzaucgbvh+d8IGCaScJUgePLYzGNAm7vIP+XOSFjUFhzuRIiZyQHvlwTzZ8jx09Vc476Udyzz8uk7rGrdDEcF8hDOrBduxNJHLq7M/K8ZM+KL++7xswkdJvC7LF2lFeDJo05JuEtoalAQ9+fJxUFDV+Oyd+b1DzfnNy4VMx0aM5LzcfviQYkNvgnM0Bn4Ozu+qQRZYamI5aBP72fE94geYw7vVE7RI1MyR6SixUApIK7EkHEkZzCycsPjW7CdHrhTTjukIoKw85iXKFGf3kuMIv3dfLSUPZY3L1j3+sBKUOZhNqw7jqlf5ZDCyH9UmX1Z13efO4A5OSk9WVS0LI+vApnqY6TprUFlI+XsuHOZbytcLERvOilx9XkjJwkuFESULELUnyi6j1CWBlXXO/dfBkZFqmcd8JTNB5KjvzU78zXEtvk5bmNrkK5iGusKP2gY7wxJ15UMuikzWOKWMQmjUSTwZiwcD6EGPW3ZvYabrLQ7lsG5qvSNI1bgpHYsL8vTpOnTJV3outPq6/4d+1TI2c+qNtrMSQpmjX3o7w9MRi23JLFLat127IHvKwX3B7CxIpHOG34kR5cJ24hqB1pJaP/YntxDp6weHosKQGhg8A3KiWfnA0L3vtxjK8kI4tz/W9VzQeBCFmnoxeWu+bZVETRnlZVoR7xOkDlyNOXjzvm/HZbuxfbB/2L7Y1NZh3/OJO+cpF/9KtgWZ+Xj/1sGE7EyPCwmu8pz3MiAGxY/Dwc8e97we2Pe9ppg9i7NE4qD3byiPL3CaGi2oop+tjJKjuHvPi85tuJZSfW7+wL3WAYHt7x9GlgduOUKZWuEt49yjLp9aU2jjm3wx/Ul5jHdkmbHdinpuHrZFQHa769UzKqeqx6IwLbuTIOLFN4MFEgDcENTuxJJx/QSa4SS79Sg4p8K7hCMaA71Zs2trYFJLSct5wNLsk8NqmoLRBeeeGDxf1UP5yhVQXzKCUM4kXqh84oCSSLH8LJABBIInCKb8OSDSrctxnPfGoCQ1VVDDRcd0nxiBSLq4TSPqx87gKjIEQRCzhg4M/0qmeJtiFeJ3w60C2WZhMkA/fRtATUHeQp2gSmwKzYGRENJiamIjWgVo15Au/vrivGfljZWAc2g4MVmwXjEoY9FCOHybZZBtkpAkE5cEZHMOr5pbwgWzgF2V3xm1NqfF4lD6geb85OHuBGi5OdgwkW0rGNGcvBspTDDhhunT8nT7xUqvBwZuTRRu2heAA7A22rDEHX07MMaxGY1qSAMrCLsN8VHuYKsMrlXnQYZ9xOLkyHoMnC4+VmCAer3DbAq405NM/0zoi4jJlWemBExOdnunTRmLiBebNerCsNkye/E18PNxI4lgGyyVWXr7Mj6SOZWrdkU5JIjRyJJoMxMCL75XHb48QuXNOXq5SpnwOK8iH8nqndfcV01Bjwq0XWD7l8IJHKqh9o4aT2iBqybx8mDdlZWBcBmpXqY1knHS5tL0AIQkD45IY8Zvk/ue3/xxx0/u9ZqXpe/qLa2+WmR6UbEADQw1Pz+TtYgwkA/OgMzrz5qSvv9EuxIjBq5/LxeFOXzWSDIZ0t4C+cb00/OY15u3VQa+lyuhbDy8dSSc1fUosEYm/GQYqx7svHAFxD0lePdgyJNZdwIahV9siR9cmaDfKhHienD0ErQdsF6Xnd/q9y3ZkOSRM3ByZgXmk50O/TPYj3sPUotHHLj149dOHPPaL1INB96IfyKuadNzPxIb17h4fWD76LTVxXPBAjRmDl6frh7gf0L8Z0kminsjQPwGoHK/MUNlN7HcYAep3GHQY9WHVJnb6DwYn4CZNPaHiJjroQIajhMHd5DGMDuFkC/xloD3ifc1BB/sa7amn31HPoLHf/JEmPUSQX1PXPfAk2wRSg6d+aqdwS+8/UB7IBtKW1AmFtXV11nMsg9cge4LXcTGB34xBx32+0orHvSRBfqQiLg6TuKscwtwAw9+sNNPSbMf4TOEGOOZOLzj3m6vcYMLY9qrUNW+CrE6TwKvMl6I3tuzClh9LpL59O66TpPIa6Rnl4pGThb/4m7Xh0RsJTiNxcCn7NE93IjfQd//sPlCZIFZqbtHzCv9AGaVSepdd3O7s9IAmPe4fVofVk5ysevJDSwB+L23vVO4Xr6U7PafH6a8s7zonNk875Z3zvjmx9C1zf3l56bxvLy6/WQbrwO/0ydWLS1+jjRs3qrmNfYJp+oaec8TD66l9Y+37u7/+4/Jin2Zw3zRd0/fQTajuSvpfpvE+6eff6HFPfQ49X0+O9DzeqBwHSseHXY/sHCiuPnCgH6fHp0aLK7i5KphDUH/t4eWbno7n0uu5v2Mvvfft7lv2I/fxzvPbO9dTVj+dLS2BV27aqe7Dnjy6T+mBS8Oye5/3fu0vTy9OJn2bGTSTWmuIyZqfPEkqc7DZZaASBID7f9FsdwiELa0+HMpLs6Iy7wSYIPGdgBapuSkpTz5PLQPMO/jnDfhpyXod0lyopAcDH/81dz4iu+I3g+bQFOiopjd19EpoPwyBwwiBA5HSwwgKq6ohkDEI9NZNZozYJuhQQKDDtxLvq1wMVTf2paJGCBu1vtFAKtYew/sao0Xge/DlSYax4i1fCrNpvqPu50CBRj7+g/aDhBGytMafAH3k5ro0Cxw4hwOVYNcNgeGAwECaiOFQN6uDITBcETCyNlxb9h2oVxymxbbYMqy43AIfGPoH0LT5xkMMPkS7dnNPIOzFxCVIIFmjyouhUwdZU1X3/rRrGgEqcXZpn3TE12El5gYcU9vGa+46DiwYAoaAIWAIGAIZhYCRtYxqrqElLNz3pSu5Tjpi6+HEj+0eUs7Hb1RKrtXcXdcITR27JXypsBHtiBG5+HbO7C7fgTRkzlCqf+G00RxZAl+1nZCJ8R1R8xxQ36h8ls4QMAQMAUPAEBgMBIysDQbqw6TMALamiPs3QYv1HPYBexSkyq1ie6PVowN9U3srVkc5J3vmk1fQJTlY+ShJbiNA4jVwl01iVWoMKyBbo6ukNXYfOBqWwUNGZxx1DvbM04IhYAgYAoaAIZBJCAw882VSLUzWQUIAPmZYbdjmXyN74/eBJD0HgpSlHmbcHYyfQzE+csf/tmhYutq5jxk+WCkXCkdlDF69E0tgeXsfzR1XMtLMyZVUusIRZLG16ylp6PiNRAJbcNUrPRVvkFCyYg0BQ8AQMAQMgTeDgJG1N4PeYZ6WVIibTNC3LJLcLfXRP8J/DdtFUJcFLRe/430I1v4g09WccE5raeN7B0fAVa0cG9SOwZ5KYZBAbpMB/zPkRy80kjQlYyiHejimbey6V5qif8MGuEtwxiNqjGvBEDAEDAFDwBDIXARsU9zMbbshIrkjRdytqzO5RVojj0lB1pmgadh5Gi9od6bLgxOVm84mkGbnnlbpwmaHtY07pLW9C4sYsiTo4/sEU4HL2fTtACSK3FsKps/Is9DsvYAtZ/HKGWz7wbjUp1kwBAwBQ8AQMAQyHQEja5negoMovyNDjkLRJBn3NUhL9Akov0ZLDjbLDfrL4DPGDXMPVoGLDVthRt3d3Cw7m6Ev84ewPiAL57AxLgpzZk9WmBshslwSNexmHt8jTZFH8c6B1XjfJXa8xpU3ty6VZVgwBAwBQ8AQMASGBgK2Ke7QaIeMlKJHe+WIE/VieBGS5ESrJTd4LD7H452f0yXsr1BN18FW0pk3SfDg86Y7eOKY39SVpcygfryUPYpXSXXFNkhz19+kyf8EopDsMR3MsDCZ8h2dFgwBQ8AQMAQMgUxHwMhaprfgEJOf/CiuqzDxsmUpkXz/qVIcOANvOagAkeKLdXOwUAAKXZApp29LkTCk4ztGk93bdLjXLbmXw/PNm9CVwW+N+ccSu7A1xyNY8bkEm4esxh5srVgFynyYh37ZH0PAEDAEDAFDYNggYGRt2DTl0KgIuZLbz4w7nvFflmQlj4B2bRw+IyXLNxoatxkgb9WI521YCx1aEttspEic26/N5eRMqErREKdd4tENsid6l3QkX9WXoifw4nPSuv7ehTg0EDEpDAFDwBAwBAyBN4eA+ay9OfwsdR8EUvotPUvSloTLf6dslWi8GWbLrRLxbcLbDhokJzlDAjSPQtOGDToQnympa+O3W+8p0LIxbiyxF2lrJRLbKZHEOmlProH2jlt5uNdQ6bpQ06gBNwuGgCFgCBgCwxEBI2vDsVUHsU4kTrrnWbcMXHjQDFNlM4hXLUjXdokm94J4NUgoOAmLEEqx0rNITaB+X3Z3KiVtWOXZGV2DNySsRRqkY9rADrzkPaKlKLkDSUvCpGpcLQ06OzQEDAFDwBAYVgiYGXRYNefgV4Z7q4GeQRBHn3SVKI6x41q3cHT8Dye4bxq1atiSI5GLBQH49vPZgdo1aNb4Unhfi3T5a/HNNyNQ48Y8AyB/bgGB+81zKU0cjiwYAoaAIWAIGALDDQHTrA23Fh3k+qT7oVEUrux0Cwl6NtMIgHfFdS+OVsTAhxusIWain9UB/iS7aE9a/NCVnvx2BI5pLRgChoAhYAgYAsMXASNrw7dth3jNnJYsXUg/3l6wbzAyti8mdsYQMAQMAUPgcELAyNrh1NpDvK5G1YZ4A5l4hoAhYAgYAoOCgJG1QYHdCu0fAdOi9Y+LnTUEDAFDwBA4nBEwsnY4t/6Qqju3+ehPtzakhDRhDAFDwBAwBAyBdxwB5/v9jhdrBRoCfREwotYXEfttCBgChoAhYAgQASNr1g8MAUPAEDAEDAFDwBAYwggYWRvCjWOiGQKGgCFgCBgChoAhYGTN+oAhYAgYAoaAIWAIGAJDGAEja0O4cUw0Q8AQMAQMAUPAEDAEjKxZHzAEDAFDwBAwBAwBQ2AII2BkbQg3jolmCBgChoAhYAgYAoaAkTXrA4aAIWAIGAKGgCFgCAxhBIysDeHGMdEMAUPAEDAEDAFDwBAwsmZ9wBAwBAwBQ8AQMAQMgSGMgL1uagg3TmaKRv4fx4ujvDcS+PEaqQT+xXHeLz5fQAKJQslOlkrIPw5nCvDJRWy/+H2lEgiMQDy8eioZkWRih7TH1ks0sUsS/jZJ+tol4WuWuK9T85LuMvDTgiFgCBgChoAhMEwRMLI2TBt28KqVQNE+0C0Gvu0zCuIVkKzkGAlLOT4VEvAfIeHgBAkGKkDeQqBpASVrQX8+fuekKBgJW7vkJFolkWiUeKJWYvFd0hF7Wdr8myXmrwd5AylMJiSY9IPAsVwLhoAhYAgYAobA8EPAyNrwa9NBrRH1aR5d47E/mQct2njJ9k2TrEC5hHxl4g+MlaC/Epq0bHxI1PiPGrlg6ttVIekLSzgAAucvkUSyUuKBUTgOSCKeI53JtRJPUsvWAW1bjCW5RPbXEDAEDAFDwBAYZggYWRtmDTo0qkO9GghYIghyNlIK/SdKdnAmCFoxyFkeyFoFvknMnKkUOrTUMdJBU+YFat0CEkJWIHXJQmjkykDOsqBRC4o/EZUu2SadiT343YUkRtY83OzbEDAEDAFDYHgh4CsrKXcWq+FVL6vNICLgg39aODFScv2TJS9wmuQFp4NLFYF0wTcNZMuvujeSK0fMSNYkmdKO+XA+yS7JTxQfaNLwl5o3H67FcBRE3I7oUmmLLZHWxCvQsi2XpL+H5CG6BUPAEDAEDAFDYNggYGRt2DTlYFTE02aRKJFc6TIB+JnNkvzgbMkNHi/B4DgYN8P9CMc0caQKwoyJRQjQqIVg9kyAiCWhcAuQ0iW7NEeBJq2HwLmsqJmLJ9qkI7FTGjvulmbf49C6kcpRCh8IXsJ0bf2gbqcMAUPAEDAEMg8BM4NmXpsNGYndCk9nynRETSQ/8W7JDy+Af9poCfvLQZj672Kkdao/S3ZIEIsDyvIDUtuyBdqzgERjWD+qiw2KlLRJkitJGVAWiB1JHBP7/NmS46sRf+6XJNoRl/bkYpzkSlFq5Bx5ZCoLhoAhYAgYAoZAJiPQ/0yayTUy2d8xBKjBcpSI1Av6s0SNFGYtwErPSfiVC780+JsNoN9iukSyTaoKC6RmVIlUVoakMzIKmriQtLTG5PXNm2VbQ60E4POmJE1rhVQwkXL1qJ7DT5pGw/BlKwqdLL5oq0Ti2yWOlaIJX0taOk1sfwwBQ8AQMAQMgYxEIJCbk3tlRkpuQg86Aqodg1YMO6RJFvZLK/AvAFk7HwsBoBFTokZNGIkVqZkLCRzrL2y7MbIgV2ZNHyWlZRFYOpsklN0mgVCX5OQmpHpUubQ3d0lzRxBmURhFQco8HzddmKC/mRPKR1nhQCWKocYtiq0+2kHYWqiHs2AIGAKGgCFgCGQ8AkbWMr4JB68C1KvROyycqAJRO1ZKsj+HFZ+FoG487wWaMHt+kV7lhQvlxBnFcsQkbNsBkhbzccNb5kT/tdQGur6IlJT6pWGXT7pijuIxBvOKK1Fj/izHI2xF0LBhOxDJx8rRLIklPe0a41kwBAwBQ8AQMAQyFwEja5nbdoMuOYlSEFtq5PvnS1H4w9ieowb8iYQqPZCo4VxKw+bzRWX+dKSpqANBg2+ZD4QrRb6oqXMEkOmRd8AvJXnQxCU6pa2jCfuq4e0H2MbDBx+2nnjMnx8sTPAX4A0IFUhXDQJZgm09XnNlIC/SPW+rEOZuwRAwBAwBQ8AQyBQEvOV8mSKvyTmkEEhg5eeRkhOYBpI0GnSIPmr9BW7HAbqExQSl2TlSUux1OxI779NfOpGiMp/Mmlkgc2dVSzT+OpYOeIsN+saPQqMWgUk0LKHASMnOOl4KfAt0wQJjOj83r9y+ae23IWAIGAKGgCEwdBGw2Wvots2QlyyQKJDcwAz4i42Bxgub1UK7NXCguTIpI0tHYlNcEjRPI+Z9998VaR6NJkDySkNSXVoKwhcZoAiuleHrp9wChBDelpAfmimBZBHO8dr+SeEAmdppQ8AQMAQMAUNg0BHof4YcdLFMgExAIChlMH0eLVn+0dBcca+0gbRerA0XFsAfLR6VWJTba3gkLf1731qTekE9BnNmTCrK4Y820DtA1czKXN3+an5swJsdmCphXznOcZ83ykbCaMEQMAQMAUPAEMgsBIysZVZ7DSlpc/zHSSg0AfudFSv12r9wXHYQkLqWZolGszWq56vm0pFM8eNpwNy3X7BSFLvkJuI+aWlux+UBtHf6BgRq0Lj6FGZPmF39WHCQLTPgV1eh51zeqUP7MgQMAUPAEDAEMgQB22ctQxpqsMUkdaL2zAsBEKgsfzVIERcI4CzeKMAXQ/FNBAOFgC9H9rZ3ypKVOTJ2TLZUjcLro2JdSCPS3hHAPmtJyc8PY681rBINMNOkdEWhj4uGZOu2Ftm0B0sEsIhg30UMLJEaOHyYGTVoOKZ2LS98pkQ7sTghsQPbeQxkQsXCBWgFEyjS6d6oA/S27WXepHn8zfpzqYKLx29HDXHQJ1AMP6uggUR1YFy8WAf69srVumGLkt6l86onJ5dScAnGmy9TM83wP2wL7aMZXg8T3xAwBA5fBIysHb5tf0g176FpjraEZIRkBY/CJJgyMfI1UUoOemL2LoDEAQQCJG9na4N0bgxh1WaNtLW3S2t7C95a4Md3K1Z8uneEkhJ1RtpAsphLQCKJOMhPBc46UtI774F++bHYYDS2E6mG0q4MkbZrXvvGJlFzBM2jPI6Y9VAxv2r9sIcbZCEHYy1Jh6gtTA+OYkaBixcDBAon/YcidnqGaceuXPwFsXSLOdLJmLfWlTK5wqCMBAllqswIrEE8QY3oWyszidpgEDZHmN+Chs+M5nvTUh5KG7m+gjHBP9B486bFsQwMgSGFgPX0IdUcQ10YkgM3+QR8xdj8thQEimTNcX6PLuxbC6bpmYBp1qzv6JCFy5bIktdXy2vbt8r6PTulrm2PRCLtUttaK43tHdIR80ksEcaeaUGUk4U80F05oh9CCMBfLcRNehOFSDVQWsqWkg8kKyiFaYsSXBpfMhuEC+bbVBZuIxDePsSEBJYX8AIukMq87GqpKJ2EuDT3DowKLh5kSGnJUATrM7r0aGCfq8S3JwMyEleaLxlGvALxAzuvdO+7J/5bd+QmWfos9s6z7+/0q5THkykej8voUfB7xFYtvrdYBZabmydjxtRAtje3dYsnK+uQLnt6ndKPWadRo0ennzqoY68crwwPQ/7mcSwygBvAQeU+cCSv3IFjDHyFciVAstmGntxebE9+7/dA3+nlM433GSg+77PKyhGCTd0HitLrfHr+vS6k/WAcluvFxaHi3bcOvO7FSUv+lhym551+3Dfzgy3/YOP1zd9+Dz0EjKwNvTYZohJx6OLHEbaAFCsJEnXep5mPoYeQ6c/uP7yaRogQ2+/LhzWvTD/casPny5PKvAqZM3U63isaQowQzuXgQ8IB7RUIntPcpWuTugsY8CAA6hXyFeAvVoVCe9Z/YN4IKMOXCMj5Z31eRpSPwwmWFZdYPIY3LcyXebPPxapXxFFCwWGQWjWmpC7L4cIX0c+YfIa89+wv4bVbRW7SQQwGbwLqO/jzGnNL/8dz6SFJzR/emTq6cpx8+F3fluJivoYrPQBfQow6lBRUyYXv/1cpyR2lkjGW6ttS1U8vR49VC+jy2ucapcJ1Lx6/0wN/Z+fkyOWXXyHhMNos7Xp+Qb58+EMfkWgXTbapOkITwjiq/QOOFCnaFZdPfOKTUlZaBoxc+3pYeen47QVeSySABz79hR58fTK2pkY++5nPIhri91zoL9mA57rlZS4o0tNcpteVxyQsXhExbOT8qU99Gj6dA21n44rz8kiviisDPQ/5hYLuQYhl5uXlybyTT+5XTi+f9Is819/59Djdx2kk2WtvXhsovZc3ZfUjbVdHRM4//wIpLCpSub18eW2gwLRsw0AgoA85Xjym4YdJPTy9a953NBqXs886W8aOG6dxiH3fkJ7Wa7P0OLye/vFBo0u8iTvzC6Ptzjz7LAnALaNvSM/Pw8L7Ti+3b7oD/Wa++o/YIKP0Psv8D5R3+nWNz9yQV3+B1y1kDgJG1jKnrQZVUt7W1B8xcIr1+0alfLhi+O0GSu9bI/X60083S7YjPY2IzDOOvdqCMqoyLMUlnVJRGMYg1YGrCDSL4sO8mUs/OTHWAAFpQPiCeBUVN8qlCba/wHcmoBDkDaKTVy7jik+TypKjU2TAaWQqio+RqqIFEBVvWcAE0xXvgj9dl8Qjcf0kokQH+YOXZNNEnMB7TiUH2ri4BLBughqReBSfGEyYfUZPTgyRrkivT/rkE490oAzsMIey8IZ78eMdqm47kt6Dt98PzV6XT2ZMepeUhRbI7Mkfw8pbbiDs/iVAhPg7Cjm8Tyy1YIMx9BrK0Wv4pkzeZMEJJIpz/O1N5lpfIBfGBDd58mRMuiAWmPD4j/Gys7Kh1Roj8bjDkJMgLmj+LIt1JOYkw10R+BOmNU8CmpMISF5nZwTaVS48cYHQ6TXI0tXZlWoj76r75vWuTqw6RhzO+CyXfYmTf99AGdg2/PRpFo0aA1btbR0qK+vNNmxv64SPJcpOS0B8WAGSls72CCzVJJOOvKVF6y6e16h9c+lwGm3DdCyLWiP2x5bWZvnyl/9F5Wfc7Oxs1daR3HiBRLgD8rg03ln3zXqzzZhnfzJ4sXktAiyZD3GjbF6gfK2t7WiHnvNsX+0PwIL17WjHfYA0sRj6N9oyPbS1tWu/SiejvM4yScxJhC6+6F+lra1Nk3l9h31PsUAZA8nu+iL6D+oYxb2RLjczY3uz/qxXDPjpuVQn4z0cwbXOjk7kzz4t0oZ6XnLJ12T8+PHatkH063Fjx6Ff94w6zIf1Zb/05CIWrL/KDIsAMWFv2F+gTCoX7oP0wH7I8+xnlMnrs5SX9dX7gWMJ8U7VielZHjGOow08uSgP24719M55ZTE/4sv+zdD3uhfPvocOAuazNnTaYohL4jncc2jCEyic9wVEiMFRHRxgkUH/zv8ardcfpvGDhGGKwhYbQTmiKltqxnN0qpUJY7Nld/NqmD8n4DdNj70ngF4Z7e8H0iUhJ02CYSlBTOQ/YHAEI4EtQjiJ+LVWXDLBiZ5EjhJj4ocT3diRs2RSzQKp37NLJk+cL0kM5qvW/lNWr39c2kK1iBeTYIpgREAQR5dMlhOnfEIKi0dIS3udLF39lGyrfVJi/jasVC2TmZPOlmnjzsC614Bs2LxEqsdOkcVL/yg7apdIdqhATpz+aRldNV1aWxqlqbkBr9tiJWCuxRzCAVoHasqJH0XZY2TymDkgdmGZChmfWfU7aY3sgkk0KDOnnCR5vmnYty4qU8fPk9aOelm++mnZXPtP9dk7+/ivSH1DK7R2I2TEiGnS3rBTnl35G2lo3QZfwqiccuwXZHvDa7J523NuEiH5VV8/TCTOuZCC4RzOQyhqIHUiBIErLi6WsvJyTBwROXLqkdLR2SFLlizBZNIKky4XgwB/VgYY+/B7zqxjZdq0o0CK2uW5556T7du3d/uyjRs/QeaecKL6Ky1atBAap3xZvwEbJmPiycoKy6kLTlXT57bt26S5uRmysMf2DsFgSKZMmSJ79+6V6dNn6MWlS1+VPXv26HE1TJgdMNVPOOIIOQpy/Pn//izt8K+cc8Lx+pvHTz/ztOyAXEFoYDiRjh83Xk448UQt68mnnkR7oB+l/O+OPnqmrFy53BE0VHMETHiccOvq6rS8iRMnyXHHHie5ubmyatUqWbFiucw98SSZMGGCvPucc2XN6tWyfcc22bJ1i9aTWqASYDp37jypGjlS1q5dK889/xzaAQ8HIHNTpk6V+vp6ORE4FRQUyLPPPYs4a3r5eHGCZvsUFRVqWaNGjZI9tXvk6aeflqamJr02Y8YMbEo9S9vtGdR3M8oPpsjimJoxctLck4B5ljy16CmtB9sQvQFtH5QTjj9RpkKO3bt3y6KnF4J8tmof9TApL6/Q9DVja+Q9575HXtL+0CJ5+XlyGn6Xo79s3LgB9Xoe5XchT1D7Pg0ZCoVl1nHHypjqMRp3FXBiHMpRWloi8046WSoqK2XtmjXy/AvEB3c06j0SmM0/eT4WMwXlxSUvycYNG+S000+XcWjDU+afIoUFhbJ8xTLZsGE9SChcG9DHysrKJIy6Hj97jkSiUXniice1/7A8Loo6ed7JMnHSJKlFH1r84mJodcfKq6+8AjzYr11wcpXKee+dr1rI11aukCUvvwyZMaZCM02ZJkw4Qnbs2AHMFqHPtWmbHYF+sLduLzTV58jWrVvl5VeWyLGzjpOnFy2SINKxHfPz82UKHppefOFFyc7N0bzYr4jhM2h/krdwVghyjdP7jmWtAS4vv/oy7sGeBwBPVvseWgj0PDIMLblMmiGJAEdK3tTk+PQhe+MhicGcz5Q+X7OcML1aJk7Jkqi/E4SlSypG5sgxR46GRmUHYpAkkazxw+M3ELgHG8ypMuAbFvbNE8/rOulyoQHffkBPtjA3140HpLpyusya+G6ZO/v9Utf6AhZH7JQFJ3wAJtzPSKg9VxcTBPFqrGAiS0YUjpMPnXatlI4skC11iySnMCnnnvlpmVB1jiQ6g3LarC/LibPPl4aurbK39SmZc8wZUl14lJTljhHpCsm5874LcjNfapuehvh7ZPpRR0OW/k1rSWjdjpx0rvhDPnn0uVskGdot0444l3xKNYI1VbNk7szPyYyjZsu2uoWSXxSSc07/otQUn4S6ZsnkmnPk5OM+BlMrJhxcr6qukved8wMpzIPWzB+WyVMmyejR41KkipihPwygrfQQ5SQUxdP+qOrRctWVV8mnYRrcsXOnkpKf/uSnUlpSAl+1gE42TENNx2c/8zk55ZQF8uSTT8jr616XKy67Qo466ijVJBxz9DFy1Q+vkldffRWkYpFcdNHFctn3LsMEX6Ak5pKvfk1GY+L+xz//oWTpi1/4oidKr+/s7Cy55KuXyL/8y/+Thvo6lNsh37/iB1JdXQ0NV6fMx4T9ne9cqiTz73+/D+SyXb7xjW+CHJ0kjz/+mKxfv16+e+l3pWbsWGijIkJS8/Wvf12WgfAtXvy8XPyVi3Wy5iSajQn+35A2C5pGao6oeTnppHkyc+ZMLYuT/EVfuUjJwf0P3C/HHHOMjMPkTHITBSloh9aps6tTCgsL5X0XvE8JRy5Mz1df9WNca5W/3fc3GQs5fnLtT9TvLwfXvvvd78nHPnYhiMASeeGFxajr14B5HnDugYGy0XT9wx9cCQ1XUFh2Y2MTCMGHVeNy4YUfl/e+571C4rl02VL5Ouow85hZqimrBsZX/vBK2bhpo7bTxz7yMTn22GM181gkodqyWbNmyaOPPaoaL5rJ/Uq2OIY4ktgFAtbY2AhtUSdIdQtPgtCXyZ13/EpJysMPP4R6jVOcI52xXkRTJy7E//KXvyzjQbA2QY7Pfe7zkG+mlldRUSE3/+wWJaxsPxLzyy/7vvahcpCuH/3ox7IYuDwOwvWFz39BauDX2Aa8u4AzHyDagCvb69Of+SzMoWEZVTUK9b1KHxIeQd9im3zn29/RfksC9p1vXwrSP10eevABfbD43qXfk6+gTQMhjpU9gQ+C3/q3b+HhYr3ch3abe9JJSoapSftXaBhrQPAeQ/8i4f7+Fd/H+IiRBw8W7Odf/9o39AFh9ZrVeHBrV4Kbm0/fVWpwE/KhD35ISsqwcTj+XX7Z5ULi+QDkGTFipPBeC+DpLh+k8+uXfF3e/7736z2ydt1aJWr7M1f3SG9Hg4mAkbXBRD8jy+Zgiw8GkTcXOMA0yREjR0lBcRdIWquumuQgFU20Y3AslZrKfAy8eMk76IkjiW6gf2PlHmJa+K7R2ANdGjgiiCK0ICR71C/y0dyPc48t+m957Ll75b6H7pTNW5bL0UceJ1kFmBARi75rCRCZY48+CXFD8vdHfyELn/2TPPDob6SxeaMce+RZeBIeKZPHz5I1a1/C+V/Lo0/dI0+98L/wm0HJWEJaVDISvnNHyPMv/5889vS98uDjv5VV6x7HNdLc9AAKAFIUDhTJtElzMXGtl9Ubn5favZtl6pjZII8hTJQBrIz1YxuTDuTza5TzJ/nbP+6U1q5tMmPq6agV8EGd6ho3yV8fuVUWPvc/cv+jv8KK30IZW30kzKsJ+Svq+cJLDzttkU76aTN/ujg8xkRKMkC56OdHrd/eunr5yXU/EWqwHsQk8te//VU+8pGPSiTmtlRhC009copqk266+SbVIr340ktyw43XC8lANBqRs846Sy67/Hvy2sqVqOdmuepHV0krJk5ONkcdNU1Nhb/7/W9lJwjhY088Jv/85z/7Sqa/KVcR/KvuvPMOaHReAuF4Um659WadYMM5wAvaPWq4HnzgIdVoHDF+opAA/PKXdwg1dkuQ5te//pUSvlA4IO+Dv9aPrvmRrHhthWyAJuOGn92gxImmOf6jqZdlMgQxaRIbfvIKc+W8887TOq1YvgKavd1y56/uRP1WyDMgo7W1tUKN1vZt23XiZg7UyF144Sfkrrt/jwn3n5rmd7/7L1m7bp3MgkYyio2nqTH63e//S7Uqr7zyqjy18Ck5CmSCJmISRv5DhnLhxz4uTz31lNyHtmBZC3H8H7/9D5DQGllwyilyM9ph08ZNIKHL5ZZbbpavfe1rEspCfUEar0NbvvDiC7Jly1a59ee3KOli/aaA1FN7evcffq+yPfHkY7J61Wo588wzUWf3wEUsWqD1fO75Z0GWG+T55xbL3to6+eD7PyS/vPNOefTRx6Bd2in/+dvfqpZpwWkLoOGCWTstMI8H7r9f7v2fe2UF8Lrnnj/KOeecA6LVIR9Fv7r2J9fKImieiCnbihq+GdCiZoGo03Rau7dWtm7eBn/L72mbvgzNHsnjytdWyrr1r2t7+aFxosx0IViPc3f/4S7VnN13/31quqVP4tQpU6UIWs7/+M2vZTfKehmasrv/cLf2RdfiTmhiTuLFttmxY7vU7t4rt912GzSuK2TqtCO1f/3fX/+MdtgjTyx8XNuD2i8IoMSRbcF0DQ0NapolEaefIMdjatVOAvFbvHixHDltmjSgHvf8zx+lBfta/gV57oa2b+oU3MfoO6UgdP/7p/8Fka1TbTHvnXTtXxrEdjiEEHizM+4QqoqJ8s4hwGHnzXWdJMhMXigpE8fDPBlox0vY3SBOR3rxgYxAyzbz6BophFaClMAZstKHvkOrrUu5H3KRyk79kBAtFMjWQZrDmLMQMC00dEno2ZBZFNuK7KrHi+KDreIPN8uOXWugQeFADHlxPQFfNRKkkRU10FLtktqGNeLLwjYlHdtly45XpLxovFTAPJoVyIXpc5kEs1skkN0pW3e/ggkVb3hAJiW6iCAs22tf0WtJf4Os3rAQ2PeuB+vGib+iZLwU5dOXMCjHTaOppkMq8mtkFGQQ7FcXj3dKU+NO2VX7miQgd2vXdtm+Z6kUF+E6soQ3GSawNdLWvEnrVd+8Trrgn1NRPAoMwS8tHVuRR6NDiuY9VdmxcDQXfmPMV20WJxdnsqJk5AQ0X/kwYaNcTBYk5CRD1EDRpy0ITSATxzEhUpPCyYsTJE0z2TBrrlu7TidLagWohXv99fUw/WCFMMjn3tq9+I3rMP9NwaRJjZsfWluWEcLEuApl9hcoz6ZNm3QiZzkh5Ld92zYZOQIrDGFCIp7MKxhyslfXVMtimOOo6aJvHif8DRs3wgRZBZNalVCbtWfnbpgIsaAFE/ieXbXyOrRvSorwt2/Q3oRyq0eP0QmzHb5FQWhhKDfNwgx+f1Bx03OhHu0jtYJHQ5O3ctVKaMawLyHKJBaLQMhIHLQlYW6mqdaTp6GhXvIgY3pgE86dO1deAXmmZo15hKgJgnCjYQZeCUJMczX9yrKyQzDDbodGqR345MPEWAqt2ibFmGlamtpk9erVKjvxoIbsmh9fJ9f/+434/EzLycF7gRkArQb2AX5o9iaBpf8kzeUkz0HUl/mGcE8tW75M5syerVi4lOiOEJI+cjQLU/NFU3Rza4sSoRz49tFk+fr6dWpaJEZ+1G/5smUyadJkELQtamK8/ee3y1cu+n94M0qF5kU52O7sG8QtPZC08QGAPmO64AA+idR8st9Ta8y+QSLEvkHZ14E4dwB/r67Mi4QoClPkw488LP/+0+vlW9/5lvp6dsJfsAYLYagdvf6nN8rNN90it/zsVtXUZaEuTLd58ybZBvwVL8qHMmgmPe8956GOAcQ9Wkn3LvRB1vGYo4+Wm264WX52403I71ZdaMP7gXXbvGWL1O3di7x4HxpRS2/noXzcu0cOZUlNtiGCAEdaEiuaJd94CEKXdtwU7IEWaIbvVURNovTO9yXglK8rQeF742+R46cVyeNLd2Gko48cJxI+XR8qUYQWj57/KvPAvhn0A+IER7+qyvKxOrDxOC+3RMrLJklj3R44jsOnDf98mFzycvKlrhm/2uNSUFgOVEKYcIiN22A3BsJV19wKn7VSPGUXSFeiCZIH4EMzVjqjjTC31EGL6McTdZVs2AFH50ASZtJ8rR6H0Aj2nSMhKiyolN31y0BIwvDjGYMcWEZagNwJTFxHT3yv+NEsk8cskInVc5UoBJP5MK2+Rx7ccS+wFZC5QqzezJJIvI3UU0qLS6AhgH8SswNRyCsshhzQbsbgS5iDbU9AWjvhN8Y6dWGi4YQeIFvtnoVgMEbZDPRdop8XgFPtH4kMfZ+IK01gfPqnA7rnH0OzHidHOuPTvyuAOO0dbTrRJnAORWleWTnZSkoi0KxxssrLo+nHI4gBzZdltrQ0yfhxE1AXVBREmXmHw1kqW98/vEazICdoVp68k3VjUL8rXPe0YSyTps6ycVitysi4hv9aX07cdI7nJOiDRpTElIEYFaC+DgtE7hOozWD+bfBJItFjvIMNdJqnqS4/J0/aWpxjfgKrT8tAOuijt29p/efMOrB9ukkctJ/6Dxe4eKMEJmoGisa4XEhCopgAqeKCB5JIfnuSk2jxNzWgL774otMupvAg+WYexJLf+wTih7uDONJvr6urSxuFbZEPnztqihT7VEL2FRL39MA2pdaKpInHJCPqcI+cEzH4naE9oiSx6KN3/f73ch/No/Dxugwm2jvu+IW8tmJlenbdx5TJE9q1LkYS9lfWBfJxcUb5hHI9xnOS9nXWgf503eCkcvNj3Hj4wUf0QYU+bR/58Edk4cKFOu4sgq/gL391B8ZEkCoUxAcD4smFOnzI8UHb7vqXw3IvNIM05R459Sj4aS6Q21GHbBBTEuwHH3xQ/vyXPymZpowkwmgCdTvggw0Dq2UhcxDAMLpvi9k53mOGSzoG8dSgqwMqBtVofJciRC0GJ2IOmzT99R9ILtyHJIRHpXmY0LIwyYWwKg6kJshVjvrCdQ6MGExgrmG8/Mo2mTmxHHF2Y7yMoqz+/bXYWjRVdA/oHJkgZzxRj/3aVkt7YhnS4lQqsG7eP8pOuWjyjIPELNt1v9SMOlsuOOkmOXPm1fLRU38uBaFqWbrhTxIIo44Y/PySK2ec+A2ZXnO+zJn5FTzNnilrt62ROPaKi/qwUhSDdgLawddWLZJAgU/OnXu1TKv8oJx93LekuvhMWbL+QWlsWirrdy6RGdPeLccedTEWGXxczpj7LSy5wOSN9Lt3r5f6lqVy8qyvylE1H5UTpnxe5s74Inz7QhLC4E3tG6Y3JWGVxeNlwqh58uTy6+WX939Ufv3QR+WO+z8sz636bxlfeQbIJhYWAIBAfpGcPe+HMnnEh+W0Yy+RkfknyOsbH5EgtJkh+NmNrTxZzp5/uUypgqzHXwoVY7us3/KK0DT4npO/LdMnvAeYqnHYLXQAA6TPESeHD37gQ0qqODFXwcfni1/8kj7tU2tFE9bR9MUaN15nCWo73v/+D8jj8EvjFiicxBlWLFsBbVM1tAw1aH9OuD41udFHjE7mdLy+4IIL9DzjnwbzGJ3YSQhpfpoG37YymHnoSE6ixrgMzF81fMQL/8gX6FB/Epz4SbiY/tQFp+nE2dKIRQ+Y9DmbeWlWwrw5Z84cmTD+CCUDnDzffc675eGHH1btHk2mZ555tpZFosAtH8aPH68TIgk/5ScxYJ1CIMFHHnmkbIZmase2nWruOv74OUjrFlmw/nRodwsU/NBq0dfNBWp+SUYeeOAB+cAHPgiHcZKTmIyoqoTP0vthlnxeSW+MpmW0g7ttYcbjZI/66G2Ryov3yp//8n/yHvilkVwwXxJYruxdC20l9zHj4goSJuJ32mlnqMaosbFFXoHjPIkG25ErUY+dPUumHTlNcV2DhQxHTJwok+DcznJ5X86eczzafpzmBTEUF4pBfEnyqSnKASl/8aUX1Y8wR7WbAj+9AlkA/0FqozySr+IrGcP9TeKRYlBsVwaSnGex2IJbtnBBAFc8jqwaKaeeeqouhDjh+OPlFBx3gtS8uORFrUt5Gd4hDIJNeZU8Ix8lfBQ2FYiPF3SRBa6R4K9avUr7BrVj7HdMd8bpZyhmjE+5+A+n8aA2Qs45911KRmlupXZs0qRJ8hqOx48bJ5UVlY6kgVyecvIpqnnVPFCW0/wxf08KkT/BnPmFL3wRGCfVnMzFBotRd/oLVsHFRAkfet2C+QuwNQ782VLV6R4n0+SjjF5wEru/dq5/XDy8DoTVWxUPI1Lv4GWcftbOuRsuHRMeH0648F2bLnC6wTYTiU0YIGAGELAuaDH0M4DWi5RCxxcMzBzIsoNdMm1ymeTkUSPhti9IKAnjwE7ShG4J4iBYmUm/r5qxMHc1ZMuGXVvhPD8hJcdBfIFIxuLbpCv2GqyAa1A2adm+wRv72J5+DNhPv3CvJPHqqymT5khloArmjFp56LnfyNadS1FNty6UqyO74pvljHkfoSubrF3/lCx64S8SzPJJR2SrtHeWQfZG2bZzkyx8/jo5cdZn5LSx52OLihZZsua/5eWV92CCgt/b8zfJgpOxOOHE4/DUPxOmjhclWFAubdENWMvQKf985g5516lflFMWnAuy0iFrNj4hE8bBqT0Bh2xMUsSHW2OUlBVLc/JFWdvIdR8AAEAASURBVP76QhBbvE8V4wtNza9u/KtMnlktoVy3mq6rowlmo045Z8F5wKRDXl79J1m2/VFM8NCYQPvY0b5Vqkdlg1hciCf0Nnns2etldwPMkv64lFblSpMqPBxi3bihrLvu+r184pOflN/+9r9US8AZ5daf3wp/vDWqgfGDEHFFIydQTkhcrfYo/K0ef+wxPP0HNQ3bnlqB22+/Tb7//R/oORKu5TCD3QHfspzsXPgl/bd88xv/Ju86613qdL9x40adbKk9oFbpP//zt/LT626QZmiMuGEqJ8Oqqiqd1IPUCKYCHzDWrVurCxc+9alPYVLPhplsqdx408+UOESg2Ylj0md/pYqvASsrf3zNj9U5nASB2p7nn3sOPm+/VJPoPff+US6FU/lHQWConV0Gk9urS5diwnZ97rbbfi5XXf0jJbAhEJwnn3hCzbs0L/7izl/ID7//Q/nC578I01oLyEKuXA1fPJK0LVu3wox1s1x11ZXS3NYC4hEFQQrJM88+DTJVKXf+4k5dUVqIFZ133HGn7N61G/eV00yReKj87Cc45mpAR94cCNTucWKvggP6r375K11lSPPmn/78J1n92iq54orL5Aq0AzVIJHMkpNffcL3uP/bwIw/Jv178VbnlZuerxnYg1kSY2rqrrr5KvocFGCzfD9PgWjjF3/6L24BHTxtQig5obWm2vObH16KsK5TcFxUWya0336orLUfALH3zzTfLbpggSaDZr71ALVkMpEY1XzhJYkItJxd0PP7YozLywk+ofFxxS3/DW269RRcGbIJJ8fJPfgoPARfoghYK/b//ey+0ciF5CT6S34AjP/0Xl2FFLhcdkIxG8bBB7L2yKAMXIZCcUcP1E/jHXYEFAa0tLbr69vHHH9e6sV96gbJzpShN1R/Cgw19H7l33nU/vU59y+g/edWVV6t2mrKw3z8JH0Lu98YHIveYi2ExhQGJLh9eWOeHHnpQ+4WTq13+8Ie7VR7eE1w1zL64cNEiXaTCt8awW3v5ePIN9M1xMZ3cWbyBEHh7z/vKSyrQbq5DpZMPO4fJznBJwyC9I/qxMnKUjM25GSbMSjytcULCUynMjH7v0S0tOscWUjD+xZQhx9RUSWHpbjxlFoBYuK0yPCrIPuiDXxgnOZ5T3yXkH+sskOdeXCb1ndjcFjuZ9Q3Mncp9fvPDkAQBbI88KfVd90uHbzE0XTCF9iNfKnaqtfkLWphYDiYovPkAfkPtIC2xKHzKgtgDKxrEisoLZfaUD8pd910tyTBMhDBfNrdwy44uaO9AikBgg8FsTCTYqgD15SrNcKgKK7EKMOhipVl7A3zC4BQPcpTEitGAPwsmswoM/GFszVEL82MI/matyIf7nEFDFCgA8ajAZNSFyaMJpo4gtG/IG2SWleXAGwqEsRigGH5oe7oHYdUfYcuOvNwy7N0UlXNO+7CU+ubJHx75Bt6wUAkS2yZNbXVahxC2NvnieXdAiwZn+xf/CHMozJ8gLB1dO0BQof1EaxRkjwDZ5CvBsOgjBbL7otYKpiGYQ7mxLc2WTTBbcRJRbQgmaGpdTj/tdCVw5RXlEBoTFxzaaUpjG3Ny8hzIqcmhua0E5mNOwNxeg5M8/5HQeZo7ap52wWlcJzNo3eiTQzMrJ8ASmHcbQRroN0T/Nu7ZRnLihQKQm8u/dzlWTV7qzH24VIcFEAwcDXURgOuAqXMsF6ZAECVvC5J6kABOmLzAfyRx3BKC53bt2qkO5jRZEhxO+NRCER/WieSPWhm3lQQyRvmVIBSsA53UGUe1gbhA8x2x1L6APEhSWAbrWlJSrFtA0HePDvuhLJjeIAvz4WpL5kHCQNMa5eOjFlpL6+T9ocaI22QQt0Y4rzc0NKq2kYsRuCKyHHLRtEk/J7YB68M2IB4kQTQ9sr5sS26fQkLDtNwXrhQaK8rrtaFXpvftYUqTYSvID9uI8tAEy+0zSG64fQvzZtDy8c16hEACiQmJKPGgTCT3LI/9hHsalsJ3rhCbM9fuqZU25oNxhQSSBLQSbcXydu3eBWy4JyOr5pccENMOxZv9kPdBJ65xTKLJ373iiliqVhF93mt7kmtqdUnWuSCFC0eu/tHVWoYKT7lRNuVkP2C7cvEDXQfoI8d608TPvsv234P7A+IpzvSDpIbW82fU/HCRefHeceZejrKOWHG/ttz8PLRrmd7He/Vec7oZvV9wb6ffD8yP9egbPLzTr3tlpMe1eK5v9sXwrcRFWy89Q68B7FzPwOBhwu/DFRc3BPQM8nHBy9GTzTBggawpLvzLAdWjXThMDzqwRKUsuxRP0j71neBeRTSj+vDiTOijkA+mERI1DIzbd+7CRFEOwoTrMIsmIs0yC6ajZ5btgEYrPeOBjylRV3wH9mtrkESAKw77az0OUgzumnez+UDM2ruc/48STSyG0CmCWgpQFx9+J30dII+rXVoM/pwEufFuUtqwwtH5EjFnAUnsooYPW35pwF3nJk36pjC3Nmls5UWY4zjJYoNdyqNyobyoYH81vE+VZhB/mPQP10BgdTEGM0SzxLEooaULpmnizHMIfK2XQCPGRQ0kkPoGhwD8jaQWr/QCMWFzBhEbkwRgR1x8Y7FHe/sumHH59E3HbJbFqH4QN7cHGdMxaXfQCYgKqICupoO4kIETImSkNCALbrIDwcAkTmLBoD4/mGwYPKLGVkA1MeFGYQbepROVp41hXpy8OKHuAUlj4DVOcpzMWA7L5PYfOzt2atnEjHl5G5t2azpUZodUPZzvtVxmzhkbIQ4fMBKd9MDJjRuM7oKWB0VpVI+0MB4n3L17QX5RJ6ZVosYLJAeQmRM8tTAkaDS78ptBJ038rgUuLJ31TC+7Fdo21pn9i0SEgWWwrtSc8EMC4oiaZqDbpWgekJN9ghhpvlqCZtH9hxhyZSAJJIMuMsC3DwSJJIDtwEAZWBf94DflJoEjinSsJ3FS53sFB+/zBVZsJ9bbIxnaH5gZgt5xcBZkPJoqlZAhbRD1amlq1g/JjUfUXCr3l1ioT6HmAtQQj/nRVO4Ft/ChCfk06Slvfzj2RQa2o8OI/aanbiRqDNreIDXaTyGXI3S4H7R9gSnqxfqwnc86+2zVGHOft1IQ6Pdha4xrrr0GcbUBND8vT1ohGpub9MOO5C1mYD252GDHzh0an7KxLHZLtoPKoWinskvVOf3e8fDlAwq1gTt3OXcVNesjGfsXSZ9Xb+bkpeGxhaGLQCA3J+/KoSueSTZUEPAGVr3bMcDCZRVbzeIdlcEaDCYgVBDUh4Glv6CDvF7gsJ6Q+qY9sml7i2zc0iavb94tuaFKqOc58GEIhrbIj1dPrdmwVVZsjMMsCH+fLc0wQTbLtl3QZOBfLLmv0zjLZ+4qh5bF5QTt0hb5H2ihNko0ALMhyVDqWq8vepf3ugJJwF6S8Mei7Jzw+R2jvRPEshXEac/e12V342qQG0zM2OaDwz/JUAIjK8mNI1PeMU2nwAx5JHkdsXFEwFIfpAaGKAgfYMgPU+g344AEazrmCwSUBIGxohziQW2mq7f71h/IwZEsyASZWcOG5r2yfdcqacQqUCj7NC+WhGmH0sF8tUc273xFOmG+pXkaRbl8WR8cpXJ3J5FOAwvpGyhj6pzDD3uLQTuxbds2p7XhxKgS9SR0uRMbVxK/dULZTzym7i6JFewT9FrqvE6aaXGojdmze4/s3L1TZdU+miJqLNKTPz1LzS91gRO5VzZx4m8Si5507qpXH80H+aoc/JEmi3dN0zJfysFJPi3wGvPqM/drl2GhKj/jIwLLcHmlZcA6KSFJO5c61Jqw76UFVzquQB4lDMwxTSZXOycTj129tFQK010+zxAbDwcvHYvSvoFrzMXLw7tOLJmJXmbkVPCu82f6sV5O5aXXUqK449514zmvKq50lN+nIE9eF5fXSQ97B5eG/TSge6uRHHKzY5Kne+69B5paaoSZrm9Klo/64dP3Gstl0Lbidzo+qWsagdfwT/vcvtlrFM1bcUyL4LL3sjjgd1/5mMDODQ4GagY9YItZBEOgHwQKkqdKec4leEcozFogG3wjwcGGBIkLKEs80SjHjJkikyZjZWQAPmwYTAK+Qlm6Yr28vqsE5tZ9iVn/ZZDkBHUQJH+A4VFaos/L7siPJearA/WhiZaav0McrfopjAOqN9h3P/1iCBvKIV1mjv/eGJ4+8FL7wsmBk+sbDko0kNoDKC0jvjaK2gGWSXnSy06L9pYd7q8MkmcSNmpx3qrQt7z03+nHByzPa6ADRrQIQwEBti0D+1Mcr4/yY7GEapLfzH00FCpmMgwpBPZ95BhS4pkwQxmBdnlZOqKvYPsJp7YnATuUgOfCFMVx6WgC7RUOgfxpSo0P0gaiwK062qOPY8ViA35jAO2bd6+CDu0HSQYJzZsiNYdW5JuOTc0AfaT4ofz7zCMgWSRSb2edPKLGyrzdRO1AZRAFJWr7APHGoe5bp/Tf6ccHLKEfonvANBZh0BBg2/IfH9zC8Bl8u++jQauoFTyoCPSZHQdVFis8wxBI+NqxLcZybOOxDfwInlSHNMl4Gi5qWRiozUlpdHCC/ji99hnQOAP/oZaOuhrq1Pg3EtsknQmYKUngNNtU3gNnMbyvsG3oS8QPgjfBdFc6db7791t9AFLEf0MuHFKfHXLSm0BDCAGvf6tJ+i18CBhCVTRRBhEBI2uDCH6mF530wXEehKgzthEcoBlTMT2gDjKkTZKxOLdIYDpO5vxwNRvXvhx8ftwHjj5hDNSqdURXYW3mJmTnyIleSNFCd2x/31EE0tr7HS3XCjME3mkE2Netv7/TqA/78oysDfsmfjsriJ25/BulPb4Y5OhpeIW5lWoHV6JHxLi3Fre4IEmj/5DTvnB1mfOePrjcqIXDi3qQGu8ZjW2Tuuj/wAeOO++ngjrrez/s2xAwBAwBQ8AQyBwEqL6wYAi8IQToYxb3wxSaXIGl5dh2wFcpBeH5UGZhbzH8Ix0byKWf6yG51J+71/vg+B/yFUi7fwueSLHikg+mSB3EIoGDCdhpCblAFpg826IvSGPkUYkG8Z5CrNJ82wOeoD3zx9teViYU8HabUzMBA5PREDAEDIG3GAHTrL3FgB5O2emuDXhFVBKbY0RlG0jSf+MddNjwFSCoSTLNNLkvLtgsVOkcdGHYaJJ7JmGHCVAubt3BVYN8m0H/q0vVJ0QzhBaOjvN8+wG+WyN/x7YU/wdpngEBtOeQfTG3M4aAIWAIGAKZiICRtUxstSEiM0mZC/RWi4MkbQJhehKvMWrW3zRpDrzowJk8/dhDrL69Hpti8vXtpfiU4T2VRZIbLqXuzSug17cr1y2YV2KI1Z5tkRekJbIQRtDNWAHKjTF7pOuV2H4YAoaAIWAIGAIZhoCpHzKswYaSuKRDzsPMSRX314IwPYbtIcbihVDVIF2FKXHTY3k1cM8J3FCX5svVr9dBrbYbu+23yYjSarySCa8P8uMl0f1wLlI4ptbdumCGjOMNBc1dT0inbwX2VOvQTWCxV63G4F8LhoAhYAgYAoZAJiNgm+JmcusNAdkTWG1JKubRsTgO8mLTJS8wG28mmIP3Wk6AP1p+v5J2682QJgE/N74HIY5/bvMNbsYBE6tvX781pgtCBxdPNmExwU68XPzv0uD7C85iValK4imM+2F6/UpiJw0BQ8AQMAQMgaGLgJG1ods2GSkZFwwkYYYMJPMllKyQPP/ZkodFB9l44bvfx7cR4H2Y+Ks+beqTxl/4cNsNvq6K3+khdY6vvKGPmw/kLZHAC7pjT0sz3lDQkVgObdpufc1TejI7NgQMAUPAEDAEhgsCRtaGS0sOkXrQNJnQbTK4RhLULVkgOcmpIGvjJIzVokH/CAmHZuK7AhJ7mq/Ud/eCgjQCp+tJSeAi0L514uXJtVIXuQe+ac9jjze8TB4vSec7NLEewYIhYAgYAoaAITAsETCftWHZrINZqRTRgghu+45W6ZANWO1ZD9NlMVZ5Vko2SFdecBoIWzE0ZdmIGQatg/GTLzPXdPwDAgfyloA/Gs2d0fheiST2SCS+Aa9nX4o1o/WS9ONl5ghcRWrBEDAEDAFDwBAYrggYWRuuLTto9XIaNS1e9/aIY+PcOl0E4E/mQNO2S2KxdvHFOyQYHItFBCV4p16hEjVfEv5pWB2axOpO+p8JSF0X3o7QGduMFaY7QNa2SdS3SWL+vapNo/nUhzKodzPF2qA1uBVsCBgChoAh8DYjYGbQtxngwy97atagU8MXFV5JLEAIJvjeTh4n9MOVmr5EFgycZSBaedCM5eIbGjZfLj7wa0tyoUAnPs3S6d+O7xbQMhI4R8mSSJlA/koLkXGqRFy3YAgYAoaAIWAIDD8EjKwNvzbNjBph41sXDmTDJBVLLTpQTV1mVM+kNAQMAUPAEDAE3ioEzAz6ViFp+RwaAnjFVE/YH2EjWeOHYX/xXAz7awgYAoaAIWAIDDcEjKwNtxbNyPp4ZCwjhTehDQFDwBAwBAyBtxUBI2tvK7yW+VuDgGnU3hocLRdDwBAwBAyBTESgzw6kmVgFkzkjEcDCAyzldJ/9VqCv1q3v7/0mtouGgCFgCBgChkDGI2CatYxvwgytwEEvFuirVev7O0Prb2IbAoaAIWAIGAIHiYBp1g4SKItmCBgChoAhYAgYAobAYCBgZG0wULcyDQFDwBAwBAwBQ8AQOEgEjKwdJFAWzRAwBAwBQ8AQMAQMgcFAwMjaYKBuZRoChoAhYAgYAoaAIXCQCNgCg4MEyqINEgJcMdo3HPTihL4J7bchYAgYAoaAIZB5CJhmLfPazCQ2BAwBQ8AQMAQMgcMIASNrh1FjW1UNAUPAEDAEDAFDIPMQMLKWeW1mEhsChoAhYAgYAobAYYSAkbXDqLGtqoaAIWAIGAKGgCGQeQjYAoPMa7OhLbEvIJKMC9cAcGmAX9cH4Icvyl+SEF4ISyhZIAEpl5AUSiCZJ0EpEn+gQny+EsSLSTLZjs8OaY9vkKg0IL8unO+UuK8DeSWQB187xQ9DP4sQ3AX7awgYAoaAIWAIZDwCRtYyvgmHVgUSEgclI0kjgeKHhCoh/kQpSBk+IGhB3yjJDRwtQX8h4maBoAXF78sWv78I0UOIj8D0yQ7JTzZLPNEgkUStROI7pCOxVGK+XYjXglwTKAF/fb5UeS6p/TUEDAFDwBAwBIYTAkbWhlNrDoG6+LoJGoVJgoRlSTBeBYI2UcL+SnzKJOSvlqzgOJC0bFA5v34EujWfL4w0JHege9SeSQE0b6WSSI6UcGKURAOjJRD1gbCtgu5tG3Jvk4Q/gnhxfCwYAoaAIWAIGALDEwEja8OzXQetVumGSV8yANpVKDn+WZIdnA2iVgLSVgiN2giQuBwQst4uk4kkCZoXSNj8SJ+TSlMqoUSlI3cxn3QiblJ2g6Y14FzMS2TfhoAhYAgYAobAsEPAV15SYQ4/w65ZB69CJGtx/AkmCiUslVLgP1Vyw6dIwJevBM0HTRtNnQFq0EC4PHJHiffpiCBr1LwlkzFo3ZAMcWJImUg0S2v0efizvSId8WUS929WgyjzsGAIGAKGgCFgCAw3BIysDbcWfSfrg7cLcAFBEjSKH5IpEq5QYqzk+2dLfmie5IRmgG7RvNk3QIsGXzX1TWOqPlq27ti9tG3uLPVvSbC3WHyPdMXWS3vXX6Up8Kxe5HnKEMAf6t4sGAKGgCFgCBgCmY6AmUEzvQUHUX6+CQpLB0Cc6OQfF18yKKUxaNJCJ0g4OEFCgTHOD60/zqREjbSLFA8faM9cSDONDkTgEJGaOb+/XAIhauwKJNYVl3bfcsgSAUWLG1FLoWlfhoAhYAgYApmPgJG1zG/DQa2B42EgTokgtuOolrzwfPinTZKAv1gXF1Dj5vRtfcWkBoxXSdi8T093pFYsjbb1SqznsVqUJtIAfN9ysVghmjhZ4rEIvnfADNsI0tZJ9VuvdPbDEDAEDAFDwBDIRAR6ZsdMlN5kHnwEdNVmAJquHMnzz5Ds8FwJ+XJBpBxRSiip2lfMRJL7rsWkMKtIIrFW6QDR8sOXzadmzCTy80sc2jYuMegbHP0jTQRdo18bFi2QJCaSDfBhC0oX8o3irwVDwBAwBAwBQ2A4IGBkbTi04iDVwfmpweU/USK5vilSnvU5rPQshU6M22mATMHfrD+yRXFH5gWlurJYqkYUSixWIAtfXirtSWjjaFiFSbUwKw/7q3VIcxdJmdPfMR0DNWrcX41nE/hDOhcMjJKi8LvFH6sEByzB+ZdgDK1ndAuGgCFgCBgChkBGIxDIzcm7MqNrYMIPHgJwWgskciVXTpDirA/D/DkZxAm+a5RI+VXKDAntVwKHPl+bVJdkydQJuTLxiKSUVyTgc9aGFQmdEovEZW9LK+KQjDXI/OOmyKQJbVJRhMUJ8XaJRPD2ggQJGhcr0GzKcuC5Rt83BJK3gL8AZHEk9nEbi8t+6Nc2oFz4wmmeSIXMUxJpGvtjCBgChoAhYAhkAgKmWcuEVhqiMnJRQTg5CSRtpmQFpnQToaS+vSBNaF084JPS3HyZe8x4kKjtEvODgMWwKS4JFFRjEyeWSUERzkGTFo2HJCuvAdqxiBSXhKSivFCikRL5xzOvSiSZj4yRIJ0MkrxpGX6YYPMkwA135VSJdm6WeGAx4sPkShbYLWGabHZoCBgChoAhYAgMcQSMrA3xBhrK4vkTeZLtPwpEbQx0XHwnaP+bZdBsSarUHumQCF3VQnh3qB+ECwSKnCuJd4n60ROrRhaq9syHPdniCbwblEQOe3DEQMQam5ukJdIgweDIVG6OrzldGf3WUIL6x1HfFpacQDUWHhwtXfEVWHDQirxSGr+hDKjJZggYAoaAIWAI9IMAZkwLhsAbQyCYLMM2HdSqVYGMcW0nzZMuKHlKkTGqzkjKOmKdsn1PBxYOMCZNo/jGJ4lemMCL3hP+Dmy91o59OTokGYDfmz+sOTJuRxTLBqg9YxqYQJXkIU/9Rv5qEk1pzlh2EG9LyAseA01bGc5maTxfX41fSlb7MgQMAUPAEDAEhjICRtaGcusMcdlyfCfABHokuFgFSBR9yXq6E02hcWjMsoJYJZqFtw4k6Y8Wk9w8ECtq1TSuR+5SvmdJvsTd5ZHUzXBp3nS/y0oLZeLI8Xh7QTtidEphOAdaPejsqJVjXNXqpSgjSB3fepAdHA+yNh38rhTyUbNGamfBEDAEDAFDwBDILATMDJpZ7TWo0uoaTFgbqekK4L2fWXjJuuq01ATpRKO5M66aNGjMQJhmTMyRUVUd0tKWhyu5UlAIXzQsFBAQM2q6An4ed4FIhaE5izgtGIiXEivESfg7qUyTrOw2OW5muZRsr5MRhWWSnxeWNesismLLXgkEKmmEdUG1Z0gAGfx4EXxx8BSRSJO0JXZLDGSRb1zoG7j4wQXvItLqIfPhAWTUAEIKcoiTqd/88tKknern0BFFpvM+Xj6907t96frJ4G0+pTQ3vVosT/epSz/ZW9a3WSTL/jBHgL3Nc284zKEYXtXHQ3YSc4At9zq0Zu1RhRxaOot9GCLgbVPL7TUCfPdnkIsKqFHj+wRIl6JKXajp8oN4hUGOykt8MFq2QaMGqlaAV0Ql22DyhDaMTv/IJwnSF8NCg1jHWFn/eqEsWx6R+r1YRBAvwYa3uKHBFRJ8Q4Luy9Yl40ZlSX4h3lKQbIaPWw6+dyCf/rsxDbOh4BF4EfwobNpbiHgkSP0F1szVzg+CwvpRE+eIGuOn8idRAwnUwP3l+DnI4ErAIIX6UK44DhL49D6Pc6hw3w/p0hv9HKR4kIs+hx6O0EKmCDPL7Q5KXLt/DckDYst/FjIfAR8mde34mVIVymvhoBDwq3XloKL2jqR94vDE2TRrvbuC/RoAAZIMnQNxwH8BKYRfWCXIFLoQ5kZOj6BGOrbqMcja+MqxEsrCq5+61VkcfJmRbnmL+NnS1RmWlWs2yPa6HXj7AM8LtHCdMmlMFcgYXiUlTZqzJqMmDgfcLNcH4lBYFJQp1eNk3c5WnM9FvH1DEK+iCsFM648XI80eJ+g+0VKV0zne7R4neHVWAm+k93HlA8pNsExoAVUOjZ5Ks09e/ZxAImatf0mIoDEszqvGfnI+aWzdCc0gSGyCK1bx1gXGVTl68unzs+fCAY56aSVU8FSCvgXgtI/EkbJhU2G2KfWSMexzF9ARgvTn4InpAcTa9zIHYG6Y11+g3P3I2zcqJYzH4cuYJiZ5ddBVoG/0t+Z3SjaWPaS0BJArHocWGRPiOyGX1p9gH0Q7HRTw6A+8N4qKiqSurl6PDyrdYEVK9YOiwkJpaGhU3FWUgfBgfIbU9Rjaygf8AoEAVsN3SShMdxAOBQNg6qVnpIHK4LV+gt7JuNcCB0OWUvXqJ5s3dMrrJ6x9Hp7em7BoLMD7k3Xw6nSA+hQXFklLayveVuO9nvANiZKRiWyftYxstndeaJI1b+D3YzLPlrG6Ca3Plw1hOCngnsN5n2rD+BqoiBw/Zaz4c2H21LcJIDUGH+aRRGYBaLnikUJZ9OJS2dnIwaoKg1w+vnOlratVdtXt1rcbFBcGED+GuZw3ND6YjOl9xnKopioqKJMdu6CtS7gBzkNGiQp++OBLF0vskq7oNomGtiELDIB9gq46TXEFrQeyzgmVyvQpJ8kxR82TsaOPRH1C0tRej0mQplrG4meA4D39cQBKDXhaBib1kD9Pzph/gcw/4ZMyccIMaWzYK2edeb7U1TdKa8cekA0IAhGpVfCSq0KLee6vTIqSKld9Ar3oqXqppHodR+nn9ALpcxD+hYUyc/opctz002Xi2FkSDgch124USwbEz77YpZLv86UDMycErf8+l3tOaCXxsx+ZtM1xweHNKD2RvHPMKBqNyezZs+VTn/y0nHTSSTJv3jz9TJkyVZYtXdq7rBRG3VmxfJ7rybon/oGOUmm1rx2ongPlNVDZnpz9tbkn837KrKwcgfsmAa11alLbX359ZWPc9HIHkjGVTtviAHH6FqGY91OG9hucLygolG9/69vyyMMPYy9GfWLYJws9kV6uh8tAbcm4jJNebv+59n/WS98Xd/7G/69//Zvy1BNPSDAELTWLGUgOvYR+jfsjjvu9amSVXPLVS+SsM86SsvJy2bhpkyRisD4EoO/vj7yoHP2LeKCzwWBIysrKpK2tDVBQSASvXmm4qFbTXe2Rg/EGqhPz2s91zQ9p2b7hrGz53Oc+L88986y2rQ7tXp36yz8lXzyekIsvulg2bNwgzS0tPfKn5BzuX/u5C4Z71a1+h4YAzZycsDkOwV/NNwEEhqss3d2lV1TjBRoGc+EokKjC/KR0YIUn3dJgOEVKfpDeD3NpLEvWru+U5s48bMdRpOf9NHWC8AXwFgRqspas24NBK0+qalgOXyIF86oOMDCLIi8eR2PtUpCdlPpWzaL3H5UnF/nBpBrA5AXNXWp46h1P65Uikom4jBtzlJwy8yLJzR4t7e2QFQRvavX75b5nr5VtO17WSZB+d/FoJwabLOTv6uVlmsCgwpBAXtT0cPAOAJNkPCBVVdPliNHvkWefeULqm16WjkhCtm+ul652THkJvA0CefGpMY6EWletIxAPuvp6ZfT37ZXLSToejUOrSU0ntCyQNQGtk7Zcej7EMjUZhAP5cv6ZPwCWI6SxvgWLM4Iy79izZeyYx+SRJ/4TvJgaTkeM+M2JpO/TOTduiXVFxc/6ciLChMMJwbUZU+0botjLhf4rnJA1vzSZeBij3PGkBEEc04M3qfMc00+bdpQsX74cZvRl3dEiUZrl08gecGF7MHTLhPonMGGyrfgw4cfEoOTDRdvvX/YBTqZemjjyYNCHEsjenU9anbwM2SacunTLG+9k2rfXlkzanU/qOtt3n3qkpeXhBedfIIsWLZQ1a9folUTMVZzt0V+eXnJqefxwTejGhxeAj6sb+iEJeFogvuxCSbR13/sgLVqvw/2V4doLGWrXTM3cqT6ankm/+KW1pR/3kXf/eH3cw5T59KpfesYDHHfLjPqz3dP7C/OnVox5+qAlJ6lg6K8Mrz+yTSlPcVGh/OTan8i1110rtXv2yPFzTpD3nvseufeee3D/0sVk38D7iqG/e4sPOIlU5wh64xIbPIVhTU2NnHjCiXL3H+7WUU8v4f5y+fX0NT40XnPNtXLDDddDW9jg7iNUq78+zjrpf/YTJZm454FTer+N4Tzry3GDnZfYOJQ4TuIo9aNv/6JcXruRwLJ+zFtJLIU/jELvEfAwqrhV9dAQ4PsAePPhdsTETZ+zbHy7wYT+Xrxb6e3FPdNoomzobJHaprjkw2dNN1FT9VBq8MWd2dwEsrZjO+IWaV56t6raH3ctbkK+8zOeLJAVm5uksmqMEh4/XmNF/zXVqkWK8YTVImu27ka8MOJ7t76TRUVCzhg6MYnAZBsYCa0ar+17g/tBxpgvv7PDxXLq0RdLOwaQR578vuyt34ocYlIM8tnSthfmVJ/kZ9XIlHEnS1nReGnsaJTXNz8sDS07kEdUJoyZixENPngRvxwx7hgMbn5Zvvp+mDuXyegRJ8qR486QYFeJFITKpAEmgLa2XdLSVCeRdpBaSMdtUKYfcQ7e3DBSmmBS2duwTkZVT5RFy/8o2VkFMmn8DFnxOjYHhqYwKCNk2uTZsnnzRmntXI/FHGdL3d5mqSgbL5WVY+SFZX8B2VwvR1SeIuNrZiL3sLy2caHUNryAGpHIAHViDSJcWDgK9Rknjz/7a5ilH5BgbkJGjTkafonZWn+B5rKsdILMGP9e1Q7u2LlcNm1/STpkhxTm1ciE6jmyp7Ye5RyJbVY65JWVf4Ss86ElrZct21fqViwh+MVNqpkrdQ0bpbFxq+TklMuUqe+TsvyRUl+3SdZvflGa4v+/vTMBzKsq8/6TtU2aJmnapk3XdN9b2lIKikBZVEAURVGQQUYHUEZEQBEGVEoroA7bgAg6Os74fbP5qfOJUpaWpbQCBbrvTZvSLU2XpM2eN8mb7/d/7nvTtAV1PnVsmnOSd7v33LM859xz/uf/PM+5WwBmvWza2Att755KZDbC8nIH2MtrnrDeecN45drW7esA+LU+cFMFDxrw9+7da7t27WQwPwKeNZ73Rj1Vy0p83NhxNnDAANuxc6dt27bNB31dVzq81IYNH2ZVVVW2aeNGNmWmvQsKrRmVVGMT7cLkkAUj0bt3b9RyB61Xr16weQkYCso/dqwte+MNZypKS0fY8OHDYUsP2YZNGwDM2mqGAtDvfEKjpOqCUu9NAlyKWVkLuMzu0cP2799vPfgcOHAgctxnw4YMo89n2nZYlsYG9hzkL58ytSYSnr8m3T0VFV5n79Le7fWmO7Hdnnv+eTtAOrpnpVabOnUa/aenbSnb4tdETEcUP75GTOSA4mKrqNjLvbU1UisTZQAyGzduHH2pwdavX2eNjWyxw/05gLJWI4/RY8a4unnFqhV26oyZtnLVSubjKG3lM3nyVFuzdrW1Ap6HI2vJu7G5ydauXo18m5CvxhUz1al0+AirQ821p4KxAfkcGxQvJ6enTZwwkc9c27Rpox04cIC4URrjRo+14v7FVllZ6XWV+JW4zo8YOtxKS0utnnps2bLZqminvn36WPWhapeT0u7ZsyfOTD2suqra+nCutraGcg2n3wy0V1971ZtzDPUdMngwcqoADG/2IsbARPXuP6C/L44OIBuBDwE5XbORvtURKJhKXFjYx/vZtrKtXsZnnnvG+5qrQn286riC2NHCQ2kNHTrU9uzeY2XbtlhhfiF1iR6tN4L6DUWOVQAs9WWZBnQOFRV77JUlr/gh9cME/amEdlR6+wCLG5CnTAfG0q8HDxpMu4+3MvrMfmSsekycNIlxoIg+VGmbt2zyMim+7g0BKbWLgNQK+kCT7h2vZbsNp1wjee0jnfLybciR2iNwAbFevXJt2lS2gAKcbqDMlfsqffxXIXNzc23K5Cnc75m2mj6kkObv3e/t+Luh+8kg1Pi/JQFuFVbeabBqCrJtOjZIzVkPSfbWpn0MegM5DbsFtODOJgC2AEU1tS2AAMCeAz6lGYMtvnIX+8qJ2A1MeAerxOpoXaEEIseE3RWNtnp7OYCxPwxfb47/McELxqowzcaOmml9eo+2ZSt+ZpX7N1HaWhKuZ1PeXahtmy0ve6JdcsHNNnXK+y2nqNHGTxhvH/nAnTagaDJVy7BJ486yc0//kr3vrPOtoG+ujRlVahfM+CJ1LmBAms7APxLbPLOp06bZjGnTraj3cHvPjEts2IBpMJB5dtGZX7VTZsy2nD4ZNnLiYDvvrOtsbOkcmK58G1g03mZPu9IKYPwEmntkFtusUy6xQcUzGMxy7L1TPmMfPZ/4I8dYXu8m/AXqbPLIy+3cc66yYgbkASW97eJzb7Axw9+PuCVPDXvUHRu6dI2cpDlk4ExUyzMso63E3t660cq3rVSDWEn/ifbh8+62oYP6WXG/XJvz3ssoy2csmciz4sLxNmvyVfb+s69g4sgAxMDOAFzHjXovdfuU9cwoxSGl3Qpyx9pZ7/krK+6LWjm90C465y6bNnGGFRXl2MzpcyjbTZbN48IKsgfYrHGftgvP+WsbOmSQ5fVtsiyAy9RJZ8AKnM+kIdV71GZ88aCJIkH71Nc3AG6arK4W1Th9qrmpxa684kq78+/utEmTJlszTN7NN99qs0+bzUTWarNmzbJrr73WGlALzQRo3HLLrUyeCbsYdqMU4BVnM4zvX77py35uFirXz1//BfvQhy4BuDT5hHfRhRfZdddeRzmz7FTSvO0rt3m5BEQ0w/vUTJE1yT/88D9Y//79AWnZdscdf+fqvmwAVT6g8lvzv2Xz75lv02fMoI9Ntfvv+7arxlSPs858n331q7fZddddb/369ff8rr/+85Gq09vviCyuvOIKGzlqFMxkq33tttt5Ckh/ytpgN3/5ZhsxYsRRk7jifOyjl9k5Z59jhw/X2EUXXWQf/MCF1gJLOuu005DdXV6vCeMn2MMPPQJg5n6jWt+46+v2pS/dxEQ/LLpfqd/VV3/GRo0c7QVRCw0eMsQ+/rHLeJpIws4+6xy74YYbHAyNGzPWvvnNuz2e8nkfdfvi395I26Z7+W688aYI7HqMI2+S07fm3+v1F9C4g3YVOGlsaLbPXvNZ+/hlH3eQ+5GPfMS++MUbnekRC3ft31znZWuibQVC5t49jzql25Wfvsp6ZEdjmXKZNHGiXf7xy70fffiSD9M3rrczzngPi6OENTU32DXk8alPfcq7hdr/K7d+JVo00MZq51Zu7tNPP8NOmT6d1JAAx3oCLtVmAt9xMym6wM+e3btdtiWDSmirpGUBfMScelDfSQUBNS0sPnPNX9s1n7mG+zdp58yZY/PmzrdPfOJyq62pdxl+8pOfcibstFNnucqwhfp2ZEpaUrmqXgLE58451+bPm29z+GxsauY++bR96OJLiNXu4FxZj58wwYGc+ojkecH5F1ClNPvoxz5mn7n6Gu8jBYDae2EHb/jCDa4BEJicN/ceB6pi4j595VX2eeovc4XTue/uvONOB1+SgQDa/Hnf8jx6sJi4/fY7bCL9rLW1BTCeY/Mo36BBg7xf3HrLV2w4bS1ZdMegETuEIIH/hgTiAeTduo4GKAG4LDvYWGXryqrtlF492WoDlRwjVXybtbDJrQ8icXLvVgLSamnF+xMuiAQYKPTCpqVXTopNY081IFUE5t4tkd9zPMX6iUHpnZfPwNyG8WsF1VC60cAZjZvpNvuUCxhce9iChf/b9hx+FQAy2C49/1abOmG27VnIyhmg2thw0H7+wuMYCzcBVj5gpw69jAmqlz37ws9s6tg6gM0l9ptFP7Z9h1+3wtwp5CGVoaF+HWf9CwfZwleesLLylTAhWXbx2TcA6NjLTvUWMIapi1arLf47DdCVjj0dEfB6zbE9+9bb04v/CUhbbRnZ2TZ78kW2FdD1xuqF1KfFzj3jr2zyhLNs49svUDMBXzImparDu23z9kU2dPhEGzz8eqs5VGkVB7fYhs0vW31do71n1get+kCjLXn1V7RH0qZPOs9Zvbc242nLXyayW7psgW3Y8ixNT5tkttjqdUsAm5fDQp5uqzdstnHTTreGpoNWvnMzwOs07AJL7LlF/0Tee2300Jl2+owLbOSwaTBLZUxGCWSw3BYv+1dLZLJHX2arvfbWrywXNiWZ5Le6WCp4C9G3NPGee+55zoSpn/3rv/2r7d65y38vXvyyPf/8Ih/0m1nxX3DB++3ll1/mGbWjbeHC523pkqX229++ZsWwInJi0Uo+XjCov+lP9l/tUhnxu29RX5s7724moBaAV7GdeeaZNveeu2ET5CRidu3nrgOwv88WL17s1wpMtgIUPwpw+da9823Tho0+4W7csMHm3TPP+7TiiLV78sknbSPMnFSXYmNuufkWu/2O21AhZVgdoPKhhx8AFLTa0wt+Yzd96cswFiOxcyr3yVEikYopUhPSFIDHnkx6C5552poaErYKNkt1E1CIJ3ExkQIXP/rRP9q6devtrTfftPzCAldNf5jJe/78e2C69mgOt918ng2o+/VvnoKFyrEVK1bYggULKBsqUtL8R9I466yzbM3qteSTbufNOc9Vbvl9CuzKK6+0u+660/Yf3I8ck/bJT15hlwGuFi58zi4B+Nz19TsBRNG4ICCmdCR7yTsuq9hBsV8LFz0PO1tjq9aschZrwsTxzljeQ1k1pEgFPPfuewAdY10WkuvceXNd5hqFFix42hrqtGWQC4wj0cgUt7kaMZv7Jxv5/Rv9SPIeN3aiFQFM5s2b5wuBpUuW2Nfv+oZNhm3aQDvqWjF4MjnIzoLtTzGD3nuoA6e9KnrTdwGuawBfy5cvt8999m/ssccetUOHD3v7qY0EbuKg+AUwqyUlJfb1b9zl5gEvvvSiXXXV1c50qSIzWGwspt6vvvq6rVyxEmaw0NuwIw3q6P1C8kyFlStX2j//9J+9X++Hib0Zu7unn/6N/eKXv7ALP3ih/eqp/7J9lftgTE91ud97/7e8H7zM/fTNb9xto8eOceAnG7jvfPfbjJ0ttvS3S+3RRx71soqhHD16tN0995vOoup+uPTSS238+PGe52f/+nP27LPP2tP0Ty1s1qxd44Dt1ltvsav/6mr7z//4D3vx5Rdh8zNhddez0HkEuUVtFdehu3y+24zbXeof6vmHSgAQciTo+xFV05Hj+qYbKYqbhtqrMLeIm6smHms7omayqhUAEZsTx+842elLNivNXrk5HIGRI2476koNXEV9cmxoUYntOsTg1p5DWn9sV9ZwzXNJAYYCRWl4sEql6/XxwRXDWAbQEjxcD+zfZXv2rLe2vBo7zIC/p6IcteMgVugFwpMAkkrUf7upmkDQ25Y+VLY+mbAZh1H/HER0zTx6q4Jno/LdwZJySYdxGgrQq0PN9wZ2X42oE1sAUEt4nuo4yqL6E4v0tb2IAKo8OCU7vUuS7ck0q6wqZ8Lbj8az1voWjrO8zBKcBVptxIgSBuoGGK4ia0yTcbFU2Ky6/UommPZGW7T4J1ZQNMoGl0y3kSVTbOLID9iwksG26KXnrG/voTiLDLOPXnIVBUBt3JZraTAFeb36eRppOJTsqyrjGEwkTYF1ie2qWAezus+m4qixp2KhjRo2HfD3HGwX264MGGY52UV2/pyL/JFiaTy6THNbP2SwtxLVEunt3b8ZEpe+k8HjwmD/Gpp2W30jqnbaI+phZN0p/ObXv7Y33lxG3dS3kCyTnSZQqYIEUmTDJ7WUJkSBmB49s23JUk24X7dRo8fYC4sW2uZNm1GrRyyGAwXS9wmcY1LNR/ZiSVu8ZDFgPOFsiVb7QwYPsW8wealcmmjl7daAutADhclgIsrI6YGKuh95bHTVpMq1ffvbHao0gSypzsrfLnegYDTRug3rUJUVsvVNrk/izzyzgHphhkA9dB8sATCccsopVrZli2XAUnQOKrcA5vbycmyPHnSA8uqrr7rKNgYSiq86/fIXP3c2UJOwJvxdu3dRh1wY2QF2E4xiFC+yF5L6z+8Wrlu9epXLUWVRgVYuX8Fk/FGe89vL1ZRiWX78Tz+y8eMmuIr3VpgoN6ynXFJxbSvf5urP3TBMAr5SqWnSfu311xysecad3uoa6slzNQB3vr2IMb/aoRETArGQAgX333u/y0bAt1/fvtYrL89VypKT7MwyuQ/VOaR+VZscHehX6jipIPkJEImBFbM7ZfJkz0Psp4JUeDLWl8o8uo/8cMebbCEzNI74PaYoWnBF6SvN2diOCZQ+/MiDdtGFH3KQ8rXbb4MFLXYQJ/ATxxfQVzsvf+stb3cxcHQIgNWv7ZOXf8rz/NVTv6KtbraRI0c5WN25Y4ffB/5G3vx3hKj92t3OU/06vUe6mwqI6RJIlQmA6q+FmED4BBg2qfjn3T3fZSRQWozKvG/fIlcV78S0oL620XJYmAuEulqf/i5Q9ibgv66uARaNRSXTxgsvLvK0snMybBoaBqlIzzjjDO4lGH7kX4BzSTHM83QWED/9Xz/1BZrEthf1qBYHyrs7hj92huuOMuumddYNEjNNAjFHVn3HCkSkRyas1OA+A1Arcn/mCthh88YK3reH4PuwwYW272Ce7ayStyGbsDFgvFPI5+kHaBEYIGDXtPeZBw1UB+y06cU2rrrV3lxbYXXs1fb/HQR6Uvd/xV4YtVFSh77XlizbAmjSOQ2Zcm9o8RVtTwa0rGwBHIAAr/xexa6yaWtlouEviZpXDhFYwTlowXyNAOPSAUyzOC87OTxiGb3aM/jOXwIVSjvpZmZzHROBVJO5OYV+lRwqZI7e7nLSbYvnrXKj7I55OdvOAN7MlimQb0xYGUx+CUsQfzM2XmU73kQt2kgsqWqwgWIj4kjmtA1xsDS03KIMO1C7wvZWLbO163rYnDO+hkp1CDZ6he4ksm9fub25/v+QtbxzKQKvSti3XiWzaWRs4KgPmmAOq24orJNVtrHsdTtz5hV4v34JFU+Ord/0CvklAMUtqFCq7MU3fkHe9CucQTIB4vsPb2dQz4WZw9ECuQuY4XbBOdJrExNIrQEqScqsuitIvDomWyqxEc4a+Qm1G3+kkfrpn3qTSkntuoMJ7Ys3/q2NxTbnQlSfH/7IpfbAg3/fEe+dvghsaDLTZKmg9FcBWr7/5OMOoMWAJQH6UpHGoErxPE99IahIuk6MZBbgLg7uCIJwI6eHJDaM8rAWOI/qKLs2SVhtLzWvHE8U3nECIw/1gyd/8KT1L+5vp0w7xYHpD3/4A9sKSALS+rUq47LXl7mN18SJk2F5PmdvwfY8+/wCt+179NFH3I4qYmWA+NRdoEoOBboHxHTozx00YNMEKC6GkRMIFDhUkDpMLOH999/n1yhrnZeDyWiAsuro4Caqjk/afuExbwLgjz36qA0eNtQmAATugT1T/XT9c889Z88+94yXw/NUG6AWl/2fVM4eiEfGlJ02FLv/O4LASmyfp/qpXykPsUCqu4BFK32yJcFYyPdImr8jwWNOjRwx0nYDisWYvfzySw6sBUI3bdqE7eWuo2KnI1ep5/N65SH/FurDGALLm51S4cqZYMvmLc7Aii2+lH6sPvr4E4/TVsePrZ3vizgj1VFtLFDbOeiY5PvUr58ygfm430g12oT6VLZ96kP6LSEkKZdkR3LOlMqeTWVV/1CbZwEGtaBR0KLphz/6Afapez0PyTTBgll9QW3dWaiSr9pAfbo7huNbsTtKIdT590qAoTR6MgE3nIBFM5vSCjwkYWi0ZQfTgu5NfrM/GUxaaWG+TRnZx3rk1QISGAQ4qwmMGLyg+DMbWQG2Wu8etTxs/QA3NqkyYSstGb23wfoM69MOaMqxrBxAjYCAKBv2P9NAkExr5lit5RXChjkwilKO4aSXhZxaASWJ1u0MJBsYDHT2HYKjHSZFAOaOvatt68EFNnX4R+zsGTfaiP54RBbPsffNuAkmYJCt3fym9ek7zGZji1Xce5ZNG3mp9ek/1Lbv3WBNbTg7pLdZCw+fx6wbdZqGNfLPhMFKRw2sOgh0ZkaDYZtYQtjHVgYmeZFtw9M0A9uz95x6PerQ98JqzUGFeDFAKQfZJKy6Ya+1ohIcO/wCG9L7bFSJF5N6u1XghJDJINaEXFow7vcBju/Vh/ZaZc0aG1gylmPZMCq11q9wsPUqKiQ9PRmiBS9V8qZdRgw8za78wBN25rgbbHTfOTZmyBwb1G8YRuW7rOrQBtu+a7H1w7A4L7cP9mCHLadHPrYkYwBQal8mLGSX9EE08rjNlF0jbVy+Z5k1tG1nz72zbfue12AW2f7EGqx813pW80kb0HcMalaYQPrSwEETkQUgV96IyFAOG21srJxB31Cbjxryfjt10scsM9mX+EfaMv6mNpdRvyYXMRdiPjRBKHifUQQP0ZckDNWUKVJDm63CIPqH//gkdoXTaOccN7YewWSqiUsebkOHD7WKSoC82pT+6YEJSKFs61ZsqPr5BC7GpqamBlanvxulywtOExTFRw3aajuZnGfOPJWJOeoD41DfyYhbk6fKWATzNmrUKAcxAmPTpk11Q/b6Gp6Zyz0mBianZ64vErLwupVK8q3lb0Vedl4a1TX6InCoiXTUyJFWWVEJC7PAxMzJBiuOo5hSZ551zjkOTF5+6SV76KEH3XZLBuL5TLQD2AakprbG1V1iYQbBtirtBIDbRRHLg7QymITFip1/7nnYqJ0N8/WKT+Ri4/KwdRMTpX2yamA3CzCMLykZBLtWTh8tsQLGDLGNza4CPZv78fjpSWzO+IkTrGLPHtRnz9nzqLAFQn/76m+dxRGTKJWcnDJGDCsljwIcQJa5PZcD3VTF5XSSCdCVU4kM2B0cABwnYtcoQ3uxbjGgkIzUPkrH1XekIYcV2X2Vlo60XNg7H/yIJ+C6/8B+jpf6wkEAZvjwUge3qWZRcgQAPn1O7Jr2GpM92+LFr9jry163j2EPtmLliiha6l3geA3OKKdhQ9gHlbL6ilS0l6FWVzmzcjLtbNpQ+YvdfOQfHnHG0ntqp8ZW35W3eTrjjr6LxeQjKj/xNI4oenSc8/xW3SVfqVkFoFTv2rpa0/0hdrTjfiAdz0/JkYi0CZu3bAZUT8Dpop+3rUDdhy76kJc50dgGi/uKTceWV32trr6ORVwrTgqTnLV+ZekSmzF9hl8nu0YxcDNnzvTye55e8KPEdFL/iODtSV3FULk/jQTEZHAX+43Nijgp+yyxRX6ATw1FDK5MMOnsvbazutKKawpsQO8s8VHHFaGdSbl3XrqdMX20rcJOphJ1ZtKk7tSWEAxwRYNs/Cg2tBXYyxSQIyeyknNCXI40gNvOXftQF4p6Oy4LjuE/2oZasHWttbRvIMK7rMicWVP5/RJ7YemP7bzZTTZp7HSbNH4GA1Y2adRY2e4Ftm7zf2EIXo9aZ7ZNmIRxN0Bnz4HnbeXG/2vpPRutKbmNwQRmyOsMeOKJDU1t8jCEzQKQtbZXIY+tnMV7C/Vtux0CkFSQ/tt4cFXa8rU/selTPkjdr7YkRFLNoUYM9GEekX31obdt7ZZnbBI2b2OnfIFypdmKtQtgo1ahfmiDu8NLtH0f1Y4YKIHfRa89aB8890b7wAVXkpcG4oQtWf6D1AAb1VmM3979G7FRW20zZ73XTk2eY4kkRvoNu/EO/SXOIpX2wus/twvPy8c261LSyXKVavmuVaQDS9a+n710d5DKYcAnq+pUl9BnPSrZ5eufsvdNL7IVm5+xVgeySVu/bTmA5uc2fdolTLZnOog9WL3TVq5P8FiwWktkbGZBQLoCtJRbg/PoURNQjxS5LZycWOKgKV2Tw1Wf/jSOAahVmRB0Vl5lT/zg+x5Nk7gTYZzQxKz4CSae4Xj6fQFnAam7SktLUSu+4hPFiy+9YN/+9nd9/zZN/vIY+6EQAAAUm0lEQVSW++Y3v8GkGvUhXa+gj0OHDtlPf/ov9sADD7maRgcHDx7sDJ1PepQmYhSysMH5d7vv/m/jEVfu4CgPWyp52wmYKc2qgwcwYL+Cib7F7X/keTdv/jxXfQrIyBv17rvn4tG6w6ZMmmiLXnwJb+DtR9hEL5PSiiCsyn4bTgnyjhSLOHv2bPvu33/XCy4ROksIwJw6dSp2fBfYBuyCpG5bunQp3SLDnnjyCXfOWI9Nllgm7Wd3/333elml7hIDHOfFF09Ptk9iGsXsHNy331kteVV+5zv32+1fu8MncIHaYcj04UceZkFQ7/L7zv3fNdlQydFCgLcBViwaXuJ+CqsHkNNeW9u3b4eV2o0x/+n24IMP2K4dO13d9thjj7MtzlL3YBUweOjhh6wGoLh27Vr7/vee8HrJ4zYHgDrv3nkwcc/61hkynFcu8pCcd89cB1Buo0idHGxTkJ1v73AgGqWzxIGnVHcPk4fqrpCJJmA54PkTH/+E3XH77X5MziTNOL+ojeOg/rxm9RqbwuLge499D+C2CkebIso9ENuv79oXPn+DPf74Y86yxdfUA2bEbD300MP2+uuvO6gvKyvztm9panW1pLYBkcpXasvNmzdz3xwNeAXmOsBVnLA+/b5gnKVNvb7EE9CSA8k/APw2YR7wxrJl9h3uCYHGvv20V1uDPf7976EG19ZK1B1wFokhkoVYV3kAC1A/8PcPOMs6goWDVPbqG7qX/vlffmJfvfWrds/ceW4OIAePRS+84Ezsf/znv7sziZxP5I2qBZG253GGV2VOyVxfu0NI69enfyTZ7lDbUMc/QgLczQpipwBMPZJDbGjuIwCGfq76EfOmO14gBesc4tTY5KGjsAVqtGa8EjVAdB4kXB2Kriwdr9K0ZA+2r2hnxYadVhOPqcrOZCLPx+alyZKZ9UzYui9lL0N8eqv2gdKN2t6ag9H5GqusG0TaPbx4nOAzsrVIsnqsSyyxmgTG1faatfKc0QhJpKLGHwAMWYT5n18uXizPCnqVwDpA4RPvUN1BgMd2rgdMAkYL8gcyCeWjSpGnaAUxsHWDBerJsST1aUpgRM3Al5nRw3pl92eLj8jQPTO9J6pNduGuZQ85mKP09l6oNgqYmNiKAq/TPr3G4FAwmkkQoIfaY+rE87CTK7af/OpW2BTKzwTUr2Ak+eTCUjXAeu2kfJrUWqx37hDUDlWwiLB3pKZXBrZeWZn98NIcQFl6Wk3dAatteLsD0Pko7bXPptXyraigBNu8PBiuVuzxKmiPSlg/tbm2QMmh3qPY3qTA6psO26Fa2S5Vo6Lkma9sbXKIOkXqVQmW9nGJ4nyAA0R+zhA70LDDy6m2lKwzAKt9sIPLzZVTR4MdPEx67Ocm1WefvGI7XF8NyNWCgBag3+VmI3MYiMO1B2gGVIwpwKZJQXZdmhTVVnHQxL5zx9swNoUwOTW0j4AaMoEtKGDLBAEjBbE7Yo+0o7rsu1RyhVxUToNgfKSqkVrqMGyQ+mAvjotxcxUZ9VDCAlKFTPTyTFT9tjDRSW0VMRRaxERpqlV6osocNWo0l6XZ+g3rYa8AJ6StyWju3Hvslq/cYkMHYyNIXgIlmujFyl2OQb6A3Y6dbwMGB7FlxX7s+wDnlNUn5VQeKn8f6tcAW5FATSXWZuTIUa4y2wnIO7D/gNvMxWVSfF1aWlrqdl772EZEYFDpSl6q70gmWZVXIFPAS2yQbMIOVh10Nkfy8kAcvwbGRXIRwxUHmQwInGrCTgKetfmrtgNRe+ga1V+emocOH/ItWIqK+noddb36i4LUqXIwkAoxCyP+7QDVQ2y9kZmZBVvZgoPIAGwuB7ujx9ZtZc5uSY5KXxsFy7ZQeeqc2klgU7Z5sscSCCgv3+ZAGayCDAtp4wYHiJ45bwL6YvdUzmYciDbTHmKbpIaW00k1TJ32EuuBqm8024g0NDX4+Cij+vvuu89t3yQXFzifYoAHUyZ568qbeeu2rW6DlwejqdAMqPVAXIEo9TN5dGoxUAkDqH6Zn9+bNtGu/jDAqIedCaUvi7FUkOTiPi2GTnZ81Wz1IVAsFrOFl/qP5CEHhj2wlvou1bFY1EpMQ+Q4INOFQeQ9iLprEVC2tczLL2eKfPq+tlCRelly7AeYE/sm+0rVUbIXOFffUpsV9ZGtGwtx8pE4Ro/Cgz2vFxuc77XdAG9tXaL7WvfemNGjYWyzXE0vuar9uuMTDAJY8+4c3n6/BKLBkpGHqKgI2vJtWM9HGCQ1iMNkpFaNmqwFnJIwSpMGjYaBSlhzZpXflEflAYgwPVidPyAYEy/qT22Ki1U196gP4G7bBEARkFLQexYTv7we0xi0Dx9Os0WoXJKZqLJ0kQd9HgFr1c0/B6wtBDCu8eNRnGPeO4M15ZIaQOS9KnAX2WDx7nZzlBvAJns0B6awV+moOD0wkEercMoI66WJxQEqskmSh+rqge9pDGg6IhDCF3KFdcP774PnXGulJacwYNd57NzcoTyw/jV78a0fIxTUqYBhDbwZrj4Vi0l59SIP5gsXg6CQH4PrUnNFIJljOk7JNUBGQeVJHUNFKyAcsY+skJWEx6V8fFMacFF8ExlPW/EnRk5B9XJR+a9U2srYQbvkxnf+WzqqH8XRz0gm0USkeqkveEEkH/KUnFWupPqKWAJdqjahsmmaUd8laPIUixDJgUhezSPx48lLl0v2OuN2X/E1qpDqjFwjMMHvDrlFcT19JUCI0xOb0/l4dPaYdzVUpyBQrzz6MIHdd9/9bPNwrQpFOpKx8sIjGjXQ5RiSb2WClIosAxumdvUvlxeRj5WF8uCYy9TlFtXdf5PeUfG9/0T19a9cF8svjq+yRBN6SrWMLDyOku0kl6jAKnyU3lHn4npzSnKV3OMQ5+O/47rE8ePfcWQdV77x5Z3OezqpE52/61L9jouq+8aT6FR3Tz6OoB86pzxI/9i0dLMpDYGnWC5+PW/5qF7l8PDmW3jVAojETv0Au7rt28tdTezx3qnMKlNKLgIqUfZxJePUo3oc+dVJipJLqqzx+U5no0NxHqk+oHx8DNFZZchvr6vGdNLzsSJVVj+TalaPjnD8esCp94+4QeI84t+KrLIpSOhx0KFjyivx+8a5HBfoE/hTHgpxOeO+6Qe70Vt43FQ3auw/qqo++XKv6YYmpMHk5Nssbqz+3JIygtbUq4EL1ivlmVkH+1Ja0gcwdeRZbhFwUApSJzEgkJ6GzfZ0bNBgcJJS4WGsLtuuCKRpQmJg1CDBJL19e42t33zADvOIquqqTNgaAFw6GzI6eFC6UfBUSbs28TNsuVj9ZvDMPk1spHVsiDaG1YCg4Uh1VP0oFS+BLHmgOiDhWkGsVCz/xYiW+h2l7GMSwEKDHpd7kLG9goM/gTOuEPBIEjkaLCkX3yXD/fsOsaUArFoiDTDaaMvXLbLVZb+EFWSDSa5V3pq8pW50b1pvF5VaUozr5hLzIzrmqkkfhJWzYiqeQFdUZ31KBiowONTrqycoRN66iqu09SEHB85jl9dZCv5c0aPkrxz0FwE9L4Oup39kkIEARlQGxuqOlKJ8hC59Gpd8NEhzWO4PkrN+a6CO+kzErnqyelP5JfxUPaICR2ddZkpI51Ih6q+kR7oKfsYr2RGBikbnVYzjw5G0dE7pqGwUMoraKa/jrlWUTi9d63nwJsN1bTyr8y5DlY/jkoqOyVtUtodxNb3kSuvYkDoWyzm+wO8/T0+tEtXB5RPnw7noOOfIJIrBZ6o+/qmDpO+syLH56jdxozSjq49E4Tj9She73FNpxuc7urIOKI1jAF0cz/NWGqrjMXWPS+xJpEofXxerx/Wp9L29qG8cBBKOLGQ4GpdBbRtH6vikfLS11yOVRpy3GKgJ4yf6I8+GsQfdU3hpikWMnUE8iSPZ+k9dK5kp6HvUx4/P1c+rPCo/r0gAqe+dyuFpvEOpuShVb6VEXpLFOwRPW8XpJB9FU5be11M/vITEU36dg357H+g4fvR5j6u0U/WI6xPlGx8/kldU11QOKlc3DIFZ64aN/qeqcqF92IpyPo+tQm8HIjKoj+wyNAVjTA/LNn1Yf2hzDKLZ1X9/1QH2fMq1wiLUfzgWALN4iZ3RAK6NWSOmJhqFOcSTCeRo4OfZQb+2JmGL35LqTZvCRpOKzF89+GSjaV5nBD4yoe7XWkXiHmvmAe7JNKlA8dY80W90ZiCt1lWHOGTGzF184M/9KdCh7I8ZqP/c2Xb39NXm2gtN2x94SMlfxzX5iakVc9cZIHR3mZ2o9ZdXslSACtk9I8/ZE7WsoVxdQwLBwaBrtNMJWcp67MByW09nJ/3xsFslgDOpMQW88OYDLKWnZdvqnQdt7S7UoNg7yci+BwzXGZP6WX5xvKI78tkGuxYxPp1WYfIMBLKlwebkYLybDmuVhN6RGjBapadE4yt25S3eRitkLMBaFqE0lKcpKjTUrkfWrqlrTsAPreylEjsqHMFtRx0OP04uCQiQ+T5V3pePcBXxN7FuEYZ27vHkqvxJVhvty6ZXCEECfyoJhN70p5JkN0ynFWPwppY12JDlA9aKmWoEhwBaUNuuInE9BZ6DmmF85/1sHteU555YadiioexzqUWTEYpMbfeAR6i22BAzh56B39HExG5UgJh069uryPahJuzMPCkRZdGRP98Tbbt4vuc6GLXOnqidQKAuOgGDsyaqjSrUEf6Ych+VUEeK4cuJKQFX/TlL/M7tFqmD6A+B9TwxGzCUKkjgzySBmNb4MyUfkj2ZJaD9shqTm9ia4m28pOpSVY2BBXDKJxQxWnoJyLE5B49qkjEqzoauOnU7LgcnrRjVt7Gn1GE84zBk17MrZUAtuxBYMRyWULfipYhnkcJRtiX67UfpzlLFwqc1t21lD7JyjutMXCaPdGK/qbgyDPMyx58ndpFD6f50EvCFy+8CYjr3u87/6YoSUgoSCBI4gSQQHAxOoMboakWJdtOvZ1cHtigAIqVn8MBdtqYQI+ZgQwyBVJgOPMS5Ae8SGEez0792qdZO6NlZOb4/j9i0bWWttqKsElfxwzZ8wFjLzqhn24Esa2rMtrJtB9g9fwuenTyWiK0zFDpDGTdLR+3ahp1cc9seNpB9kr26dnscj8ybDP11zQkdxEbGFYs//6cLLCviEIIEggSCBIIEThgJBLB2wjRF1yuIvAyT6Q3wWNW89lrPtLEYQBcB3I6AoohRi+rm+6/BslXXt9rBQzyepCGf7cF6W8/MQjtclW7rtuOxmVYE4Mq26oMtVtCjv5VvS9qKLdW2r0b2OsXYqrEvW0f6sHUAQnlt+vPtAImJ1pV2uPlpq8l45TiBdg0IEteu8+dxVfnzHhC7F0KQQJBAkECQwAkjgeANesI0RRcsiFgg7fVAENuVl3a69e/xVctO4/Erzqr5GbQ2ne3GPDrn9VxBHU8AwKQiJZ1UWoohbi7aV+dYY3udUfAYkWec/862xsSzVpV43ursTXbBryfFrgHPvPjhLUggSCBIIEggSOBdJBDNtO9yMhwOEvjdEgAMpdR2cFoY9K+3hpY3eKRSPVBKTgLyykxtx3FcQtprTA8+70kc7NP06giRR6e8Sp3kie109CkmLcWtRepVFK3k0di6wg4lFvOIonLUnXo+ZqCHOsQZvgQJBAkECQQJdGkJBLDWpZvvL1x4N4SXCb8sxoBr6buttuUVno9ZweOKBNj08PXI4/O4krpdG0fdPurdu2H0ZASxaDGjFqk9Bedi4qwNcFjTvISHNa2iDPtScQNYO07m4UCQQJBAkECQQJeUQGc6o0tWIBT6LykBgTRhJufQYMcyrCZ9ofFAScvLnIEt2jScDnjWpNSixwWujGgzzogxE7um1ATcxNjx6gB0nVShrjolHrZrciZoTVZbXfMzVpX2n0BDNr6V5pNXRrLTNRwKIUggSCBIIEggSKCrSiDYrHXVljtRyy2nA/6y2vvylM+h1jv9LCvIOps90njgOwCLR/MCwtj81hk1KuHbEEQsmK6LwFpcuegxT2LVOlSfsoVjj7aG1jWoXF9n65DlKGC3WiK1n1qsGo1TCJ9BAkECQQJBAkECXV0CgVnr6i14opVfqlEAVUvaIZiuOpivPdbStMGyMkZYDzbOzUzrz87ek+HPxLYproCaWLYYmHWqkNg2D9qnTY+vSrDPWrVVNf/MGtuXuBdqWxoPB+Wc0gpALZJWeA8SCBIIEggSOLkkEM+GJ1etQm3+YhJwMzaHTbJkawFG8WByW2dpbXstu62fZacPwqWgznpmTADTFRIzm1ek+hQgix4CL12mAs8xaG/kmYiHAH0HrIVXorUMR4Y3rCW90p9OIB4vnUwDUIskFt6DBIIEggSCBE4+CQSwdvK16V+0RpFCMwJbsmVrR0nZjOOB8YzORHKvZQHaEu0HeDhBq2VmlrIvW2+8QnMBW+LGxJBpw9sUWINJSyT3WXNLmTUndwDWduNpusk3u02mt5K2QJ7Uooof5cyXEIIEggSCBIIEggROKgkEm7WTqjn/8pXRUwKOAKcIRIn5aktPWZ3xPUOvtnz2VxvIKx+4lcOrJ2Zs/bgWmzYeFIWXAuZsB2HlyoBhNbBoCT7xLE1ri7b6IEYHqPPvAay5GMJbkECQQJBAkMBJJ4EA1k66Ju0iFQJ0/WFBICzl2ekM2h92VYgVJBAkECQQJBAkcLJIIKhBT5aW7Gr1YJuP48I7bWTrhFlKLXrcBeFAkECQQJBAkECQwMkvARn9hBAkcAJLIAC1E7hxQtGCBIIEggSCBP4HJBCYtf8BIYcs/kAJBDXnHyioEC1IIEggSCBIoDtJIDBr3am1Q12DBIIEggSCBIIEggS6nAQCWOtyTRYKHCQQJBAkECQQJBAk0J0kEMBad2rtUNcggSCBIIEggSCBIIEuJ4EA1rpck4UCBwkECQQJBAkECQQJdCcJBLDWnVo71DVIIEggSCBIIEggSKDLSSCAtS7XZKHAQQJBAkECQQJBAkEC3UkCAax1p9YOdQ0SCBIIEggSCBIIEuhyEghgrcs1WShwkECQQJBAkECQQJBAd5LA/wP5yXh6cvI71QAAAABJRU5ErkJggg==;" vertex="1" parent="1">
                    <mxGeometry x="90" y="100" width="619" height="362" as="geometry"/>
                </mxCell>
            </root>
        </mxGraphModel>
    </diagram>
</mxfile>